<mxfile host="65bd71144e">
    <diagram id="Sl3sVJZQw8A6kGjxZ_4A" name="ページ1">
        <mxGraphModel dx="1663" dy="841" grid="1" gridSize="10" guides="1" tooltips="1" connect="1" arrows="1" fold="1" page="1" pageScale="1" pageWidth="1169" pageHeight="827" math="0" shadow="0">
            <root>
                <mxCell id="0"/>
                <mxCell id="1" parent="0"/>
                <mxCell id="2" value="" style="shape=image;verticalLabelPosition=bottom;labelBackgroundColor=default;verticalAlign=top;aspect=fixed;imageAspect=0;image=data:image/png,iVBORw0KGgoAAAANSUhEUgAAAeAAAAIACAYAAABaeL+KAAAKqWlDQ1BJQ0MgUHJvZmlsZQAASImVlwdQU1kXgO976Y2WEDqE3qS3AFJCaAEUpIOohCSEUEIIBAE7sriCa0FFBCu6IqLgWgBZCyKKBRGw1wVZFJR1sWDD8j9gCLv7z///85+ZM+d755177rl37n1zHgAUJa5Ekg4rAZAhzpGGB/gwYuPiGbghQAJagA5ogMrlZUtYYWEhAJFp+3d5fwdAE/am1USuf3//X0WZL8jmAQCFIZzEz+ZlIHwC0Rc8iTQHANQexG+4OEcywe0I06RIgQjfm2DhFI9McNIko8FkTGQ4G2EaAHgylysVAkBmIH5GLk+I5CF7I2wr5ovECEsQ9szIyOQjfBRhMyQG8ZEn8jOT/pJH+LecSfKcXK5QzlNrmRS8ryhbks7N/z+3439LRrpseg4TRMkp0sBwxKoge3YvLTNYzuKkuaHTLOJPxk9yiiwwapp52ez4aeZzfYPlY9PnhkxzssifI8+Tw4mcZkG2X8Q0SzPD5XMlS9msaeZKZ+aVpUXJ/SkCjjx/QUpkzDTniqLnTnN2WkTwTAxb7pfKwuX1C8QBPjPz+svXnpH9l/WKOPKxOSmRgfK1c2fqF4hZMzmzY+W18QW+fjMxUfJ4SY6PfC5Jepg8XpAeIPdn50bIx+YgB3JmbJh8D1O5QWHTDNggE6QjKgUMEII8+QKQI8jLmVgIO1OSLxUJU3IYLOSGCRgcMc96FsPe1t4RgIn7OnUc3tIn7yFEvzrjy2oFwLUEcQpnfFxDAE49A4D6fsZn+AY5ShsBONPNk0lzp3yTdwkDiEAR+Q5oAF1gCMyAFbAHzsAdeAM/EARCQSSIAwsBD6SADKTyxWApWAWKQSnYCLaCSrAb7AMHwRFwDDSB0+A8uASugW5wGzwEfWAQvASj4D0YhyAIB1EgKqQB6UHGkCVkDzEhT8gPCoHCoTgoERJCYkgGLYVWQ6VQGVQJ7YVqoV+gU9B56ArUA92H+qFh6A30GUbBZJgG68AmsA3MhFlwMBwJL4CFcBZcABfB6+EKuBo+DDfC5+Fr8G24D34Jj6EAioSio/RRVigmio0KRcWjklFS1HJUCaocVY2qR7WgOlA3UX2oEdQnNBZNRTPQVmh3dCA6Cs1DZ6GXo9ehK9EH0Y3odvRNdD96FP0NQ8FoYywxbhgOJhYjxCzGFGPKMQcwJzEXMbcxg5j3WCyWjjXFumADsXHYVOwS7DrsTmwDthXbgx3AjuFwOA2cJc4DF4rj4nJwxbjtuMO4c7he3CDuI56E18Pb4/3x8XgxvhBfjj+EP4vvxT/HjxOUCMYEN0IogU/IJ2wg7Ce0EG4QBgnjRGWiKdGDGElMJa4iVhDriReJj4hvSSSSAcmVNI8kIq0kVZCOki6T+kmfyCpkCzKbnECWkdeTa8it5PvktxQKxYTiTYmn5FDWU2opFyhPKB8VqArWChwFvsIKhSqFRoVehVeKBEVjRZbiQsUCxXLF44o3FEeUCEomSmwlrtJypSqlU0p3lcaUqcp2yqHKGcrrlA8pX1EeUsGpmKj4qfBVilT2qVxQGaCiqIZUNpVHXU3dT71IHaRhaaY0Di2VVko7QuuijaqqqDqqRqvmqVapnlHto6PoJnQOPZ2+gX6Mfof+WU1HjaUmUFurVq/Wq/ZBXUvdW12gXqLeoH5b/bMGQ8NPI01jk0aTxmNNtKaF5jzNxZq7NC9qjmjRtNy1eFolWse0HmjD2hba4dpLtPdpd2qP6ejqBOhIdLbrXNAZ0aXreuum6m7RPas7rEfV89QT6W3RO6f3gqHKYDHSGRWMdsaovrZ+oL5Mf69+l/64galBlEGhQYPBY0OiIdMw2XCLYZvhqJGe0RyjpUZ1Rg+MCcZM4xTjbcYdxh9MTE1iTNaYNJkMmaqbckwLTOtMH5lRzLzMssyqzW6ZY82Z5mnmO827LWALJ4sUiyqLG5awpbOlyHKnZc8szCzXWeJZ1bPuWpGtWFa5VnVW/dZ06xDrQusm61c2RjbxNptsOmy+2TrZptvut31op2IXZFdo12L3xt7CnmdfZX/LgeLg77DCodnhtaOlo8Bxl+M9J6rTHKc1Tm1OX51dnKXO9c7DLkYuiS47XO4yacww5jrmZVeMq4/rCtfTrp/cnN1y3I65/elu5Z7mfsh9aLbpbMHs/bMHPAw8uB57Pfo8GZ6Jnns8+7z0vbhe1V5PvQ29+d4HvJ+zzFmprMOsVz62PlKfkz4f2G7sZexWX5RvgG+Jb5efil+UX6XfE38Df6F/nf9ogFPAkoDWQExgcOCmwLscHQ6PU8sZDXIJWhbUHkwOjgiuDH4aYhEiDWmZA88JmrN5zqO5xnPFc5tCQSgndHPo4zDTsKywX+dh54XNq5r3LNwufGl4RwQ1YlHEoYj3kT6RGyIfRplFyaLaohWjE6Jroz/E+MaUxfTF2sQui70WpxknimuOx8VHxx+IH5vvN3/r/MEEp4TihDsLTBfkLbiyUHNh+sIzixQXcRcdT8QkxiQeSvzCDeVWc8eSOEk7kkZ5bN423ku+N38Lf1jgISgTPE/2SC5LHhJ6CDcLh1O8UspTRkRsUaXodWpg6u7UD2mhaTVp39Nj0hsy8BmJGafEKuI0cXumbmZeZo/EUlIs6ctyy9qaNSoNlh7IhrIXZDfn0JDGqFNmJvtB1p/rmVuV+3Fx9OLjecp54rzOfIv8tfnPC/wLfl6CXsJb0rZUf+mqpf3LWMv2LoeWJy1vW2G4omjF4MqAlQdXEVelrbpeaFtYVvhudczqliKdopVFAz8E/FBXrFAsLb67xn3N7h/RP4p+7FrrsHb72m8l/JKrpbal5aVf1vHWXf3J7qeKn76vT17ftcF5w66N2I3ijXc2eW06WKZcVlA2sHnO5sYtjC0lW95tXbT1Srlj+e5txG2ybX0VIRXN2422b9z+pTKl8naVT1XDDu0da3d82Mnf2bvLe1f9bp3dpbs/7xHtubc3YG9jtUl1+T7svtx9z/ZH7+/4mflz7QHNA6UHvtaIa/oOhh9sr3WprT2kfWhDHVwnqxs+nHC4+4jvkeZ6q/q9DfSG0qPgqOzoi18Sf7lzLPhY23Hm8foTxid2nKSeLGmEGvMbR5tSmvqa45p7TgWdamtxbzn5q/WvNaf1T1edUT2z4SzxbNHZ7+cKzo21SlpHzgvPD7Qtant4IfbCrfZ57V0Xgy9evuR/6UIHq+PcZY/Lp6+4XTl1lXm16ZrztcZOp86T152un+xy7mq84XKjudu1u6Vnds/ZXq/e8zd9b166xbl17fbc2z13ou7cu5twt+8e/97Q/fT7rx/kPhh/uPIR5lHJY6XH5U+0n1T/Zv5bQ59z35l+3/7OpxFPHw7wBl7+nv37l8GiZ5Rn5c/1ntcO2Q+dHvYf7n4x/8XgS8nL8ZHiP5T/2PHK7NWJP73/7ByNHR18LX39/c26txpva945vmsbCxt78j7j/fiHko8aHw9+Yn7q+Bzz+fn44i+4LxVfzb+2fAv+9uh7xvfvEq6UO9kKoBCFk5MBeFMDACUO6R26ASDOn+qnJwWa+geYJPCfeKrnnhRnAGq8AYhaCUAI0qPsQtQYYTJiJ1qiSG8AOzjIdbr3nezTJwSL/LHsMZ2g6480wD9lqof/S93/tGAiqyP4p/0XUKsFdZZeJbcAAACKZVhJZk1NACoAAAAIAAQBGgAFAAAAAQAAAD4BGwAFAAAAAQAAAEYBKAADAAAAAQACAACHaQAEAAAAAQAAAE4AAAAAAAAAkAAAAAEAAACQAAAAAQADkoYABwAAABIAAAB4oAIABAAAAAEAAAHgoAMABAAAAAEAAAIAAAAAAEFTQ0lJAAAAU2NyZWVuc2hvdPgId0gAAAAJcEhZcwAAFiUAABYlAUlSJPAAAAHWaVRYdFhNTDpjb20uYWRvYmUueG1wAAAAAAA8eDp4bXBtZXRhIHhtbG5zOng9ImFkb2JlOm5zOm1ldGEvIiB4OnhtcHRrPSJYTVAgQ29yZSA2LjAuMCI+CiAgIDxyZGY6UkRGIHhtbG5zOnJkZj0iaHR0cDovL3d3dy53My5vcmcvMTk5OS8wMi8yMi1yZGYtc3ludGF4LW5zIyI+CiAgICAgIDxyZGY6RGVzY3JpcHRpb24gcmRmOmFib3V0PSIiCiAgICAgICAgICAgIHhtbG5zOmV4aWY9Imh0dHA6Ly9ucy5hZG9iZS5jb20vZXhpZi8xLjAvIj4KICAgICAgICAgPGV4aWY6UGl4ZWxZRGltZW5zaW9uPjUxMjwvZXhpZjpQaXhlbFlEaW1lbnNpb24+CiAgICAgICAgIDxleGlmOlBpeGVsWERpbWVuc2lvbj40ODA8L2V4aWY6UGl4ZWxYRGltZW5zaW9uPgogICAgICAgICA8ZXhpZjpVc2VyQ29tbWVudD5TY3JlZW5zaG90PC9leGlmOlVzZXJDb21tZW50PgogICAgICA8L3JkZjpEZXNjcmlwdGlvbj4KICAgPC9yZGY6UkRGPgo8L3g6eG1wbWV0YT4KvXvohQAAABxpRE9UAAAAAgAAAAAAAAEAAAAAKAAAAQAAAAEAAABjJxsbNGAAAEAASURBVHgB7J0JvFXT+/+fBhqU5vpGpYmKMv8QIuRv+KIioaRIKlMTEiKkiEJKpVCSeZ4zZvySJCVDhkqUylAKGar/fa+v53zX3Xef8d577jnnPs/r1T17WNP+rN36rGdYa5f5/ffft4qJIWAIGAKGgCFgCKQVgTJGwGnF2yozBAwBQ8AQMAQcAkbA9iIYAoaAIWAIGAIlgIARcAmAblUaAoaAIWAIGAJGwPYOGAKGgCFgCBgCJYCAEXAJgF6SVeb5/GXevHmuCXvuuadUrVq1JJtjdRsChoAhUGoRMAIuZV2/fPly6devn3vqG2+8UVq3bl3KELDHNQQMAUMgMxAwAs6MfkhbK4yA0wa1VWQIGAKGQEwEjIBjwlO8N3/++WepUqWKbLPNNgUq+umnn+Svv/6SOnXqSNmyZQvcD7tA+jVr1kj16tVlu+22C0siRsChsNhFQ8AQMATSjoARcBoghxgvvPBC2bJli1x88cWyZMkSmT59umzYsEGGDh0q7du3d63gfPLkyTJ//nxZt26du1ahQgXZbbfdnNm4YcOGoa19++235b777nPkunnzZpembt26cvzxx0vnzp2lXLly7trw4cNlxYoVsnr1ancOuVeqVMm1qXnz5qFl20VDwBAwBAyB4kHACLh4cM1X6p9//ikdO3Z01zp06CAvv/xy5L4S8Ndffy1XX32102AjN70DtOTBgwdHyFpvTZkyRZ544gk9LfDbsmVLuf766wUi79WrV4R8/YRjxoyRNm3a+Jfs2BAwBAwBQ6CYETACLmaAKd4nYM4xKR9++OHSpEkTOeCAA6R+/foycOBApxmjrZ577rly0EEHuXQLFy6UW265RTZu3OjMylOnTpUaNWpQjMydO1euuuoqd0wwFcFVO+20k3zzzTfy+OOPR4i+a9eucuaZZ8rKlStl6dKlMnLkSJdn0KBB0qJFC1f/tttu667ZH0PAEDAEDIH0IJAQATPQY+IsLoFcEPyhxSHFXT5tPvXUUx2ZhrXfJ2DIF43U1zjffPNNGTVqlMs6YMAAOfroo/MV89lnnwlkiWBWhqAxZ/OLT3fHHXeUCRMmSMWKFSP5uI9GTd9B6vfcc4/UrFnTfMARhOzAEDAEDIGSRSAhAp49e7bTwkq2qZldOz7eY445JrSRPgFjgh4yZEi+dCwHevXVV6VatWpy7733Svny5fPd56R3795Og23VqpWMGzdOVq1aJWeddZZLh+arJm4/42uvvSaYl5HrrrtO9t57byNgHyA7NgQMAUOgBBFIiICJ1l22bFmxNZPgI6S4NoUo7vJpO6ZfNMww8Qn4ggsukGOPPTZfMrRbtNx27drJZZddlu+enowePVreeOMNh9FDDz0kH3zwgVxxxRXuNoFb1B8UAq7OOeccd7l///5ywgknGAEHQbJzQ8AQMARKCIGECLiE2pYz1foEfMkll8hhhx2W79kwX69fv95FLCth5kuQdzJt2jR59NFHpUyZMvL000/L888/LxMnTnTJHnnkkdBlR5s2bXJlkqhbt27So0cPI2CHmP0xBAwBQ6DkETACTkMfxCPgnj17uuhnTNiYssNk2LBhsmDBAqldu7bMnDlTXnrpJWeKJu2sWbNCte/FixfLRRdd5IpT37KtAw5D164ZAoaAIZB+BIyA04B5PAJWciUwS322frMIqDr55JPlt99+c1tH4jP2yfWGG26Q3Xff3c/ijtGM77zzTndM4Ncee+xhGnABlOyCIWAIGAIlg4ARcBpwj0fA+HCffPJJ1xKWGTVo0CBfq7788kvBd4xgrkZjxmSNWRlybp+3kQfriYMyYsQIee+991x0NFozUeamAQdRsnNDwBAwBEoGASPgNOAej4DZmapPnz5u60nWBl977bVSq1Yt1zKIFr8xa3vZTGPGjBkuWpqb48ePd75g/MJEQhNkpYKf+Pbbb3enaM8aMe1HTxNZ3aVLF81iv4aAIWAIGAJpRMAIOA1gxyNgmsDyI3y5CJtiNG3a1Gm3bJzBVpZI3759pVOnTu6YP0SnE90MSSNsP/mvf/3LLVf64Ycf3DXWCI8dOzZC2lzs3r27sNc0UrlyZbcGmQ05TAwBQ8AQMATSh4ARcBqw9glYt54Mq5b11pMmTZI//vgj321IkmCqtm3b5rvOCUSK3/ijjz4qcI9dtsgX/DADy5juvvvuSHrbijIChR0YAoaAIZA2BIyA0wZ1YhX9/vvvwr7QaL58KAFNmI8whG3OoSVu3brVbcxBvh9//FEaNWrktrnkq0jRhLXRa9eudRpwvXr13PKmaGntuiFgCBgChkDRI2AEXPSYWomGgCFgCBgChkBcBIyA40JkCQwBQ8AQMAQMgaJHwAi46DG1Eg0BQ8AQMAQMgbgIGAHHhcgSGAKGgCFgCBgCRY+AEXDRY2olGgKGgCFgCBgCcREwAo4LkSUwBAwBQ8AQMASKHgEj4KLH1Eo0BAwBQ8AQMATiImAEHBciS2AIGAKGgCFgCBQ9AkbARY+plWgIGAKGgCFgCMRFwAg4LkSWwBAwBAwBQ8AQKHoEjICLHlMr0RAwBAwBQ8AQiIuAEXBciCyBIWAIGAKGgCFQ9AgYARc9plaiIWAIGAKGgCEQF4GsJmC+HDRnzhw54ogj3Dd04z6tJTAEDAFDwBAwBDIEgawm4DVr1kjPnj1lxowZ7mP0GYKpNcMQMAQMAUPAEIiLgBFwXIgsgSFgCBgChoAhUPQIGAEXPaZWoiFgCBgChoAhEBcBI+C4EGVXgmeffVa+++472X333eWAAw5IqPF//PGHPProo7J161Y59NBDpUGDBgnlK85Ea9eulRdffDHpKsqWLSunnXZa0vmKMsPChQtl0aJFUq1aNTnuuOOKsmhX1rx58+Tzzz+XGjVqyLHHHlvk5Wdqgbyfv/32m2y33XZJNXHz5s1SpkwZ4d1IRv766y/ZZpttkskiqeRJtX1JNcwSZyQCRsAZ2S2pN+riiy+Wjz/+WE444QTp379/QgX9/PPP0q1bN5f2sssuk3bt2iWUrzgTQWJDhw5NqYrnn38+qXwE80FqyJ577ilVq1ZNKn8w8V133SUPP/yw7LDDDnLnnXcGbxf6/LbbbpPnnntOGjVqJFOmTCl0eZlcAKT7yCOPyPz582XJkiWOgCtVquSwZXJz5JFHSrly5Qo8ApPKJ554QmbPni2rV692QZotW7aUNm3aSOfOnYUywoSJzaxZs+STTz6RX3/91dVDHiame+21V1gWNxlKNk+q7QttgF3MWgSMgLO268IbnisE/MUXX8hNN91U4CHXrVsnv/zyi7tet25dqVixYr40aDmTJk3Kdy3eyfLly6Vfv34u2Y033iitW7eOlyXmfSPgmPAkfHPLli1y6623xrSE7LPPPnLttdc6DVcL/vPPP+XKK6+Ujz76SC/l+8U6RJ5tt9023/W5c+fKNddcI2ikQYHkhw8fLvvvv3++W6nkSbV9+Sq2k5xAwAg4J7rxfw+RCgEz0H3zzTeukHr16kXVDv5XS8kdYSqfNm2aawCaYPPmzQvdmGwj4J9++slNQipUqCD169cv9PNnagFPPfVUZDLVqlUr6dixo1vt8OGHH8rLL78sq1atck2/8MIL5Zhjjok8xvTp0+XBBx9055At1qDKlSvLO++8I88884y7fuCBBzpC1UxM6nr16iVYQzA7d+/e3U3EVqxY4awZK1eudNfHjBkjaNJIKnnIl0r7yGeSewgYAedYn4YRMIPKxo0bpU6dOkXytAw8VapUSdqnVhSVJ0vAkBV+OZ49mg8wGQLGXI9Ur149n9blP1thNGAmQz/88IObBBXWFO63KZFjND+0s2jm2UTKKMo0aKP/+c9/pFmzZjJ27FhhwqFCv/bp08eZpA8//HDhvUd4z8844wxHpE2bNnX5fCsJFo5XX33VpcU9gJsAYSnjAw884I4vueQSOeyww9wxf5YtWyYDBgxw2HCd+0gqeVJtn6vQ/uQcAkbAOdalPgEz+7/vvvvcAMLADmnuvffezjcMgagwKFx11VUuCOvMM890fjLu3X///W6jE3xfp556qvM3Elz0448/OtMv2udZZ50laCeJCgPqa6+95pIzUCYb8JUIAW/YsEEmT57s/IaYrBEG7912282Zmhs2bOiu8QezIloOfkIEooaAwFG16y+//NINzu+//74bhEmHSbJFixZy/PHHS/v27bkUkVQI+KuvvhLy4fv++++/XVkEWYE9vnz6TuWxxx6Tt956y5HHRRdd5C6/8MIL8vjjj2uSqL8EbaFJquBjJd/rr78uS5cudZOVHXfc0Wl/Xbt2jRCUpk/nL+/c+vXrnTZ6+umnF6iaZ1+8eLHTSG+++WZ3/80335RRo0a5Y2IIgn3z7bffOuImAe+fBuz17dvXWYF4drWwuEL++XP99dc7jCBziJr3KZU8qbbPb4sd5w4CRsC505fuSZSAGbAh1jBhYMeUpuQXLQhLg30wc6IdsfFJUDDtURZaSiLC4IXmgNxwww0uWjuRfJomHgF//fXXcvXVV4e2lTIwLw4ePDgyMGN2VPLVOvjlmQi+4ZnPPfdcF5Dj3/eP0cROPPHEyKVkCZg2Dxw40JEfhRCxCzGq4OvGF6qTJu0XPwjLx1Xzhf1CqkyyEIKM6AMmFmGCBo4vtbA+8bCy412jbdddd51L1qNHjwKTPCaUBA5C0AcddJBcccUVLu3EiROdmRlrB2Zof+KidZKPd57JKHUwSVMiph/pz6AQ9AbuyLhx45zpP9k8TFRTaV+wLXaeOwgYAedOX7onUQLmhFk6O4Xh79q0aZM8+eSTohHCLFFC60XiEbBLlPeH6Gi0ErQ/BiR8dIhvAnQXYvzxiaKoCRjSgsiIlqWNECeDM4MxmuUtt9ziJiUsY5k6dapbxoNvD81v5MiRrtWDBg1ymi2TDoJ0Lr/8cqdJs6QI4iZKmqUwn332mTNvMsmpVauW3HvvvZGnTpaAhw0bJgsWLHDLltDadt11V6cFv/HGG84HigmdIDHVXMMIGM2O5wgK5HL77be7y+CAdrjHHnu4c6wEvBOIasa8M0TRE8gGCTJh4dm23357ly4T/mCip//ABwG/Qw45xB1feumlLviK/qMfwkTxxkQNIfK8/L9B+OV9DgqatlobmJQwOUk2T9u2bSWV9gXbYue5g0BOEDCDg+/nidU95cuXL/Qyk1jlozGhsRSXoAWNGDEiavE+AZMuGLU5evToyMDFINu4ceOECPjkk0925ma/YgiOQX+nnXZyJl//XrRjzMP47xAluWhpw67H0oB98x4+u6OPPjpfEZAmBItgOqb9SDQfMITOkhWWjPjmSpcp7w9LT5R4WXak2layBHzSSSc5UodgNRpb61CfJeZzjQoPI2BN7/9iymbAhzwQn8QhbM6xbIQtWfOx8vP55fvH4KABTv71aMdgFWbqjZae65h80Xj5pxLsl/PPP18w5+MeYMIVJkxCeFdq1qzp+vDdd991VhPSEh297777FshGkCL1IwR9YUXC0oIkmodAsVTa5yqxPzmJQE4QMP8xEg1Y4T+9+gWLo0fRMjCPFZfooBGtfCVgIjXVL+anRTuEnBD1kcXTgNGC0FwxN/tC+WyWwWCErzkdEouAlazQViEEJltB6d27t6D1Yg7ElIhEI2Dusf6U/mRA998xrvEuqd8Vc6dqickSsPo6mVwNGTLEmUZ5jxC0XwKjONfgqEQJGAJiHSzC4A9xqDz00ENy9913u1N/8qD3+T3nnHOcf9wnf/++f8x6ZNbdJiq8S/RlMvLvf/+7wP8tnguTsWKDxYdJMCQKMYaJvrdo+7T5pZdeirwLYEZfB4WNYSB7hHeId0zfn0TzdOnSxVmkkm1fsC12njsI5AQBJ/Mxhk8//dSZY4urC1kagWZXXMKggYkymigBBwdcTQ9xoPGg+TBYMfjHI2A0evXbajn8zpw50xEvgxEEnQ6JRcBot2humMrZUCRM1AIAmUJCSCwC5j5YffDBB06z+v77753PmN3GMIWqFIaA77jjjgiRUx4TGkzdBGCxzpVJly+JEDDEopt04MtG6/MnJJAHxAOxq2nbr4Njlu3gH69du7br6+B9/xxLCFp1osKkLtGd2rRM/u9iQaEPXnnlFedq4B4+aiZfiE4a1L/rLgb+qAasrgNM2bwXCLiEBRX67wgTWCYQyebBIpNK+wLNt9McQqDUEXAO9V3ooygBQ6wQbJgQPIIVAPMqA0I8AibAasKECQWKyjQCVk1Sn6tAg/MuoLVC4gQ6Pf30085X7A+uDOR+0BEBShAZhBsUfMRop0hhCJhJEVhCmvjqg7Lffvs506UuI4tHwEwW8FNSLuu6CeBikuSLRhD716IdYy5GS84kwT2AhktUPX2JBQYLAlYd/P3RLEA8g/ph1QdMZL8uLSIWgElPUHw/MdiCSbJ58AGn0r5gW+w8dxAwAs6dvnRPogQcLTCKgQv/J1od5AtZxSPgnXfeWcaPH18AqUwjYDU/RtP+eQANwPG1umgE7Ecno7GhkaKZslSlSZMmwvIk1qoihSFgV0DeH3zNBGPxj12c/KAqfPUEU0E2sQgYLZRANAKoMMtibsVHHxSihiFqDVYL3vfPia8IC0zy0xT1Mdou20KitUfbTxuc6E+ECQXfBdflQpAxy+jChGVdy5Yti0RBg5lGPp933nmh9b399tuRQD20ZCwoyeZBs06lfWHPYNdyAwEj4Nzox8hTKAFHI00/mIQoaMyAuULASq6YXFlGFBQ0QoLJiGL2zZbRCFh9uZTDRhBB079v5k2VgCFK1iFDrEHfI75CnkODqIj8ZelYNAImIhvyRVunPDS1aGZeAvA0il3LDeKFr5xNVyAbJh2xBLIjMj5RQYOMtWUoGrdGMUfzUfvxDLz3TBJoxz333OOa4W+0oe3CbYAvl4koS9BOOeUUZ8VgeRYTIH+jDc3DLxNQVhAwqaGvyZ9sHiZxqbTPb4cd5xYCRsC51Z9uaQTmMjQHTI+Y2XxRfyODAX5d/I25QsD+spowUkFjveCCCxwcvok+GgGrrxC/O5tfaGAUBTAA42dGC0NSJWC0UF3DqlHprsB//qAJYzJFiIImICqMgLFosKkI2zQirPWFIKIJZKJWDTQ5fx0zeZgYsMkKBHzUUUc5Yo9WFteLOggL07JaF4I7U2k71ALDOdYBrBJMGgiSQjp06OCC2tzJP398Yvfx1gA+/l9Qlq6RJxvEzEYgTHD8Ncep5Em1ff4z2HHuIGAEnDt96Z5ENWBO2GaPpRI6mBC4gvkMTRCzHuY2JJ0E7O/YRFt1tynXkAT+xArCImAIMiFymMEYHyGBNghLVxjIsQBAqEw+1C9K4BxkgzB4E62KECWsgVpq4uQ6gUAM0nPmzOHUCVHXWpdqzol8DYmymAzQJwSPEQVN+xBIlUkFy3vQaHl2NLAwAvY1WqwflBMmBA/hS4ZUcEGgZXMO2TXOM3MjtAmN/7333nPnSvzuJMofzMWY7BMV/OeYjKMJ26fSJ8QqoC0z2cEFgIAL2jbYgBvtJkYBczrCem1M2HqMVsuElN3DWHvO8qzgMiWi3VnzjWDp4F3Bfw7p4hfWDzv4S45SyaNtSrZ9rmH2J+cQMALOsS71CVgfDX8YGpuunySqmQEWPyiSTgIuzo04eBaIkPW5CIM8FgAGafypEDPCsrVOnTq5Y/3D5vu6PhmSQvtFG2LpDgM+wkSGgXxZnv8QYScq/YgFxwS3tW/f3plO0bQSIWDK8TV3SJxJCSTBJ/EgIoS1wmeffbY7DhIwgWDRIpldBu+Pb56HYCFe8IG8IDL8vRCp1hsroM0rtlgOmaxhxVHBFM5kgYkWGjpCf7AMyN+JjShpJiDan0xaeBf0/eeY9z84+fMnXJRNXWy7Cj4InyRUa4S7kPcnlTyptk/rtN/cQcAIOHf60j0JM3eiOvFzYVplKYkSDwmIDsU3iOlZBS1Dt9XDHIqZDdFt83bZZZd8A6HmU7KLFfCiafUXU+306dPdaTDiWNPE+sUUjHkZoX1BEzvXWfuKRoiW5wvEiiZLNGpQ/HWx3NOtKNm3mnp0wOceGipmWbRtBn829/d9ijooR9tXmDJ8IfIZf+Wzzz7ryvHvQTAsG8NfyYQA0X6BMHlO+pc0iQi7YBEIpIImxrNCCr6wphlSx0eqmqV/P13HbJiBqRxNNChMJthMBRyCwsRoRN5GNFg3fEGrZZKKKT9MeLeIjvf/z+B6oL+pi/4ISip5Um1fsG47z24EjICzu//itp7BnWUZDCiQr5pJ42bM8gRocGhyaL5oQBA1H2EIG0D1UTG9suECRM1AjdkXwQ/K+mI0KjQtyvJJiaAnrAhcJ2+qAgmiXeve1Kwnp0y1VKRabrx8aNtM1thBimMsJHzIA00xE4R3mEA1SItjNFOsEfolo1htBEsmpEzGSM9z+X0XlheLAv3Nu4ObApN0vN3tUslD3am0L6zNdi07ETACzs5+s1YbAoaAIWAIZDkCWU3A+HRYdkGQSGnR7LL8fbPmGwKGgCFgCPyDQFYTsPWiIWAIGAKGgCGQrQgYAWdrz1m7DQFDwBAwBLIaASPgrO4+a7whYAgYAoZAtiJgBJytPWftNgQMAUPAEMhqBIyAs7r7rPGGgCFgCBgC2YqAEXC29py12xAwBAwBQyCrETACzurus8YbAoaAIWAIZCsCRsDZ2nPWbkPAEDAEDIGsRsAIOKu7zxpvCBgChoAhkK0IGAFna89Zuw0BQ8AQMASyGgEj4KzuPmu8IWAIGAKGQLYiYAScrT1n7TYEDAFDwBDIagSMgNPYfXwib86cOXLEEUdkzKfe0vj4VpUhYAgYAoaAh4ARsAdGcR+uWbNGevbsKTNmzIj7fdHibouVbwgYAoaAIVCyCBgBpxF/I+A0gm1VGQKGgCGQ4QhkNQE/+OCD8vjjj8tJJ50kJ598coZDLWIEnPFdZA00BAwBQyBtCGQ1Ad99993y0EMPyamnnupMu2lDLcWKjIBTBM7LNm/ePPn888+lRo0acuyxx3p3EjucNGmSLFmyRC6//HKpXbu2/PHHH/Loo4/K1q1bEysgL1WnTp2kfPnykXyHHnqoNGjQwOVfuHChLFq0SKpVqybHHXdcwmVmWsLNmzdLmTJlpGzZskk17a+//pJtttmm2PPEa9/XX38tt912mxx00EHSpUuXpNpjiQ2BdCFgBJwupPPqMQIuPNgMqs8995w0atRIpkyZklSBH3zwgVxxxRXSpk0bGTNmjMu7bt06Oe2005Iqh4lfhQoVpFu3bi7fZZddJu3atXPHd911lzz88MOyww47yJ133plUucWVGEsRcQcdOnSQwYMHR62GycgTTzwhs2fPltWrV7tAwZYtWzq8OnfuLJUqVQrNy4Ro1qxZ8sknn8ivv/7qnh2MmZjstddeRZYnmfZt2bJF+vfvL999951MnDhRdtppp9B22EVDoCQRMAJOI/pGwIUHO1UCRjPTAXnUqFERYvAJGFKtUqVK3EbecsstUq5cuawg4D///FPOPfdcR0SHH364XHzxxaHPR7orr7xSPvroo9D7u+++u1x77bUFovfnzp0r11xzjaCRBgWMhg8fLvvvv3++W6nkSaV9rDi44YYbZLfddpMbb7zRafT5GmInhkAJI2AEnMYOMAIuPNg//fST/PLLL04DrV+/fsIFYmaeNm2atGjRQiBQFZ+ATznlFOnVq5feivmLhvXNN9+4NPXq1Ytoh5miAUOImNrvu+8+wWyPxCLg6dOnC5oyAtmecMIJUrlyZXnnnXfkmWeecdcPPPBAR6juJO8P/QBeLK/D7Ny9e3dp3bq1rFixwlkBVq5c6a5jbUCTRlLJQ75U2kcf9enTR2jHRRdd5Jb/UZaJIZApCBgBp7EnjIDTCLZXFaZLiAKyDQ7EqRKwV3y+w0QJGIJEq4tm1s1XaJInaLILFiwQtH5fohHwxo0b5YwzznBE2rRpUxk7dqxUrFgxkhXt8dVXX3XnmNUxryOYtR944AF3fMkll8hhhx3mjvmzbNkyGTBggHtGrnMfSSVPqu2jvscee0ymTp0qO+64o/vFr21iCGQKAkbAaewJI+D8YEOGGzZsEDRIzJhhApngj2zSpIlceumlbkB96623HAmQPxHBZ4zpGvMyvsptt902ki1VAoYUrrrqKhe8deaZZzo/KYXGImACvYjaf/3112Xp0qWOICEGtMauXbtGiC3SuBQP0Pq+/fbbArmjEfCbb74pmOWRoUOHSvv27d2x/qEsykQgavWZ9+3b11kBeAasC0G5/vrr3bNC5hA1Jv5U8qTaPtrD+0WQJtrw1VdfLfvtt1+wmXZuCJQYAkbAaYTeCDg/2GhaL7/8sruIlqKRxJoKEy8DNqIDfyo+YIgSv2Pbtm2dn1PL5zdVAv7555+T8gETnIQ/8v333/erjxxXrVrVtQ0yLqzwTGjXKhdeeKGsX78+qgmaICXMzEQ8Y4YO84MTcMYz77333nLdddflw+3EE0+MELTWya9OfDgeN26c4DJQ8k40T6tWrVwQVbLto04VNHHM8UcffbTTyvW6/RoCJY2AEXAae8AIOD/YLNlB40KUYP0UM2fOdD5MzIaYLuvUqeM02WSioCEitEvM0L179y6wJMUn4KOOOsqtKffb4B8TVKTm12QJePLkyfLkk0+64lg+1bFjR6cRfvzxx8LSKAgaP+q9994r22+/vV9toY9PP/10+fHHH6MSMJYFgq8gSDT4MBk2bJgza2OihrBptwZ08Yt2HZTFixc7kz/XsWQwyUg2D5OmVNrnt+WOO+5wlgfen3vuuce/ZceGQIkiYAScRviVgBlgfR9brCaw3pSBq7iENtWtW7e4ipfq1avLiBEjQsvHJItvljbowO4nPPvss1307p577imjR492t5LVgFkiM3DgQJcXDZQAI198Avavhx1DkE899ZS7lQwBY8Lt16+fixQmuIlobF8+++wzGTRokLtEOsi5KCUeAZ9//vny1VdfFQhQ89uAiRpTcM2aNZ0Z/91333UmXdIQHb3vvvv6yd2xb8FAC2ftNmZgJNE8xxxzjKTSPlfJP398E7bvw/bT2LEhUBIIGAGnEXUlYMyqiZIqvjVIorgEsyP+seISHbCjle8H5fiDI4TAwIv4AT7JErBPFKwbZv2wL+kgYDaLYe0wwhrhMBPvOeec46KHWTJz0003+U0s9HE8AmZ/ct5NSBRiDJObb75ZXnzxRae1s1b4pZdecmZl0hJVTnR5UNauXessG1zH+sDmJJiikUTzsIlGKu1zlfzzh41RNAgsbBLmp7VjQyCdCBgBpxFtJWBIJ1Gt89NPP5VNmzYVWytXrVrlTI/FVQGBN7vuumvU4v0AH4KZMBcjGszEUhiW0lAOkiwBv/DCC3Lrrbe6vARgMSHwxSfg//f//p/gm4wmTFYaNmzobiejAUM6EBb5o2m3LPch2IzduTC9F6XEI2Alf/XvhtWtGnCtWrWcmfyNN96IWCV4Pny1QVm+fLnT/LmOH5a+VEtGonnw26bSPr8tRGSr1QFzNhuEmBgCmYCAEXAaeyEVAk5j80qsKsyvmGF33nlnGT9+vGuHaj2YIDFfqiRLwGic6tdkSUpw2Y9PwMmsA06GgInWxh+aiKAd0+ailHgEjB8efzxrddF0w0T9sOoq8LXKkSNHyj777FMgm+8nxgfMs6kmmmgefMCptM9vjK+J8y7xTpkYApmAgBFwGnvBCDgc7GeffVYmTJjgbrLhAuSmPtGgppQsARP4RAAUEk8DLi4CZvtLtsEkiItdqWIJsQFhAU2x8sS7F4+AdbkQ/vr7778/tDg0SDRJ1ZJ9y8V5550Xuu/122+/LRAtQj/idtHlTInmQbNOpX3+Q/ht9bcN9dPYsSFQEggYAacRdSPgcLBZq8kuSmwcwQCNxoKfkWVJLE/yJVkCfuWVVyI+VYg4uCdwOjRgopw1eCtsuRXPx25N7BIFSbGutiglHgFDuhod7PvhtQ0//PCD8+Vq0BwTFT+63N9oQ/PwizXj+eefd1YHljeRXyPSE81D4Fsq7fPbgRtH98A2H7CPjB2XNAJGwGnsASPg6GCjKaEx7bLLLsKAz5aTvk9YcyZLwL4fMmzwTQcBQ0JqWmeCEfQzswTprLPOcgTMUiiN2tZnLuxvPAKG/AmSQvhgw5AhQ/JV6ZvxmUw0btzY3dcdsiDJ22+/Pd86bpZ9US8blvBFIqwASCp5Um2fqzDvz3vvvReJxA8LxNN09msIpBsBI+A0Im4EHB1sP1qZVAQsoZUR9ONLsgSM1sXmD2xEEW8dcHGZoCEjAonof9aisuuXkhjaPxuSQBIIEdBEQiNYApS48IWyZCsViUfAlImGiKaox2ioLIFj1zEmLn///XeBZUrz5893n3UkD4F2+HfZ1QzSZUKlH3bwlxylkkfblGz7yIfgemB99Xbbbec2GsEVYGIIZAICRsBp7AUj4OhgM8BDFBAlEm1JTLIETFmqXfNVnuCa5HRowLQBgoV4WfIFAUDA+Hv5bi0fM0D45B9ErcKn9FgLjUTbRlLTxvpNhIC///57p/lieUAIVmPLTu0PjpkoNG/ePF9V+k1uvcgEg00/dGkbEccEcPmSSp5U20e9fPsZ4ueTkfiATQyBTEHACDiNPWEEHBts31caLVhGt02EwEifiOiWiEThsiexrwFBMOwVjPBL9HUi4hM3WipmVkTJJWx/ZDQ4vgwEmfjCxiwsT0ID99vmm14LQ8A9evRwZv0w87LfDjbOYILC0jRf0GrZwUo1c/8ex/i1n3766Xwff8CCgTmdoDM06aCkkieV9rGEj200meSg5R955JHBpti5IVBiCBgBpxF6I+A0gu1VxSCMFoivFW3o4IMP9u6m9xBNH780G41wzHpwdufyPxARbBGBS2jHuo9y8H5Rn7MemWVGmM7ZepP2+RODsPoIymIpGR+ZYMMNTNLx1rqnkoe6k2kfm4ewtIpduIiwj4Vz2HPZNUOgOBEwAi5OdANlGwEHAEnjqe64tccee7hlLWmsulBVqW88LICsUAWXksys+/3iiy9cdH0w+K2UQGCPmcEIGAGnsXMwdxLhSqBNMLgojc0olVWhBROBTIQ1GpF+ID6TwUDTIxKczS9YR2vaW3K9pQFffGSCJWiGX3L4WeriR8AIuPgxthoyBAHVJtm1STeIyJCmhTaDCOk5c+a4ACwieE2SQ0B3IPOjsJMrwVIbAsWLgBFw8eJrpWcYAqxDXbBggbNCoBmZ5CYCBGzxCUW+pKWfQMzNJ7WnymYEspqA2duXD3XzibdOnTplcz9Y2w0BQ8AQMARKGQJZTcClrK/scQ0BQ8AQMARyCAEj4BzqTHsUQ8AQMAQMgexBwAg4e/rKWmoIGAKGgCGQQwgYAedQZ9qjGAKGgCFgCGQPAkbA2dNX1lJDwBAwBAyBHELACDiHOtMexRAwBAwBQyB7EDACTmNfsf8vX79p1qyZ290ojVVbVYaAIWAIGAIZhoARcBo7RL+Uk8xXd9LYPKvKEDAEDAFDII0IGAGnEWwj4DSCbVUZAoaAIZDhCBgBp7GDjIDTCLZVZQgYAoZAhiNgBJzGDjICTiPYVpUhYAgYAhmOQFYT8IMPPiiPP/64nHTSSXLyySdnONQiRsAZ30XWQEPAEDAE0oZAVhNwthFatrU3HW/hwoULZdGiRVKtWjU57rjj0lFliddBJPxtt90m++67r3Tv3t2154MPPpDPPvss4bYRSX/AAQfIvHnz5PPPP5caNWrIscce6/Jv3rxZHnroIdmyZYscfPDBstNOOyVcbnElpE2//PKLa2cydfz111+yzTbbJJNFUslD+8qUKSNly5Ytsrq0nw866CDp0qVLUuVa4tKBgBFwGvvZCLgg2HfddZc8/PDDssMOO8idd95ZMEESV37//XdHSGThM3RVq1ZNInd6km7dulX4Tu0nn3wiN9xwg+y+++6u4gkTJsizzz6bcCOOOOIIVw5E/txzz0mjRo1kypQpLv+ff/4pHTt2dMeXXHKJHHbYYQmXW5QJN23aJPfee697Vpbg0a6KFStKgwYNnNWqffv2odUxoZg1a5bL9+uvv7p3o02bNnLooYfKXnvtVWR5/vjjD3niiSdk9uzZsnr1atl2222lZcuWQl2dO3eWSpUqFaouJkD9+/eX7777TiZOnJgRE6HQB7KLJYaAEXAaoTcCLgh2URLw8uXLpV+/fq4SvvvbunXrghWW8JWXXnpJxo0bJ7vttpv7JrE2xydgtNl4mtghhxwi55xzjtOkM5GAIc6rrrpKFi9erI9Y4Peoo46SgQMH5rs+d+5cueaaawSNNCjlypWT4cOHy/7775/vVip5mAxceeWV8tFHH+UrS0+YGF177bWOlPUav8nWNWfOHDfRor95J9GyTQwBRcAIWJFIw68RcEGQSxMBoxGeeeaZsm7dOje4Y4JW8Qn46aeflvLly+utmL8//fSTM+1WqFBB6tev79JmggYMub3//vuuPZjB0dj/9a9/yRdffCHTp08X2o1A0pjSEUzUvXr1EiwZmJ0xzzOJWrFihbOSrFy50l0fM2aM01RTzUM+2kAMCQLZ8k3xypUryzvvvOO+Mc71Aw880BE+x0gq7UML7tOnj9B2LB/gYGIIKAJGwIpEGn6NgAuCnCgB//zzzy5z9erVo2oRyWjAaFgQVTQzY8GWFv7KY489JlOnTnVEibnd14ZSJeCwViVDwL/99ptA3miXRSVr166Vnj17CuZ2/J+XXXZZPo2efjr//PPl77//dq6C0aNHu6pnzJghDzzwgDsOms6XLVsmAwYMcH2GSZ37SCp5Nm7cKGeccYYj+qZNm8rYsWOdadwVmPcHTfXVV191p/QT7hEklbrIp/2+4447uv73+537JqUXASPgNPa9EXBBsGMR8JdffukGZDQpSAWBKFq0aCHHH3+8+D5ETJNoSvjykDp16jhyvfjii6V58+buGoRA1Pzrr78uS5cudcE6DIpoWV27do0MtCSmr959912XD+3o3//+tzvWP5SDORlNlbYceeSReiv0l7pPP/10p/mdddZZBaL2UyVgBve33nrLtR0NC4lHwGhj4I6v9YcffnDk06pVK0eWwecMfZg4F2nPdddd51JhxvU1fc0KgWrwnZJu37595ZtvvhH6ZNq0aZo08nv99de7vsOPTB4mDqnkefPNN2XUqFGu3KFDh+Z7j7j47bffOq2VY4j6tNNO4zClusi3YcMGYfc7tOGrr75a9ttvPy6bGAJiBJzGl8AIuCDY0Qh4zZo1cu655wq+xGiCae/EE090tzFdKvn66TFXElRDOQQ9qVnUT8MxAVuYTdVvTFnUrxri5MmTnQmVtJAEGhzRtmhHBNhACrEE0+uFF17okpAezcuXVAk42SCst99+2/mgea4wOfzww51fNtnIY7+sJ598UsALgSiJcA8KWvGHH34oVapUceZlzPJKdPQpfRsUfN08L4IfHZN7snmYaID/M88847RyzNC0ISjdunUTrC577723m0yk0j7qUkF7X7JkiRx99NFOk9fr9lu6ETACTmP/GwEXBDsaAV9++eUyf/58N3gPHjzYmSohDZbqYDLEjFirVi0XZUupaHVotSNHjnSVDBo0yGnKDNJEt0IIEAPCch2ihNGgPv74Y5k0aZIjaEiHqN3tt9/epXvxxRfl5ptvdsdEVWMqxXQ9ZMgQpz0SKAURoJHHk/vvv1/uuecep5U/8sgj+Uyy5PUJ+Pbbb4/pAyZIS0kjGQJG2z377LOF6F8sBETo0nYmG2CDZQBhXT3pUhX6hrowtYYtgfr+++9dsBzt2GOPPQTNln7AWoHwy0QgKAR0qZbPZIlJU7J52rZtK5deeqkLvuLd4P0Lk2HDhsmCBQvcRAnCTqV91KVyxx13OOsLuPMemBgCIGAEnMb3QAmYAbR27dr5fIBhzWAAY3CsV69e2O0iuYamWbdu3SIpK6wQfLYjRowIu+WuhREw5lqWgTBA+yZALYQlKhAlwhImJaNoPmBMikRHQ56YkyEeXyB1CBshnS7h4Zy2v/feexw6zQVy0eVSBAlhVk5EMJGzZhdtHK08KD4BB+8Fz9H2TznlFHc5GQK+6aab5JVXXnHaOoQAGahgHuVZsRCgsYJxUfqFtR78wwReMVlCIDoiujH3Y55FopmtsTxgckawJvD/KNk8xxxzjLNesCyKycctt9ziygv+wUSNqbpmzZoOi1TaR10qvtnb9yvrffstnQgYAaex35WAk6kSLYvBsbikuMvXASxa+8MImLRovzw3g6S/npdr+AfxwSKYEFVjjUbAbEoB9ohP2O7CP39Y0oMPObg8CDMkpEwELJo09RM8RLvQxBMlKUzWDPrt2rVzQUl+3RwXNwEzqenUqZPzDzO54XmD8sYbbzgtn+to+2j9RSXg9sILLziNU90KupaZOnR5FseQIvgGBfJmQob07t3bTRSwQCCJ5mFDDALEmHjim4bswwTLBxYQrCSsFU6lff7mG/i7NXDMX/8dVrddKz0IGAGnsa8xva1atSqpGkmvy0uSyphg4uIunwFs1113jdqaaARMBjRWdoiCuMAOawCbGmDeVEmEgBmkGUCZbPjarZbBL8tPKB/LxMyZM/1bLshJg4q4wTNhliRYKFHp0aOHazdakfqC/bw+AaPVxvLBMqnRSUmiGjCEA/EgTDJ22WUXv3p3zCQDDRlhfS7rdItCMB3jAiCoDiFwDesBWrxGBPvkT3/5/lNtgz/BwqfKsiGNoE40Dz5YnWypf1fL939VA1Y3Ryrtoy6VZcuWRSwvmMDZVMTEEDACtnegRBGIRsCYQtnZCcINCpqoRkUnQsD4DWNtCOGXr0FB/jW0R8y+kBjSPm8HJ6JnkxGInzZHCzDyCTiZdcCJEjD+TMy9iUrQFJ9oPj8dLgSsFQQ8qeyzzz7OosBuWL74GiJ+fNIFxffD4gOmr1SrTDQPfln6ji1Q2fVKffzButRPTLAck61U2uf7gH3tnQmYb54O1m3npQcBI+DS09cZ+aRhBMweumhguqcv2w9iDkXjbNKkidOk2C0JSYSAr7jiCqdJYy4msjmWEM0cDAB66qmnXKCW5ksm+Erz8LEQ/MeJaMDFQcC+n5sNJsIITtvKL77qhg0b+peSOiZgDnLEeoEQLQ720er1l/6cd955ofuCE8GtQXZovFgBNFo60Txo1rqcifgEguPChDgBtFbVklNpn6/F+/mJAMcVYWIIGAHbO1CiCIQRsF6jYfhZgyZsfHK673EiBEyUMySKsBFGUPviOlHUmGAZ1H3TMgMn/lu0OczT7OCEP5My0FoxRycirP3F3M+uUER4B6W4NWDWorLWGcH8iYYXFDR0Jj9I48aN4y6tCub3z/3gNQLfeP5YWFE37QNnf6MNv8zx48fL888/7yLJ6XcsE8nmwbSvEemUHRYQhYsDX7NaPjCVp9I+343w6aefCtH8iPmAHQz2Jw8BI2B7DUoUASVb/2MM6n9jwGajCTROFQZFNAhMqkgiBMygzeCN+GuH3YW8PwQFQRAQsL8/cXDJEYE++Ip14wjMyphqExF8yGxQkUgUdHFowLQRvysTCEy3PEMwgAws2aIRYdenVKPj8aVjskcI/NLIZXchxh/dgQriYimWP1GCmIk4x4rA7lpYNZBU8jDZIogL6dChg1tW5k7++UOgHu8lwuSNyQiSSl0uY94fIumZlCBMHvl4hokhYARs70CJIhBGwH60uL9/LlocA/OcvA3uVViORKAMgoYJkSIMsBqFyuBN4A0+XJbeYL7WQZUy0bJ1qRFLdQhSQnxNSdfGYha/4IILhIAgBHMma1njiZqxCRwiKjtIfsWtAdM+vrZEPQjPA1Y6uWFiwbOzDzMmf90pCt+lkh0+TSVWV0iUPwRyURaCrzaW5os/Xzc/IfJdrQNYPTBhswQP0sX0rB9O8JcppZKHdqGNopXqMVo3wWFMktBQNdLdX6aUal3UoUvntttuOzdpDPa/a4j9KXUIGAGXui7PrAcOI2DMoASqoIEiaEIMjvjkELQH1oTqMbshERiFqJbHMWQHkbCkBYKFeDEfM/hBwPh7qQvSQfzlOUTs4oemDXxEgCheJRJ2NGLdMGVB6GhJDKyxhLbr+mMCp3R7TM2TDgKmvUxolHhYRwuWmFw12A3tmLbo2nOu66Yc+MZ14wttd9ivmorD7gWvBf2w/uSLtOD7448/Oqw5DzOfp5KHqHo2VNGPQrAnOJOB9evXU407ZmIW7KdU6qI83Vgm2jI00piUPgSMgEtfn2fUE+uAFtz/97XXXnPRp7pmlEZDgJiIMSOjmbBhvu+nI42/5pdz3YqSY4iHcwZfX1hHjDkZX59qJgT1qD8UEg9+h1bbTTnsBR0vuIt26l7QYWZw3R6R8oga1nZwHks0HxMKJgII/kpdbhXc65h7THp0VzAtm+VArMtluZRvevbNtYkSsK551rJj/TIJuO+++/IlwU+PGR5rgwqaOn0PzkzGgpJKHiZxI/LMwlhOfGHywURDLSH+PY6TrYuvYLG1JRM9NO94+4YH67Pz3EXACDh3+zbrnwyfLNG7aCnNmjVz2wL6xIR2xkYZLBVB21XBrIzplGsMprrWlPuYFjEfE53LMWTD5+jQfopb1KTN9oy6V3Jx1xmtfPY2Zn9qCJadr3beeed8wWfBfAQ7YSHQvZeD94v6nIkCfc+OWbQPk7Q/MQirL5U8lIPPmmVGuCqIReB98N+zwtalW5oy2cDHno53LazNdi3zEDACzrw+sRblKAJMKPgeMEt0COhR32emP65uw2jRu6n1FO4UJjthlo/USrRcuYKAEXCu9KQ9R1YgoF8KYj2srmnN5IajHTJpwMrA2lvT3pLrLQ3cYjc7rB6GX3L45XpqI+Bc72F7voxCgKAuArjQiNiFid2YMlkw58/JizrH/xsv0CyTn6Ok2qa7sPmR2yXVFqs38xAwAs68PrEW5TgC+J/5IhDLegj2MslNBAjyYvtPdnFLJHo8N1Gwp4qFQFYTMJs0EDHKTjss+DcxBAwBQ8AQMASyBYGsJuBsAdnaaQgYAoaAIWAIBBEwAg4iYueGgCFgCBgChkAaEDACTgPIVoUhYAgYAoaAIRBEwAg4iIidGwKGgCFgCBgCaUDACDgNIFsVhoAhYAgYAoZAEAEj4CAidm4IGAKGgCFgCKQBASPgNIBsVRgChoAhYAgYAkEEjICDiNi5IWAIGAKGgCGQBgSymoD5vBfb5PEZNdtjNQ1vi1VhCBgChoAhUGQIZDUBr1mzRnr27CkzZsyI+6myIkPMCjIEDAFDwBAwBIoAASPgIgDRijAEDAFDwBAwBJJFwAg4WcQsvSFgCBgChoAhUAQIGAEXAYhWhCFgCBgChoAhkCwCRsDJIpbh6QlMmzdvnmsln0GrWrVqhrfYmmcIGAKGQOlEwAg4x/p9+fLl0q9fP/dUN954o7Ru3TrHntAexxAwBAyB3EDACDg3+jHyFEbAESjswBAwBAyBjEbACDijuyf5xqVCwBs2bIhqql6/fr1Uq1Yt4YZs3rxZyFOzZs2E81hCQ8AQMARKIwJGwDnU68OHD5cVK1bI6tWr3VPVqVNHKlWqJBdffLE0b95c7r//frdxyc477yzdunWTRx99VObOnSs//PCDNGvWTNq2bStdu3YVCHnSpEmyaNEiR6b4kTFlDxgwIB8Zk+aLL76QQw89VJo0aSLPPPOMfPjhh7Jx40bZfvvtZb/99pO+fftKlSpVcghlexRDwBAwBIoGASPgosExI0rp1atXhHz9Bo0ZM0batGkjt912mzz33HOOHMuXLy8//fSTn8wdt2vXTpYsWRJaDiQ9bty4yK5jEPvHH3/sNkGhrL///rtAeXXr1pWbbrpJmAyYGAKGgCFgCPwPASPg/2GR9UcrV66UpUuXysiRI92zDBo0SFq0aCH169d3pKkEzM2yZcs6bbd9+/ZOyx07dqyws5gKRNy5c2fZtGmTPPLIIzJ//nx3CwJu1aqVO1YC5gRCP/PMM53WiwY9e/Zs94971DF06FAOTQwBQ8AQMAT+QSAnCBhzZ8WKFRPqVIiiOJfmQGJofcUl1atXlxEjRkQtPpYP2CfgM844Q0477bRIOY899phMnTrVnbN8afTo0ZF7X3/9tZx33nnunN/jjjvOHfsEDPlivlbZunWrXHnllZElUXfccYc0bNhQb9uvIWAIGAKlHoGcIGD8jImS6rRp02TdunXF1vFollu2bCm28glumjVrVtTyEyHgMmXKCITrT1ref/99R5gUjLaK1urLqaee6jTlTp06Ob8u95SAK1euLA8//LDTqv08n376qQwePNhduvTSS52v2L9vx4aAIWAIlGYEcoKAk/kYA6SAWbW4ZNWqVc7kW1zlV6hQQXbdddeoxSdCwGEkvnjxYrnoootcub6ZWSvq3r278xmfcMIJ0r9/f3dZCXiXXXaRW2+9VZNGfn/99Vfp0qWLO+ejGZC4iSFgCBgChsB/ESh1BJzrHZ8IARNMNWHChHxQ+ATMPdL4EouAY/l4TznlFPnll1/kxBNPlD59+vhF2rEhYAgYAqUaASPgHOv+RAiYZUjjx4/P9+SFIeBDDjlEhg0blq88TjDFozGzNtj3HRdIaBcMAUPAECiFCBgB51inlwQBN2rUSKZMmVIAye+++07OPvtsd52gLoK7TAwBQ8AQMAT+i4ARcI69CSVBwASeQcANGjTIhyYbdTz11FPu2syZM6V27dr57tuJIWAIGAKlGQEj4BzrfYLAzjrrLPdUvXv3jgRBcUGXIRW1CZqyWWKEllurVi1O5cUXX3RmbszPBx98sFx++eXuuv0xBAwBQ8AQ+C8CRsA5+CZowBSPxhKhUaNGuQ05ipOAFcYddtjB7Yilm3rUqFFDJk+e7Hbf0jT2awgYAoaAISBiBJyDb8FDDz0kd999d+TJdCvKiRMnuv2aw5YN+Wt2Sde0adNIfg569Ojh9ozu2LFj5HOHugyJvaAxQ7/++uv51kA3btzY7R/dsmXLfGXZiSFgCBgChoARcM6+A2wHuXbtWqcB16tXT9h8o6hFCfiII45wa4h/++03tzc0X0PCJI2pu1y5ckVdrZVnCBgChkBOIGAacE50Y8k8RJCAS6YVVqshYAgYAtmJQFYTMJrWwIED3dd2NPgnO7shO1ttBJyd/WatNgQMgcxAIKsJODMgLL2tMAIuvX1vT24IGAKFR8AIuPAYltoSLrnkElm0aJF06NBBhgwZUmpxsAc3BAwBQyAVBIyAU0HN8hgChoAhYAgYAoVEwAi4kABadkPAEDAEDAFDIBUEjIBTQc3yGAKGgCFgCBgChUTACLiQAFp2Q8AQMAQMAUMgFQSMgFNBzfIYAoaAIWAIGAKFRMAIuJAAWnZDwBAwBAwBQyAVBIyAU0HN8hgChoAhYAgYAoVEwAi4kABadkPAEDAEDAFDIBUEspqAv/rqK/n666+lWbNmBb7ekwoYlscQMAQMAUPAEEgXAllNwHxyj0/vnXrqqdKzZ890YWb1GAKGgCFgCBgChUbACLjQEFoBhoAhYAgYAoZA8ggYASePmeUwBAwBQ8AQMAQKjYARcKEhtAIMAUPAEDAEDIHkETACTh4zy2EIGAKGgCFgCBQaASPgQkNoBZQEAmvXrpUXX3wx6arLli0rp512WtL5ijLDwoUL3Wccq1WrJscdd1xRFu3Kmjdvnnz++edSo0YNOfbYY4u8fCvwvwj89ddfss022yQFRyp5kqrAEmcVAkbAWdVd1lhFABIbOnSonib1+/zzzyeV/vfffxdIDdlzzz2latWqSeUPJr7rrrvk4Ycflh122EHuvPPO4O1Cn992223y3HPPSaNGjWTKlCmFLi+bCnjwwQdlxoww7NX1AAAi50lEQVQZ7hvVgwcPDm36n3/+GffdKVOmjNx4441Srly5fGUwsZk1a5Z88skn8uuvv7o+bNOmjRx66KGy11575UurJ6nk0bz2m9sIGAHndv/m7NN98cUXctNNNxV4vnXr1skvv/zirtetW1cqVqyYLw0a8KRJk/Jdi3eyfPly6devn0vGoNy6det4WWLeNwKOCU/KNyHWc889V7777js5/PDD5eKLLw4ta8WKFXLOOeeE3vMvPvPMM/kIeO7cuXLNNdfI5s2b/WTuGKIePny47L///vnupZInXwF2ktMIGAHndPeWvod79NFHZdq0ae7B0QSbN29eaBCyjYB/+uknNwmpUKGC1K9fv9DPn+kFQIhLliyR++67L2KpiEXA7777rlx99dVSpUoVOeqoo0Ifj4namWeeKWjCCJO6Xr16CdYQzM7du3d3EzHIHGvGypUr3fUxY8ZIy5YtU87jMtqfUoOAEXCp6erEHxTT2oYNG6ROnTr5NIB4Jfz8889uUEvWLxav3GTuJ0vAkBV+OZ6VQTdMkiFgMECqV68eGbyDZRZGA96yZYv88MMPUqlSpUKbwoPtincO0aFlUnemyJVXXikLFixwfei3KRYBP/bYYzJ16lTnThg9erSfLeoxZu0HHnjA3b/kkkvksMMOi6RdtmyZDBgwwGHDde4jqeSJFGoHpQIBI+Ac6+bp06fLf/7zH2nSpIlceumlBZ6O3cPQAHbddVc3aGgCBtannnpKGJyURCDSBg0auNn+QQcdpEndYHfhhRcKZICZD+2DeiFt/LLt27ePpE32gLa/9tprLtsZZ5zh6k+mjEQImHZOnjxZ5s+fL5isEbTF3XbbzZmaGzZsGKkSsyJazurVq901iBoC4rlVu/7yyy/d4Pz++++7QZiEmCRbtGghxx9/fAE8UiFgtl0lH77vv//+27WFICv8jv3793cTH3cx7w99+NZbbzn/5EUXXeQuv/DCC/L4449rkqi/BG117Ngxcn/r1q0u3+uvvy5Lly51fb/jjjs67a9r166ujkjiEjjo06ePfPvttwVqjkXAEydOFMzLBMCdd955BfKGXejbt6988803wrOrhcVPd/311wsY4fKAqHmfUsnjl2nHuY+AEXCO9TE+yldffVV23nlnGT9+fIGnu+GGG2TOnDmyxx57CIMGwiB73XXXydtvvx1Jj+mN6yqQoUYPQ9Y6SHfo0EFefvllTVZoAmbwQnNAaOvuu+8eKTuRg3gEzN7hmB/XrFkTWhyTDoJ3dBKB2VHJ18+AqZHgG8rB74jVIJpAEieeeGLkdrIETJsHDhwY0fKCfYOv+9Zbb3VaN5WEBWH5uEYaEnIAqWJ6RXgm+oCJRZgQjIYGWlifeFjZiV5jAsX7qMLEcP369TF9wJdffrmbfOHX5z0m/8aNG6VmzZpaTL5f6tB3n36kP4NC0Bu4I+PGjXOm/2TztGrVKlisnec4AkbAOdbBqRDwxx9/HAlYQSvo3Lmz1KtXz2kWt99+u9O60OjQcmvXru0GLCVg4MN0i8aB1n3AAQcUSivyiaKoCZgJBUSGxs7zQJxo9rQfzfKWW25xA/F2223nTJRomPj20PxGjhzp3pRBgwY5zRbf6rbbbis6mLOkCOImSvq3336Tzz77TMaOHevKq1Wrltx7772RNy1ZAh42bJgzs1IHFgasF2jBb7zxhgsow4SuZEIlYQSMlshzBAVyoY8RcBg1apSbnHGOleDJJ5/k0C1nos/R7HhfCGSDoJmw8Gzbb7+9S1fSf04//XT58ccfYxIwE4zvv/9e9tlnH2E5G9hgzalcubLssssu0rt374h1g+fx/39g+eBdD8rixYtFrQ1MSpicaBBYonnatm0bLNbOcxyBnCBgBkqIQQMmovUZ99FmIJfiEjQiNJLiEnyLI0aMiFp8KgR8//33yz333OPKfOSRRwQCUoGAGJAQNMf99tsvHwEzaKNJow0WhWAexi+LKMklU24sDfjNN990BEN5+OyOPvrofEVDmhAsgukYgkai+YAhdCYrf/zxh/gWApcp7w/LVZR4CdQh6AdJloBPOukkR+oQoEZju4Ly/mh/Yz7XqPAwAtb0/i8kjpsC8kB8EoeUOMfve8IJJzgzt5/Xx8rP56fxj8EBs2+iAlZhpt54+eMRMM8MjhBuNOGd5pl4BxAN2uL42muvlX333ZfDfIJ5GpMzghbOmMT/FyTRPMccc4xLb39KDwI5QcDJdBf/uWL950umrLC0xV0+ZjIG9miiA3IyJmgGRvxiCKTUo0ePfOY4NDrIBv8WmmPQBD1kyJBozUn79VgErNigSUII5cuXL9A+JhtMOjAHYkpEohEw9/Aj8z7h7/XXB3MNAlG/K+tTVUtMloD52hdmVSZfYL333ntHAsbQfukP3jsNjkqUgNH4Z8+ezWMIgz/EocJXxogXQPzJg97nl6U8+Md98vfv+8esR37iiSf8SzGP0Ubpy2QlHgEzsVATMv3BxAmLApNz/OY8N5jynoMPfv6XXnop8i5wjb4OCpo0ZSG8Q7xj+v4kmqdLly7BYu08xxHIagLGjLRq1aqkuoj0xbk0o7jLxwTIgBFNlGSSIWC0doJR8IMhDOYQEFot6xoZcHzrgk/AF1xwQUbtthSLgNFu0dzatWsnl112WSiERMVi2oVMGYyRWATMfbTEDz74QAiU4p3EysJaVKKVVQpDwHfccUeEyCkP7QpTNwFYmFGDvstECBgy1E066GdMz/6EBPKAeHgXfHeDPg+/77zzjntWrE8zZ870bxU4xvwN+SUqmLZxZyQr8QiY/58EqW3atMl9xpSgKl+Ig1B3A5trYCHgfdBoaXAJ89X67wjWFSYQyeYJWmT8dtlxbiKQ1QScm11SuKeKR8CYwxg4/SAsaoQ8JkyY4Agq2AIG/G7dukW2TfQJOLgkI5g33eexCFg1SczG0TZiQGulDCYcTz/9tNOE/MEVfP2gIwKUIDIINyj4iMEKKQwBo01DcJAmxBEU3ALnn3++W0rFvXgEzGQBPyXl4o4hgAuNzRf8mWqa9q+HHWMuRkvOBIlHwIm0ESz5/6ARz4sWLYosLYKcmfQExfcTgy2Y6HKkRPOYDziIau6fGwHnWB/HI2CWrCzLW7cYJGCFAS2FbRc/+ugjF5iE+VkFrRHtMVsJuGfPni5qOWhu1efjVwOefK0uGgH70clobGikaKYM3ASksTyJnZOQwhCwKyDvD75m1rzyj/7xg6oaN27sgqmYOMQiYPqXQDQCqDBZ33zzzbLTTjtpFZHfK664wmn1GqwWuRFygGsiLDApJGmxXyoKAtYlRcRCEBPhm62xFIXt3+1rzmjJWFDU1J1onjDNutgBswpKFAEj4BKFv+grVwKGADS6VWvBj9upUydHoD4BQzDs8MMaVyJ2VTCtsmRJg3vUJJetBKzkismVZURBQSM8+eSTXcATWi5YItEIWH25pCHiOega8M28qRIwRImfFWIN+h5xHfAcqqmyuQTrtqMRMC4GyBdtnfLQ1KKZeYlyZl04ouW6E+8PvnJ2iIJsgqZcL5k7JNCPpTqJChpksluGUnY8Asa6QZQ0+2RHM/mq9k9ENNYB3neWZzEB8jfa8J+FJX/sMc6khr7m/1qyeZjEmZQuBIyAc6y/lRT4z0wAEBqMih/N6ROw+kZZkoPmExSWUWBiY00uS4OylYD9ZTVhpILGik8bwVyNxoxEI2D8pkRW45fHr4i/VIUBGIsB2iqSKgFjLtY+gZAa52m6vqAJ64YrTJQIiAojYCZTbCry4YcfuuwsxYEgoglkouvIg+uYycPE4KyzznIEzHaOEHssyZQgLO0zfLRMCnAT+IJVAY2V/vMtJTqx5f8VE1smOioQM8TPBMf/P5RKHi3TfksHAkbAOdbPRHKyqQYCiRDRzGCCloQ5lIET8QlYB0eIBH+V7+PEXA0BM7iwHObss88uVgL2d2yiXt1tyjU6gT+xfMAER0EmRLliIcAfrho/Ucb47FhOAg5sBqJ+UQJ3IBuECFeNViVKWAO10JqOOOIIl4alVAzSWA9UiLrWunSSlMjXkCiLfkQ7x/xPFDTtQyBVJhVEsaPR8uxoYGEE7Gu0BOhFi1yHmLCEQCr4ydGyOefdUfKnTWj87733nmuHEr87ifKHLwJhsk9UIEbFM9E8pIunAfsbZvzf//2fW1ety+7oe54TCwETV4Lf6COEaHfWfCNYOnhX8J/z/4L/M0yEEH/JUSp5XCH2p9QgYAScY13NGlpIRn23ujQFEzPCDB4C8gmYJRQMtgT4MJDji8IHijaA+RNhkIJUWONcnBpwcW7EwXNAhLqMi0G+adOmjtx4VnBBWM+Jqd4XNt/X9cmQFJoUWLJ0ByJE0IqIJGbSgmDmZFDXY3ZGat++fdLrgH3NHRJnUsJ6Vj6Jp/2qkyPqChKw31+uMTH++OZ5CBZCgvwhJAgYfy9EqvXGCmiLUU2x3YpHwEFLAFYLfOBghEmdySrCxJXAQ1/8CRfXmZhgzgYfRF007uSfP6nk8fPbcW4jYAScg/2LKRX/nu7pzCMycKJJodlgeiNYSJdJcB9TJ1qNn4frCNoikaHq4/QH9MLu/fzfGv73F1Pt9OnT3QVMeL42/r9U0Y8wBWNeRljbDMEGhbWvaIRg4QvEiiYbFo3qr4slj25Fyb7V1KOWBe6hoWKWZSLEGlC2BmVg79Wrl5xyyilufS3laZQteWIJEyO+G/zss89GCELTQ/hslEHZTAgQ3esYwuQ5mViQJhHxJ2ak//TTT92zsrzKF9bQsjyJ5/HdHH6akjiGOFn+xRap0bR8+goLB9YWnXRpW/Fns4zI3/tc7/HLu0V0vJ8PEqe/2bjFX8ql+VLJo3ntN7cRMALO4f5l0EQbI6AFElVTW7RHhlhZJ4s2CDmhbbFmmuCfTBpko7U/metocGhyPCtWAoiajzCEDaBaLqZXrAUQNeZHrAUIgUjghobcrFkzV5aPFyZNJjbUQd5URftT96ambygTa0VxCto2fnCW5nCMFYR4gKD/tDjbUBxlsw0n/Q+uLLWj///1r3/Ffdf9/ye4KZiYxtv9LpU8xfHMVmZmIWAEnFn9Ya0xBAwBQ8AQKCUIGAGXko62xzQEDAFDwBDILASMgDOrP6w1hoAhYAgYAqUEASPgUtLR9piGgCFgCBgCmYWAEXBm9Ye1xhAwBAwBQ6CUIGAEXEo62h7TEDAEDAFDILMQMALOrP6w1hgChoAhYAiUEgSMgEtJR9tjGgKGgCFgCGQWAkbAmdUf1hpDwBAwBAyBUoKAEXAp6Wh7TEPAEDAEDIHMQsAIOLP6w1pjCBgChoAhUEoQMAIuJR1tj2kIGAKGgCGQWQgYAWdWf1hrDAFDwBAwBEoJAkbACXb0woUL3Zdy9JN8CWazZIaAIWAIGAKGQCgCRsChsBS8OG7cOHdx8ODBBW/aFUPAEDAEDAFDIEkEjIATBMwIOEGgLJkhYAgYAoZAQggYAScEk4gRcIJAWTJDwBAwBAyBhBAwAk4IJiPgBGEq8mTvvvuufPXVV9K4cWM56KCD4pY/b948+fzzz6VGjRpy7LHHxk1fVAnWrl0rL774YtLFlS1bVk477bSk8xVlBuIbFi1aJNWqVZPjjjuuKIt2ZZVUnxT5gyRZ4NatW+W3336T7bbbLqmcmzdvljJlygjvRjLy119/yTbbbJNMFktbwggYASfYAaYBJwhUESe78cYb5dVXX5V27drJZZddFrf02267TZ577jlp1KiRTJkyJW76okoAiQ0dOjSl4p5//vmk8v3+++8CqSF77rmnVK1aNan8wcR33XWXPPzww7LDDjvInXfeGbxd6POS6pNCNzyFAiDdRx55RObPny9LlixxBFypUiWHLZObI488UsqVK1eg5D/++EOeeOIJmT17tqxevVq23XZbadmypbRp00Y6d+4slBEmTDZnzZoln3zyifz666+uHvIceuihstdee4VlsWsZhIARcIKdYQScIFBFnCxbCPiLL76Qm266qcDTr1u3Tn755Rd3vW7dulKxYsV8adByJk2alO9avJPly5dLv379XDLwad26dbwsMe8bAceEJ+GbW7ZskVtvvTWmJWSfffaRa6+91mm4WvCff/4pV155pXz00Ud6Kd/v7rvv7vJAyr7MnTtXrrnmGkFjDgokP3z4cNl///2Dt+w8gxAwAk6wM4yAEwSqiJMlS8A//fSTI7wKFSpI/fr1i7g1yRf36KOPyrRp01xGNMHmzZsnX0ggR7YRcKb1SQDOIjt96qmnIpOpVq1aSceOHYVJ14cffigvv/yyrFq1ytV14YUXyjHHHBOpd/r06fLggw+6c8j2hBNOkMqVK8s777wjzzzzjLt+4IEHOkLVTEzqevXqJVhDMDt3797dTcRWrFjhrBkrV65018eMGeM0ac1nv5mFgBFwgv1hBJwgUEWcLFkCLuLqC11csgQMWeHLq1OnTlQfYDIE/PPPP7tnqF69ej6ty3+wwmjAaH0//PCDM5EW1hTutymRYzQ/tMdo5tlEyijKNGij//nPf6RZs2YyduxYYRKoQr/26dPHmaQPP/xwufjii92tjRs3yhlnnOGItGnTpi6fbyXR95/EuAdwEyAzZsyQBx54wB1fcsklcthhh7lj/ixbtkwGDBjgsOE6900yEwEj4AT7xQg4P1CjRo0SiIDAHWbZYTJs2DBh4EHrY8Bhps8A1aRJE7n00ksLZLn77ruFoCs2O2EAQXQACvMBMwihJSAMaqeccoo89thj8tZbb7mB6qKLLnL3CvOH9r722muuCAbKBg0aJFVcIgS8YcMGmTx5svMbYrJGGLx32203Z2pu2LBhpE7Mimg5+AkRiBoCAl/Vrr/88ks3OL///vtuECYdJskWLVrI8ccfL+3bt+dSRFIhYALjyIfv+++//3ZlEfiG37F///5SpUqVSPlhffLCCy/I448/HkkT7YBAOjRJFXys5Hv99ddl6dKlbrKy4447Ou2va9euEYLS9On8PfXUU2X9+vVOGz399NMLVM37uHjxYqeR3nzzze7+m2++KfxfQoghCPbNt99+64ib+7x/GrDXt29f+eabb4RnVwsLaVSuv/56hxFkDlH7kwFNY78lj4ARcIJ9YAScHyh/Bn7LLbe4wd1PAQlccMEF7lLPnj2FwUnJdOedd5bx48f7yd3xDTfcIHPmzJE99thDGEAQzRMkYAYdyA3BPAfZly9fXoo64IfBi2dFaB8mwmQkHgF//fXXcvXVV8uaNWtCi8W8yOYvOjBjdlTy9TMwCSL4hnLOPfdcF5Dj3/eP0cROPPHEyKVkCZg2Dxw40JEfhRCxCzGqYHbFF4rWjYT1iY+r5gv7hVTPPPNMd4sgI/qAiUWYoIHjSy2sTzys7HjXaNt1113nkvXo0UMwQfuCpaBbt26OoInmv+KKK9ztiRMnOjMzsQCYof2Ji+YnH5aMvffe29XBJE2JmH6kP4NCICK4I4xdwfYE09t5ySBgBJwg7kbA+YFCCzvnnHPcxZNOOknOPvvsfAnQZh966CF3Dc23Xr16ETItLAET3UzEKAIxozloZGnYYO8SpvjHJ4qiJmBICyIjWpb2Q5wMzgzGaJZMbDBRsoxl6tSpbmkVvj00v5EjR7onGjRokJv84O8mSOfyyy93mjSWCYibKGmWwnz22WfOvEl5tWrVknvvvTeCSLIEzGRnwYIFzvoB9lgs0ILfeOMN5wPFhE6QmGquYX2CZsdzBAVyuf32291lcEA7ZEKGYCV48skn3bFqxmh2H3/8sasXEmTCwrNtv/32Ll0m/MFET/+BDwJ+hxxyiDvGEkTwFf1HP4SJ4o2JGsLmedWEzS/Wn6CgaasFiElJ27Ztg0nsPAMQMAJOsBMg4JdeeskFVSSShWUFtWvXdlpZIumTTcNAioTNmJMtK1p6tNYDDjgg2m0hmIToX8gVkvXlrLPOckEnaCNosYhqs4UhYAbnp59+2pWHf2vIkCER8uVi2GDvEqf4B/MwZnRESS6ZomJpwL75EZP70Ucfna9oSBOCRTAdQ9BINB8whM6SFd4931zpMuX9YbmKEi/LjvTdSZaAmXBB6hCsRmNrHdrHmM81KjzRPoHEISTIA/FJHMLmHL8vQUqYuX3xsfLz+Wn8Y3DQACf/erRjsAoz9UZLz3XMxJik+acS7Jfzzz/frXPHPcCEK0yYhPCu1KxZ0/UhbhqsJggR1fvuu2+BbJinqR8JBn0VSGwXSgwBI+AEoYeAiWIMDpLRsjNLxc+VzRLvPy5aqK61xaQMsSL4BxlYEMzQuiGGDs6pEPDBBx/sNK5nn33WlduhQwdHTmhJviQ62Pt5ivM4FgErHmirEAIm9KD07t1b0HoxIaoVJhoBk5f1p5g7GdD9oCiuQSDqd8XcqVpisgSsvk5MzEyAMI1qP6D9EhjFuQZHJdonEBDrYBGihHn/VLCmYFVB/MmD3ucXiwyWGZ/8/fv+sW9F8a9HOyYqWV0e0dIEr//73/92feFf57kwGSs2uGdwG0CikGmY4C9mkxe0ff7PoQjouxDm/qEMNoaB7BHeoS5durhj+5NZCBgBJ9gf+sIn+jEGfDbL8qIRi0vQzBB/kC3qunbaaSc3645WLs9IsAmDu++rU/8whHLfffdF2qiEkwoBB9uA6faoo44KXi5yDbhABUleiEXAaLdobkH/tl/F6NGjnemSflaTfiwCJi9a4gcffOAmQt9//73zGX/33XcuWlnLLgwB33HHHREipzyCrzB1E4DFOlc0NV8SIWB/MocvG63Pn5Dw/w/igdjVtO3XwTEBefjHsTzNnDkzeDvfOeZvtOpEBdN2LGtQWDmffvqp8P+UPnjllVecq4F0vlVIJw3q3w0rRzVgdR1gyua9QMAlzL/rvyNh1pWweuxa+hEwAk4Q82QJOMFisz6Z+hx9Hxb+YAb84NrFeASMBsAgGhaEFQQKkyBEwODvSyKDvZ++uI9jEbBqkpiN1Z8ebI8GmxHohOkdX7E/uIKpH3REgBLaHfgHBR8x2ilSGAJmwgXBQZqbNm0KViP77befs4AQoY3E6xMmC/gpKRd3BgFcWAV80Qhi/1q0Y94NtORMEtwDvN9E1dOXTEyxIOBDx9/PrlcaGR1st/qJ1QfMtqG6tIhYACY9QfH9xOYDDqKTOedGwAn2hRFwOFDM7NXXN2HCBDe4nHfeeS4xkZ7+/s3xCBi/HlaDaASMls1SGzQCBLM0EwBf4g32ftp0HMciYDU/Bs2tfrs0AMfX6qIRsB+djMaGRopmylIVln4Rmc5aVaQwBKztw9dMMBb/CCTyg6oaN27sgqkgm1h9ghaKNYMAKsyykBCWl6DwLkHUGqwWvO+fs/QmLDDJT1PUx2i7bAuJ1h5tP21woj8RJhRHHHGEi/ZnSRVkfP/994c2S/9fqJYMZhr5zP+1sPrefvvtSKBeNC05tDK7mFYEjIAThNsIOBwoNCA0OQZjfhEih4ncZZbvb5+nBAwZaKSrloqG0KlTJ6ehhRGw7yNjRq9LUYIkH2uw17rS+RuLgJVcMbmGraVGIzz55JNdwJNvtoxGwOrL5fnYCILoZF98M2+qBAxR4meFWPEz+4Ivk+fQICoif1k3Ha1PCCSEfNHWKY9+jWbmZbtOdppCtFy/bo7xlbNDFOZ6Jh2xBLJjqU6iglYda8tQNG6NYo7moybaXde3a/Qy7bjnnntcM/yNNrRdRFDjy+X/B0vQWOuOFYPJKP/nom20QUwGe4wzqaGvmZCZZB4CRsAJ9okRcHSgGHTZrEIHPQbUMK1OCYLBgGAgXTpEyX5kZxgB+35SfGpEeDIQYYLGFM0AiUQb7N3NEvgTi4D9ZTVhpOKvpWZyg8aMRCNg9RUSrMPmFxoYRR4GcD5mgRaGpErAaKG6hhVCapyn6fqCJqybrGAZISAqrE/wU7OpCNs0Iqz1hVSiCWSia8eD65jJw8SAyHsImNgAiD2WFHUQFqZltS4Ed6bSdmC2Z1KKMAFlIsqkgSAphMBCgtp88Yndx1sns/xfoix/gxiImdgMJjj+mmO/XDvODASMgBPsByPg6EDxZR4GU1/CNDB2qNLNCiAUNiyAGNCYGLwYRJF4BEwaCGT6P0uf/AE3bLAnfari79jk7zaVaHmxCJiAIciEyGEGY3yEBNogLF1hIGc5CYRKYJv6RYnGh2wQP8LVX3utJk7SEAjEIM0mJypEXWtdOjFK5GtIlEXfoZ0zKYIwaB8CqTKpYHkPGi3PjgYW1ie+RktQXpB4tJ1EH+NLhlTwk6Nlc877ouRPm3jf3nvvPZdNiV/LCPvFXIzJPlHBkoPJOJqwJzN9wjpmJoNMdvRrROCCtg024Ea7cdfoBJTATkzYCMdotZiy+f/C2nOWZwWXKRHtru4XLB28K/jPIV38wvphB96psGVK0Z7DrqcXASPgBPE2Ao4OFAMMM27dRjHa9nj+friUpksxGLwQZvOQUSIEzKCE/wuCQogKxd8ZNti7BCn+Kc6NOGgSRMj6XIRBnkAbBmn8qWCBoO1jnveFzfd1fTIkhfYLfizdoT8QtCIG8mV5fnWETzQqXhyzm1L79u2d6RRNKxECphxfc4fE8cvTH3wST/vS35wl2CdYLqJFMlO+L755HoKFeMEH8oLI8PdCpFpvrIA2v9ziOGayRgCZCqZwJgtMtHRySX+wdIj9olWw6DAB0f7k/wXvgq4f5pgJBjj74k+4uE5dP/74o8OHcz5JqNYIzk0yDwEj4AT7xAg4NlD+oOxrZcFcmFXx9elHArjPIIpWhZaDTwwi1WUWaDMEerFzkAawaJl+NKiSh27tx+Acy2enZcT79TXtYMRxvLzcxxSMeRmhbRBsUFj7Slt5fl8gVjTZsF2M/HWx5NGtKHEFUI8O+NxDQ8VKgLbN4M/3lX2fog7k0SZOlOELfn/8lazJphxfIBg2ysBfyYQACfYJEwvSJCL+ZIz0aIo8K6TlC2uaIXV8pKpZ+vfTdcyGGZjKdaMcv14mE2ymwrsZFCZGI0aMiHwxSe+j1WJ5wZQfJrxbRMfrZI00uB7ob+qiP0wyFwEj4AT7xgg4ClB52lbZZ56W759+ymlX88uVl673zpLq/5hS89Qxd7/MvPddAVv3/T/Zctzx8n3eRgFoZlXyZvstPv9MKi5amO9+3ij63wqj5E/4fpRmZ9plNDg0OTRfNCCImo8wxBpAMb2y4QJEzUCN2RfBD8r6YjQqNC3K8kkJHz0TIK6TN1WBBOlD3ZuapWiUScR2cQraNn5wNnzhmL2n2aMbTTEThAkKgWqQKsdoplgj9EtGsdoIlkwsmYyRnufy+y4sLxYF+pt3BzcFJmkwMcl8BIyAE+wjI+BwoMo++biUefMNt8kAgwbLKRp0y9uco+N/TaZ638+9td2habvv12vHhoAhYAhkEgJGwAn2BhGMEEzwowMJZs/JZATE1L1lnKxbtdJFc/KQ+Kkq1awlm6+9zj1zueF563R//y3/81eqnLb7+Su2M0PAEDAEMgcBI+DM6Yusawm+qVM++lAq/9fy6dZfOv9WGgk2HsFnHajWYEPAECg1CBgBl5quLvoHhYCbLfxIDpEtbumF+izzm5ifyDNRv56v8nTez1exnRgChoAhkEEIGAFnUGdkW1MIMPk5Lwio3tz3ZJsF/91QQYOsIkFSeUEyZZ/NWxcaCMJK2/1sA9XaawgYAqUGASPgUtPV9qCGgCFgCBgCmYSAEXAm9Ya1xRAwBAwBQ6DUIGAEXGq62h7UEDAEDAFDIJMQMALOpN6wthgChoAhYAiUGgSMgEtNV9uDGgKGgCFgCGQSAkbAmdQb1hZDwBAwBAyBUoOAEXCp6Wp7UEPAEDAEDIFMQsAIOJN6w9piCBgChoAhUGoQMAIuNV1tD2oIGAKGgCGQSQgYAWdSbxRhWxYuXOg+ZcenyUwMAUPAEDAEMg+B/w8AAP//3vbxgAAAQABJREFU7J0HmBRFFsdLzgTmnBVz5owYEEHPM4KYc8Cccw4ogphzzqJiDoCIORCMBDNiQEUFc0QFPRVvf6VvfNNTPVM9O7O7s/ve9+1OT3d1dfW/eur/UlVPM2XKlD+dSbND4KKLLvL3dPTRRze7e7MbMgQMAUOgOSAwjRFwc+jGwnswAi7ExPYYAoaAIdCUEDACjuiN3377ze25556+5G233eb+9a9/RZzVuEWMgBsXf7u6IWAIGAKlEDACLoVQ3fH//e9/rlu3br7kQw89ZAQcgVktFnn33XfdkCFDXJs2bdxuu+3mb2HUqFHunXfecXPMMYfbfPPNm/Rt/fLLLw4F8c8///RtXXjhhZtUe//44w93zz33uKlTp7r11lvPLbbYYpna98EHH7jLL7/crbHGGm7XXXf1544ePdq9/fbb0fUsueSSbu2113a//vqru//++z1WnTp1cmBV3/ZFN6IBCmI0TDfddJmuxP1PM800rlWrVsHzrr76akcfnHzyyf73ECxkOzMhYAQcAZcRcARIzaDIo48+6i699FI322yzubvuusvfEQP+ww8/7BZddFF37bXXNum7/O6779wuu+zi23jGGWe49u3bR7W3LgzlUDSQVVZZxc0yyyxR52UtpH9Hxx9/vNtggw2iq0CpOPbYY91bb73lzj33XNeuXTt/7hVXXOEGDx4cXc9//vMfX4/GCkLp2LFjnqKdtX3RDchYEMzo08mTJ7ubb77ZzTfffKk1oCjefvvtHqOff/7ZLbjggm7llVd2KBirrrpq8DwUkQEDBrjHHnvMffHFF2766ad3yy23nD9v6623dq1bt86dh3IK9p07d3YnnHBCbr9tlI+AEXAEdnrgMAs4ArAaLdJSCfijjz5yBx54oO+1888/36200kpV6UH9O8pKcE888YQjrLLiiiu6Cy64INc+TcB4KdKsNzlh/fXXd/vvv7+rFQKW+6b9N910k1tggQXkVvI+R4wY4Xr16uWt+LwDdV8ImfXo0cOttdZaeYfoj9NOO8299tprefvlC0pO7969PSmzD8/FQQcd5D7++GN31llnpZK6nG+fpREwAi6NUZ5mbAQcAViNFgkR8LfffusmTZrkZphhhtTBr6ncriaVLBZwUydgXOt77bWX+/777z0h4IIW0QQ8aNAgN+2008qhop+QCUSCYFVi6dVHQSh6sTIO/vDDD+7ZZ591119/vXeXU0UaAfN8du/e3eHJwO2Mex4l6pNPPnH33nuv+/TTT/3+8847z1u30py+ffu6u+++23+FbLfccksffnn++ecd4xyy7rrrevL2X+r+PfXUU14BWmihhdw111wTjbecb5/5CBgB5+MR/KZ/mEbAQYhqcieDMDEv/pAQAcfeGOSHzD777Ln6Ys6FXHi+Zp111pjiRcukETDXICaY5lrOSsC4Q3FVhsiOayEzzjhjQVv17yiLBfzAAw94IsL6u/HGG/PwLZeACxpXtyNL+8AApazSCZnEtLHwUTaSkkbAt9xySy5kksR1/Pjx7ogjjvD3hsuf48hPP/3k9thjD0/aSyyxhLvwwgvz+gxPyNNPP+3LgjnubASMOA8F4bjjjnMbbrih32//ykPACDgCN/3DNAKOAKyJF3nkkUfc0KFDHUlXyPLLL+8Tc7AekjFgBn8sEQYgYpBaxo0b5we+kSNH+oGJYwzIyy67rOvatauPlenyAwcO9PFkroeVcskll7hXXnnF180gCBESf8ZSCclJJ53ksMiXWmopP/gly2gCPv30093EiRPdCy+84JOUSLCBwLBo9tlnnxyJ4ZrEUiL+h8wzzzzeGmRwxTLkk/jrUUcd5T788EOP2xtvvOEH6zXXXNPfJ25hMCUWSxmEBCsSFzfZZBP/nX/6d5QkilyhxAbXJiGO+957773d9ttvn1eiXAKGgMCI+rGuiZWWah+WJCRIrPXrr7/2GNCXHTp0cFtssUVeu8r9wnN5zjnnBE9PI+ADDjjAW/NYpTfccEPBudRHvShF5DagOAwfPty7kSlMPJe4rpYJEya4/fbbz++CcHfeeefc4euuu87179/fLbPMMv73kjtgG5kRMAKOgEz/MI2AIwBrokUYbHHpMXiEBPJDs49Jwvryyy/dwQcf7Eh2SRMGsG222SZ3mAEUl+DSSy/t3YriAmXgJAlIEr8gZkhcC2R/2GGH+V1Midtpp530Yb+tCRgi/eqrrwrKsGOzzTZzhx9+uD+G61LIVxdGCSAzWJK6Fl988Ry56nJkjJPkAwGHRA/u+ncUS8Dvvfderq1XXnmlQ1HRUi4Ba6xikrCee+45H4PG8g0JluCRRx6ZOfM4WRcYaev3mWeecbiKkRABU1bIkWdNSNOf8Pc/kghJJkSIo6M0gCVjGTFz3NAzzzzz36X/+aDvwWm11VZzffr0yR0g3ozygpB1P/fcc+eO2UY2BIyAI/DSA4cRcARgTbSIti4gFyxBPrFo0OqJpSExBHzKKae4l19+2ZdltTGyhxmcmRKDOw8La6655nL9+vXLoSEELDuwEtdZZx1vLTI9huQgZNttt3X77ruvFPOfZMAyhQdhQA5lw2pSoRyZ21h3WMxYbxD7Z599xqFcHezHaj3zzDP9fixdyB9rGeVCCJiDkDCYce3HH3/cKxP+pLp/YMa1UC7IVCZj/Pfff88bvPXvKJaA77zzTnfrrbd6q/y+++4rSLLSBHzVVVcF3eLSRpK0hGg0VqUIGGuX/iBjGMWGRCQwQnHBq8FzhYT6Ta5d7qeERTg/RMBvvvlmzhuS5hIeM2ZMzntD0hXP3IknnuiTr+hn6g0JHpdXX33VKz0QtgjPBZ4I8YxsvPHGcsg+MyJgBBwBmB44aomAyaCcd955I+7Q+cEFTTYU14uqoEQhCAmRAbBE8bIOYxUyxzMkDBaHHHKIJxsGURJIsN5EcP9i0RIXLkXA1MUUDQbkpHuO+pgKIsSLxSv3rAmYKUKQOLFUEaxSLD4IDpLVgvsV8iS5hvhcSDSpcE2sfWLSIi+++KIjOQs59dRTveuU7bQYsK6P+DHtl3vhPAhHLMJk9jTZsyTzaCz17yiWgHGRM0UKF3HINa8JmDYVE6z9HXfc0RfR91aKgInJknyECxdFjedHhOelZ8+ejjAE90rfVzIuXIqAdZ+CuU5QkzbiacFNjfCM4QE59NBD3fvvv+8VCRSzkJDpjKt6zjnn9Pely4jbG8sf4jcpDwEj4Ajc9MBRSwTMgL3ppptG3KFzaNL82GtZZHAJ3QNWHgSL8EmMNikSK9OkkTYPGOuXwRdLSCc3sY84nLi5ce9JgpUm4JAVy3xMmWt82WWXeWuSNjJQMmAiuKHTFgTRpBKyxj7//HNvpSbriSFgLB6UAC0k9xBHD8Ue+Z2I1YTlOtNMM5WMseq6ZVuIAhc9RJmUahMwytZWW23l247SJV4K3Y5hw4a5s88+2+/iE29IpaQUAetpSqHQBe0gFIGiiODB2G677fzKfoRRIGyIOyQXX3yx93QQM+bZ1EJo4fXXX09VjHRZ205HwAg4HZvckVolYG4g9mUMDN5kTFZLfvzxR1+1JqtKXwuXLtp6SIjhiZs1FEvkHFZGgjxjCJjyJDaRtQpBQm64JEl8wmUpEiJgXKF33HGHFMl90gckHEHiO+ywQ44sJcsV7wTnpWGoCThE1Po51kpIDAGHlBtxUSZjhNwQMWGUCATXOW3W14+1gHfffXePp45b+0r//qcJGGWp2OpPPBuCncaqmAUMSckytCSbkXiUFEIXWMgIcWCdeJYsm/V7KQLW5C/x3eQ1dP+iNKGUo0iQfBfqOzlfLOBkKIXj/Jb4TRHCwdNiUh4CRsARuOmBo5YsYG4tloAjYKjpIjKVhZsgrqhds3JjTLvAlRpDwLgcsVYh3KTgVuaZQUIETEY1UztCIrFlHZsj/sh1knMyk+drUiFJJumO189xVgIO1ScEzHUkKUfaVCkCJpOadqclGGkCzjIPWGNVjICJgXKfscKCJrJsbew5xcqVImAy0lFmEEhx9dVXL6hOx4klBiwWLKteYemGROLEJL6JN0PKiXUcck9LGfssjYARcGmM8jR3I+AIwJpgEabIMFgjIfcv+0moITZcioBZDxdLR9bbZZk/3I64YklUImOZVYmQrAQsCx1wLu1ljjKxa0THbf2OxD9NKqGFOOpDwKH6GoKAcX2TPxBjAVeDgEmqIzENQQEKEZzuBmLViyyyiN5Vr+1SBKynC/GcdOnSpeB62vsjVrKEW1BEUUhDQrIZXrGQlSzn18ISraF7ayr7jIAjekIPXEbAEYA1wSLMt5UYYohMaDJZtAzipQhYx3LJeF5hhRXy7ljHcrMSMAtZkExGgpdMNWJ6EjFU3M86aSvvonVfmiMBS/IZL2/AO5CUalvAhE4IByBMt8IqTArjA0oZ0rZtW5+slSxT7vdSBMy1aR/Pi15oQ1+PUAAeCVb74nnETS/Z5ZTTC23IeYRRiBsTA9fJa3JcPDVpyXFSzj6LI2AEXBwff9QIOAKkJl6EhRyIrzKghFy5ZPMy4DDFohQBS2yM5BRc23r9YeqH6HFdIlkJmHPI9mX+JxY1gvs5zQL0Bf7+1xwJmPmnLISSNtBXm4CBlkVTeH7IAEcZSmY508d4VRDi9bEzD/wJJf6VImBOl1WrIFaUSOKyIhAzzz1eBBYMwYuCMP2MhCxko402csccc4zfln9k76NoIrwFCcVCCzkGeHrSkuN0WdtOR8AIOB2b3BEj4BwUNb1BlihvfUH0qkpYnWSvssAAUoqA9ZxcVsfiDTsI1hID4JAhQ/x3/jEdiSQWRCznYjFgyjHthuk3WrSlzWAqAyZzOrFQkHIJmGx5yXCWLNmY+hrCBf3ggw96AmDKGMlcSfJrCALW4Quyy8FKlC6mWjFNiXWYCUWgnInwnDBNCEGRKGfBihgCJiNfvAN4Y4gJM5WN54S4sLxsITlNifyQsWPH+vaxjQVNoh8KD289Yh43Wf7JaUqEXsCBz+RiM74y+xeNgBFwBFRGwBEg1UARrBiSj1jtCiH+hZXJFCUsYNy8MRYw7kaygsmCRrA4GLiIlyHExWSVK7ZZqYil/mIJmHqxWmRFpOQ0H736kZ6HWS4B02ax8tiG7CASLDlZiCPktm8IAgZTYpEIWc4sKqKlIQiYrHQULSErstjpV9y0koSHdUxb9AIpkJgoYyE3r76PtO0YAuZcrRTynbnK33zzjc+o53vIfU7mPoocvwsEFzUhDvl9sI3il8QcHCS5k0REsDApDwEj4AjcjIAjQKqRIkwrwSpgwQstWJKs54uLTiemkP1J3B8XHK44EVzEHIOwRXBJMwUFqwCrgaxqHUOTQTJJqHK+/iQZjKQwRFulfGeAlPiwvN+W/ZqYSQJjrWYtWCy88QZhfq1evxjrkvaJ4AYnmUiWOQzVJ3HAkEtfE4csRqJ/R3qJSrlm6BP8UEYgiZC1Jf3DuVnyMzRWktxWrH0cQ4GSPpG2kiRHHzBdKul6FtcwZTmXzPasgsdGLFDc3Jrgk3UxHYgcBvpZBEudZxLFM7TIDopiz7qFRGSFNDmP67DABlOvkiLxY+4Xl7tJ+QgYAUdgp3+YWX7kEVVXrQjZjohoqlW7UA1WjEXD3EiWoMRyYW1ccRNnuR3mf5IlCzmwlCTTNbSLFOsIq5T9etWtmGvItCkGTdbbDU2biqknSxlc6CzaQFsZgOUtUVnqqEZZGfCZ541i0pgCcaO8EUMlVMHSmxKrD7ULFzrWL3PMQwQYOqc++xireCbx6tA+XNJJxSBUP3PYmdJEzJgQCa8n1M+ynMNvhyVHUWSZS8ziJCblI2AEHIGdEXAESFakogjIUn+4rrEWW7Kg6DDoEyZILnnZlHHBEiUeS3JUaBnNptz2tLbJixhQCLHI8fqYlI+AEXAEdrVIwFhNaLPJRf0jbteKNBICWBXEoZ988smcpYf7kUSYli4yR5t5uIQQakHwQhGqICueEEdzEEnckhW1msM9NeY9GAFHoF+LBBxxW1akiSFAzI1Vi0SKrdMrZVrKJ4lpLIiB+5dVmFjBqakL2cRkPtdCW2OwlFXBuB+Ui6YSoohpe1MtYwQc0TNGwBEgWZF6IyAEzMD273//27svybg1+QsB1txmyUusSVkdzLBpOATwxrAEKwl55DyY1B8BI+AIDJkPJ6/z4nVkoeSEiGqsiCFQFAHmI5O0xfq6FlsrCpUdNASaBQJGwM2iG+0mDAFDwBAwBGoNASPgWusxa68hYAgYAoZAs0DACLhZdKPdhCFgCBgChkCtIWAEXGs9Zu01BAwBQ8AQaBYIGAE3i260mzAEDAFDwBCoNQSMgGutx6y9hoAhYAgYAs0CASPgZtGN+TfBAvZPPfWU38lC8TZhPh8f+2YIGAKGQFNAwAi4KfRChdtgC4dUGFCrzhAwBAyBKiBgBFwFUBu7SiPgxu4Bu74hYAgYAqURMAIujVHNlTACrrkuswYbAoZAC0TACLgZdroRcDPsVLslQ8AQaHYIGAFHdCnv9dxzzz19SV7z19TXgjYCjuhUK2IIGAKGQCMjYAQc0QG1Rmi11t6ILqhKkbFjx7pXXnnF8ZadcePGORSt+eef3y200EKuQ4cObu21167KdZtzpaNGjXLvvPOO4y1Om2++eYPfqlyf1wBusskmDX79al7w6quvdu+++6475ZRT/GsOed/3/fff75j1ECtbbbWVm3baaXPnderUyS288ML+9Ndff9298cYbbrbZZnNdunSJrbKq5X788Uc3/fTTZ3o5Cb/j6aabLlO7eN0ls0VatWoVPO+DDz5wl19+uR8Xtttuu2CZcnYaAUegVmuEVmvtjeiCihaZOnWqw5Nx1113Fa2X9/Eedthhbt555y1azg7+gwCD1MMPP+wWXXRRd+211+YOQMpffvmlJ+aVVlopt7/SG3L9pZde2l122WWVrr7R6hs9erQ79dRT3corr+zOO+88347vv//e7bzzzpnadPPNN3sy22WXXfx5J598suvYsaPfvummm9y9997rFlxwQXfjjTdmqreShVGiHnvsMa9s8Mwg/AZ5bvbbbz83++yzF1yO5+v22293b731lvv555/9PYAVCsaqq65aUJ4dKDADBgzw1/riiy880fOuY87beuutXevWrXPnMWYcdNBBbuLEie7KK690iy22WO5YfTaMgCPQqzVCq7X2RnRBxYpMmTLFv8+Ul4sjvPZv9dVX9+83nWWWWdxnn33mhgwZ4l8LyPG2bds63oNqrwcEjdIiBJgk4D59+jheUM97js8555zSFZVZQq7fnAgYi04G/7POOitHKJqAeT5nnnnmkqjxLBNCa6oEPHToUK9gQHghmXXWWR3P0lJLLZU7PGLECP+bxopNCvfao0cPt9Zaa+UdYow87bTT3GuvvZa3X760a9fO9e7d25Oy7GNcOPfcc92KK67ozj///Iqsr2AELOgW+aw1Qqu19haBvuKHbr31VnfnnXf6etFisQAgCy28l5cfOZo4gjvOXgCvEUrf/vbbb92kSZO8wrLAAgvkCjYUAWPJ0IY2bdpUzErJ3UQjbeBmvuGGG9yyyy7rlUFphibgHXfc0XXv3l0OFf2E3D7++GNfZr755stZeo1tAb/99tvumGOOcbQPZWKPPfZwWKSMZ3hVnn76ad9mlCsUCdzFPGvcN4o1buddd93VW8qffPKJt+Y//fRTvx+vAXWJ9O3b1919993+K2S75ZZb+mfm+eefdw899JDfv+6663rylnNoFxY4dR577LGORY7qK0bAEQjWGqHVWnsjuqAiRRiY9957b+96IkaJm027mfRFsIQPOOAAHxdmML/nnnuCyXdYJ7jJcIvNNNNMuoqS25MnT/YaNjG5pKAEIDPOOGPyUOp3Ib5Yaz1r2xmAvv76a48Z3oIskoWAwYV7qGay43fffeebT79Va6U4foeQJFZbln7UuOImhWCoJznol0vAun69HUvA1eofSBXXM7+HCy64wCscun2Q6DPPPON3cRxL9JZbbsmFko4//ni3wQYb5E4ZP368O+KIIzyBs5/jyE8//eTJHdJeYokl3IUXXpjXP1i3QvaMEbjkRR544AF3/fXX+zwRPuv77BgBC7JFPmuN0GqtvUWgr+ghrAisCeTAAw903bp1K1o/cWIpz48SzVvkueeec3fccYf76KOPnLi+iFN17drVx480eZBIctxxx/lkmaOOOsp9+OGHDlcbCS8MzGuuuaY/jwHlkUcecYMHD/ZluBZWOu3UCUUkjRGH4sePe+3BBx90uOHYj1XAOVgPaUlkWdpOG6iXwZkknd9//51dPpZLbA3XqHZ9MkDhambQgjBeeuklfy6WKWSClYJlvPzyy7sjjzzS18U/rAquQSwPkgcXypAMt8UWW+TKldqQ64MBg68WEu2I+48cOdIPyhyjn7As6bfOnTvnitN2+g0LsVevXrn9egMXJve1+OKLuxNPPNEf4rdHf2CxocSJkNhEPHL77bf3CVSyv9Qn9eBWB2NinCQkiZRLwBDQ6aef7p/Hvfbay8c8qbMYAVeqf6TtoU9+k/yekpa+lOX5O+GEE/zXgw8+2PcZSjLWPImT/L6TQriD3xrPE32PYjd8+HCHKx+hPt3v7JswYYK3dNnmd6Tj7DwTO+20k7fSzzjjDNe+fXuKlS1GwBHQ1Rqh1Vp7I7qgIkVOOukkR+yXHyHJJlkzJaURJBeRvJEmuLr44YslirUlMTcGawg4KVjZDNAQcEj0QEHcSgb8tPqoY/fdd89dV+rM2nayPyFKrGUE0tdZtygdl156aS4xRmKwEgN+8sknvYUh15dP3H7E0xAUgosuushhWYVkww039G2I6S+5fjIGjJeCQZsEnTTBvbjNNtv4w1hFtB3B0pFMYb+j7h+DPoM/IoM0uHBPDPgiSbxQPrjXUCKRnKM/IUqUq3XWWcfHLPWxcglYP48xSViV7B/d/uQ2ygnKQVrIhwQrXNQIZM3vRciRfqP/kiIKDPvBHaUO5RU3M8oqbmitQMr5/F7BabXVVvPhKNnPJ4od2eibbrppgZKny8VsGwFHoFRrhFZr7Y3ogooUYS43A7GQQzmVMhgyKCJkZTIQYG0xIPfv3z83aO+www4O6wLRAx7fIc199tnHW1ePP/64VwbYj2ApcR4EwoADYWJ16oFAEzDnQGZMjaAdWNXEt7AiGWCYuiIx7nLaLkoL7UIJWGGFFXx7hg0b5uuGmLU3QQhQMIZUv/rqK3fNNdd45Yf7YhDF9Q950859993XW8fzzDOPt6ixgLAsBw4cmCOzbbfd1pfjfouJXD9JwEzdefnllz2+Rx99tFtllVU84RN3hGwZ+Oeaay7Xr18/X722toRg9XXxjuABgWBxg9J2prVRN0J8kHAHuKFwMeDjXkUYwBm8Swm/Y54jPAc8L8npL5qA8ZCAUZpg6YsrVT+PpQi40v2T1j72Y3nyrBMeArekCHGyH48UgmdJPlHUkjJmzBjviWE/HgsUGZRXfkMoQ1j9IZHnHhc119Vy3XXX+d86fU5OSX3ECDgCvVojNN1esgUZiIsJgwgDEBLSBoudG3us2vXTDlxDaW5XMGEOJFYKLt80t2Kx+yEGihWFmwyX1xVXXJEXO+I4bimIjgGPH+ecc86ZR8DETvnRa5wZOMX6Y2DR03TIxCQxhAFJpk1pAoY0IFkdk33zzTc9WdIerAQGnHLbLm3DDQ7RapFYGa5zYnKIEKAQsJRPiwFzHm/uwkXIwMagJkKbe/bs6V3G3D8uWO3al3L6U66vCZg+Z1oJRBYiU+oV4sUzQt9wTve62CsKW2gQRmlgSgpEfvbZZ/smoDCgaKBc0FfaXYzlzbXp5xCW+h5kG3e8uOmxrFG0tGgC1vtD23gPcI0jWQi40v0TalvMPsGWsiiwTDEjSZLfG8LvhGmDSdGeisMPP9xtttlm7tBDD/VhlTRXN3XgosZVze+X50OLdmEnY8S6XMy2EXAESprQ0GRLDQIRVVa1iG5vVS/UxCqXH1ioWSQ1MQgjG220Uc6VFSqbto+YHlYNoq0+XZ4kEZmnCelgueoBDzeb1CHniUsrFMfieRMN/L777vOJXpqAtdtU6uNTLD5cp7hQy207Ss0PP/zgXaZYrtyPKHRYvzxrfJdkNiHAGAKG5FCKqIO+2X///fUt+G0sbSE4PiG8YiLX1wRMeaxfCJ1BVysr7CN2iPcCwSVJ0hSiE3z0QEtMnEEc0Yk/n3/+ubfiqJ/raIGssY5JlCPejCJXSl588cUcweAJEU+GnFdtAq5G/0jbYz/BlOdfZiQQqkHxQyl64oknvFuZukjgSmLOfrwvKD6IeBHEEwZhQ9whufjiix3eKcJIyXATXiZJ6AopRqH60vYZAacho/ZrQqsFAuaHwyDNZ6yQXIDowSn23Jhy1a6fNuCCRWNNE2KiuNS0OzetbGi/LIbAMSwdrpcUpj8IkZCgxPQGTcAhJUHcXaF2EROWBSXIxKZ/NAGnJYKImwzLhwGEFb9YyAHJ0napR+4T9yAkSAIW86eTeAsBxhAw1qUs8YoVvcwyy8hlcp8QlrzbGmtQJ6PlCqkNuX6SgClCshx9CIEysOPmhhh5JkQ0AetkHMICuIMRSVaCDHBDS6xf6kAxwWuBBcs1+MMSkzh6LAE/+uijPr5OvVhhSaw1AW+88ca5+LW0Q3+iJC2yyCJ+l34ei7mgq9E/uk3FtlGY8SKQVCe4Lbnkkt6bI/F4rZxJfDdZJ94q8dyI65/fJ7/T0O9NzhcLWIcl5BjZ1fy2EbxLeJnKFSPgCORqjYAjbqlFFhGii13ph4FT5gwTX2IQTVqjSSC1pU0iB6SvBzzix0k3ubSL/RJflnpLETDWG5ZzUgYNGuSuuuoqvxu3KosIlNN2LETinZC4TI3S1yILFGtQXMdCgDEETEIc9x4raV4Hfb5cP0nAZD5jRUK4ScFVzG8c0QTMd7LWiRPr+sSCwp2JQiWCexklCeLEa6AFkuYaKMWxBEy/SYwSIhIvg9SrCTjLPGD9PBYj4Gr0j7S92CexdJIYUQAQQgL8jkjOEu8L+7UleuaZZ3qFkP1aCMdInFhiwOQyEOMnWRJLNyQSJw6FH7RVHVKoQ/Wl7TMCTkNG7TcCVmDU8CYEhAeDmDeWnWjSabekXZC4lbGa0LSRkEXCfp30IRq3HvBCFmt9CJj7EMuG64tgmUGcCGSMa7yctkt9xE8ZkPnDAteZ3G3btvVkD65CgDEEDLFBcAiLHmBRFxOWCAzdqz5Hrq8JU2dy4xHAeseKR3Ehnsj0JMkJSBIwU8KI9SN965Lb6Etpc9Lqkpg4ZVHyUE5oh1yH82hLLAHruGfoeas2AVejf8CmmOBWxp2M4sfzBFa77bZb0DOnPRQslBNav5oMbsgZkf6SqUlkoouCnWwTFi6WbshK1tfVCkyyjpjvRsARKBkBR4BUA0WI6YjGWyoOjLsSS+ebb77JTVti6gHzQ5G02A9xWuKFCD90ll6sJgGnDQC0D6tXiFArBrFtJ4EPVx0DYTK+hnWCUkK9iEzVEQKU6/qDdf9CSViEJcStK8liUl4++e1BWkjbOqInWauYyPU1AYvLmPPIeCaTWwvWPdYxkiRg2sjqSrhBibdj/VBeYutSD+0kjg1xkOSHJ0PnirCfeDr1xRIwrndJbguFDapNwNXoH8Er9EloACUFrMmQJ85KaCJNwFyyxPVCG7o84Ru8SHgP6FsUMEhXspd1bF/OIyRB3BhvBYl4eBe06Gz3tN+SLl9s2wi4GDp/HzMCjgCpBopAqiTCQKS4siBTvXKO3AI/PCxLBlpE5iXiVsStzGDauXPn3KIAch6fZO2y+AREgQWK+6yaBIxrXFxs0g5W/GLgYCCTwb6cthPDlLgxmdYQoBYdi4YoGCyFAGMImLogN9oLTsT8NGlxnEETyxPBI8HAXEzk+pqAJZ6HGxhXrnZj0tcoMVj2SJKA2YcFhSVFjJrBmfbqmDBltFVEkh3Jdlq0K1T6RB8Pbev4ZWigrzYB06ZK90/oPmWfzL0mCQ5FWaZNyfHQp3gdIFZCLtqrhdcG65kZGCzoIs8yi4qQkIWEFHHt+g899/y++Z0joeQ4fyDynxFwBFBGwBEg1UgRBjVilrKiE0lSkBiuSAR3JMTLVAOEAZ8fIQk3iGjUWIXEJDlfRMdddbZzNQmYa+MuY7UoyItBGXcqWjqiB+6sbccCklV/eGMOWdCScIQyg1UmLn1WDMPKEAJMErAMlEwnglDFktUuXqY8QV5CkCQyQewsGYjbWFYv4r6wYrDwEaxrXj+IyPU1AfMGIGKzCEqXrOHL/TFoSz0cZzoSiTdadDYy+2kfFpQuR3yc9qOc8Szh7uQe+U4GNv0gU/GSsWN9Lb2NcsBCEyhPksGrjzcEAZfbP2AObojuH93+5DZ9T7Y+L07Qv6tkOb6jDJKUBrZk/CN4NrCaWb0MrFGcUBKR5DQlFHH5jbCNIs4SmKziRl8xPuD1wR2eFMIBPCcsPYvCllQak+WLfTcCLobO38eMgCNAqqEixNawcBkcRWTQ1/uI3RGfJftSBDKF8CTJBoLmHcJo1ZJNy3lo87KYQLUJmLahIDDwYIlJ1iiEwHxVkXLaDsmCFwLh4JZmcGKREIgR0dcRAkwSsE4mY6BjkMUiAW9IUQZDsqw5FywlYQrrmDgs9yfCd8gB0W5Eub4mYFzYJMugNCBYSbSBGB/C9Uiwk21IDw+HCPeLJSV9njZ9RSxtzkNRASuuwRxgLDTwI4+AY3gLIKZSItY3ePX82+qScxqCgMvtH0hMFBvdP9L25CdeBaztWEGJliVKtYLF+SQEEjqS33IovEE/oFByXQTlkWQ86WO2+Q3Th0mRKX4opXhP6iNGwBHoGQFHgFRjRRiUsX4khqmbz2CJlYJGLhafPs6PlvinaNf6GJnMEIp+MYMeKLFOiRFqkR908u0rlNFTUWSRCO36ZWoO1pgMJJwDuWBB0P6kdp617Vh2DKCQHRaZFrkO7m4wQyTRDQsFz4EI14VwIG5EL0XJ74s4rRC9nIOXAWuVDNik61muQ1kGYJQgJETA7CcJjXP0UpT0LdOaiO1i6bAAP/fI/STjftyLLGSRFnfHooZ4mOqkBYLHykIx4jjKBXhJfbpscluWUgy56CELPBQInzKlK1lH8rt+HlGCcM8iQmQokHpd5XL6Rzwe1Evf6jdjsS8pSS9D8njyO+/p3nzzzXO7yUHAAyXKJwdQqulf5lzzrCYFpQulBqtbC4oeYZ1Q/JnfA2EolE/69L///a8+NfO2EXAEZEbAESDVaBGIgR8iliNzbCEOLKQkcSVvj4GaHy5EjrbNIIvrMXaN32R9Wb5rAhbywbVO1ipWN7HK5JxRXX85bcdiwJpjahbCgMoUDXH96vqLbZPUhUUJoWolhXMghvfee897E7gPrFjIIIukETB1MKcYjOhzvBq0X/czFjdeAvZLyCHLtaUsYQywwqpiENfPBASBtc8+nplSwoCP9Y3igKK23nrrlTqlasez9g8KBsob4YkQAVa6oYzT9C8Z+jw/uKSTilvomjzTTGkiZkzcGeVQPxf6HEnkxFPTty6Uolc70+Vit42AI5AyAo4AyYo0GAIhAm6wizfxC2HJsuaydkE38SaXbJ5MhyOjnsz6WhAUDeKxWPqyMlwttLtUGwlloCSmrUBX6vzkcSPgJCKB70bAAVBsV6MhYARcCD3uX+LwZM/iDVh//fUzLfJRWGPT2YMVzICP65r70y+WbzqtzG8JSWi4/XHX8wKE5iCS8IX3h9yI+lq/YGIEHPFkGAFHgGRFGgwBI+BCqHVMmKO8KpB1ppuLSIyUxUpIzGrqQjYx4YlaUBZisSS3g5yRZEZ17PmhckbAIVQS+4yAE4DY10ZFQL8qjziUzg5u1IY14sWFgInNkZ1K9rckhjVisyp6aRKbmK/M1KxSSU0VvbBV5vNEmBHBCmrJeff1gccIOAI9kkbk5dtMX0kL0EdUZUUMAUOgCggwxYi4o8wvrsIlrEpDoOIIGAFXHFKr0BAwBAwBQ8AQKI2AEXBpjKyEIWAIGAKGgCFQcQSMgCsOqVVoCBgChoAhYAiURsAIuDRGVsIQMAQMAUPAEKg4AkbAFYfUKjQEDAFDwBAwBEojYARcGiMrYQgYAoaAIWAIVBwBI+CKQ2oVGgKGgCFgCBgCpREwAi6NkZUwBAwBQ8AQMAQqjoARcCSkrD7EGz14w4aJIWAIGAKGgCFQXwSMgCMRZHFxhHdAmhgChoAhYAgYAvVFwAg4EkEj4EigrJghYAgYAoZAFAJGwFEwOWcEHAmUFTMEDAFDwBCIQsAIOAomI+AQTM8995x/PRdv4+nWrVuoSM3t47Vv77//vmvbtq3r0KFDzbVfN/ipp55yn3/+ud4Vtc2L31daaaWostUoRL7FG2+84WabbTbXpUuXil9i1KhR7p133nG8OWnzzTeveP1NtcI///zTTZ482c0000yZmsiLLqaZZhrXqlWrTOfxcozm9kaqTABEFDYCjgCJImYBFwJ1+eWXu4cfftgtvfTS7rLLLissUIN7eOXb008/7V9px8vEa1mOP/54T2RZ72G33XZzu+66a/RpU6ZMcZAawuvaZpllluhzQwVvuukmd++997oFF1zQ3XjjjaEi9donz+2iiy7qrr322nrV1dRPhnTvu+8+x8vk3333XU/ArVu39tii3Pz3v/8Nvt3t119/dQMGDHCPPfaY++KLL/zL53m378orr+y23nprRx0hQbG5/fbb3VtvveV+/vlnfx3O6dSpk1t11VVDp7TofUbAkd1vBFwIlAxkRsCF2DSFPTyzDIhJ+fjjj/2uGWaYIfguYbwZWSzDjz76yB144IG+ThSY+lrPRsDJHivv+9SpU92ll17qHn/88dQKVl99df+CeSxcEd5/ftppp7nXXntNduV9tmvXzp8z/fTT5+0fMWKE69Wrl8NiTgqvcO3Ro4dba621koda9Hcj4MjuNwIuBMoIuBCTWtiDBfPLL7/4wbBnz571bnKtEfC3337rJk2a5FBAmvOL7R988EF39dVX+/5dfvnlfZho3nnnda+88op78skn3WeffeaPHX744W6zzTbLPQd9+/Z1d999t/8O2W655ZauTZs27vnnn3cPPfSQ37/uuut6QpWTwLN79+4ObwhuZzwoKGKffPKJ92Z8+umnfv95553nsKRN/kLACDjySTACLgQqjYC/+eYbH1+LiRmhbX///fdu1llnzfwydWJMnB8b04q5Vn1d0LTpyy+/dLPPPnt0uwqRre6eLAQccz9ZCDimD+pjAWP1ff31195FWl9XeNZewPLj/tLcs1nrq295rNEXXnjBLbnkku7CCy/0CofUiRKy3377eZf0hhtu6I477jh/6KeffnJ77LGHJ9IllljCnzfjjDPKaU5+H+wgPECYALnlllvcXXfd5bcJfWywwQZ+m3/jx493RxxxhMeG/Rw3+QsBI+DIJ8EIuBAoTcDMjyZuh9sKAsa6wDV9wAEHuKWWWirvZAYptHPix6KFU4CkG2JF22+/vZt77rlz5/z4449+gCCehWts7NixXhP/4IMPHASBFYNra9999y2IZ2W9lgwwHTt2dMkYMIMMVgDCoLXjjjvm2khC2h133OEgI3HBYW107drVx8xwwVVCGFCfeeYZXxUD5cILL5y52hgCjr0f3IpYOcQJkXnmmccTEAO69HvWPiiHgEmc4zwSuH7//XffFpKsiDsedNBBbuaZZ/b7+PfAAw+4Z5991pPHscce6/c/+uijrn///rkyaRu45nXCIc8k5w0dOtR9+OGH/nlcaKGFvPW3ww475Agqrb5q7t9pp53cDz/84K1R4vpJ4d7HjBnjLdKLL77YHx4+fLg766yz/PYJJ5zgOnfunHfahAkTPHGzk+dv55139sf5nRPa4N5vuOGGvHP4cs4553iMIHOImvHBxDkj4MinwAi4ECghYH5MxIMgyqQw8EFqZBUjDFjnnnuu/zH6HXX/iD+xXwRCBW+sSOS7775zu+yyi98myefVV1/128l///nPf5wMqBwr51ppBMygcv/99/tL4n476aST/Mpo7CCRh4SVNMHlxgBUiUGHwQtFAAFHXIRZpRQBZ7kf3I5CvroduBpJvimnD7ISMIrYkUce6cmPNiSfJxQhYqHyPMlzq5OwNK76PpLbkOpee+3ld5NkRB+MHDkyWcx/xwJHYaxvTDxYeYmdtK1Pnz6+1O677+5wQWvBU8BvCoIm2//UU0/1h6+88kqv3OK9wg2tFRc5n/P4Ta622mr+GniwhIi32WabHEFLeT5RtsEd4bedbI8/0AL/GQFHdroRcCFQMpBxhB8slsEmm2ziYz1PPPFEziVFpqWsIIb1KtsQ5t577+0tX6wH4ktkXSK4rDbddFO/rQmYHbir999/f78s6MSJE90ll1zirW6OMXhLXK+ca4UIWBMSljGWgVi0JJ6cfvrpXNoPtCQjLbbYYt4awDIi1obogdvvKPOfJopqEHDW+yG2R9+deeaZ/o6OOuoot+yyy/o+QCkrpw+yEjDKEEoZHhT6huVisYKHDRvmY6B4SegXsVzludUEjGXHfSQFcrnqqqv8bp5xrEOmaSHXXHONGzhwoN8Wyxgl68033/TXhQSJh/br188/s75gE/iHi/7666/3+NAc8Ft//fV9y0488UTvxeI3RD+ERPDGRQ1hc7/iwuYT71BSsLRFOUYpWWeddZJFWuR3I+DIboeAIRW06RghjR83KutHV0OI1SAhDbVS18OFtfbaa6dWJwMZBSi755575pU99NBDc3NqJRmEAYuBizgZZKIzKRmwcGsxV5HBUjJrNQET773uuuvcnHPOmbsW7lIhgFNOOcWtt956/lg510oSMIPvoEGDfH3Er4455pgc+WJFHHzwwd7tjOvtiiuuyItjc/yMM85wkBqEfeutt+a1O3cDGTbwMhC/QxgkNX6x1aRZwOXeT7EYcDl9kJWAt91224JnRrCQ/lxxxRXdBRdc4HfLc6sJWMrrT0gcQoI8EE3iEDbfCTeQpISbW8vbb7/tUEYQfZ4uo7chaUlw0vvTtvndh1y9aeXZj5sYi5c/Ee1GZp/8ZlGiUGxDghKCq5rfIFOOmDvPc4707t3brbHGGgWn4Z7m+kgy6augcAvaYQQc2dkQMPFKscpKnYZWSFyplqXUD0UGMu6RuFoy+YQBj8UgiMURH0VYGILBC/ccP3ItWLNYx2RUEjuF3BBNwMRdcXtq+eqrrzxxs++www7LTaEp51oyYEPiWFSDBw/2l9poo438gKoTy3gesOCRtEGWeC3uWASXIG67xpY0Ai73fooRcDl9kJWAJdaJixkFCYyln7B+iUHzXZ5PeW5LETAEJB4ZsoT5PYjcc8897uabb/ZfyX0IKcJ4aYiPa/KX85Of2suSPBb6TlayhERCx0P7tthiC4eSpYX7IhlLsEGJJokQEoVMQ0K8mKlNWPuEXjBMxEMIZsnfNXXo3+g+++zjtttuu1DVLW6fEXBkl8sDJu7TUqdBGuPrsv+qJRJvrWamJ65UbWkm70UGMk2wugwDFAMVRIa1q4WBkYQm5qkSQ+QPLZn9SBoBgz8ubS3EGWXeKqTNuVqyXEsIWJ/PNjFG3OtaRo8enYudYdWDV1IYgBmIEawkrKXGljQCLvd+ihGw3GuWPshKwHhEdAIVzyO5AiRgMc81+QzLc1uMgCEWSBEhlo3Vp71Z4hGD2MW1LfcqnzzfPNd4wm677TbZHfzE/Y1iGiu4tot5p0L1EA5g3EApQjFmYQ6EGDXPPSJKg8R3/c7EP7GA55prLu9ex9V/9tln+1LgEorv6mdEh5cSVbe4r0bAkV2elYAjq63pYjKQMc0B92tSQgSMexlSxjugXWGci0aNtQKhphEw8dbkwJNGwOVcK42AsXAY6BncRXAZEgNDWG0oNB2K+bYQHkLyCgkxjS1pBFzu/ejBFfx00lE5fZCVgLHqIDhIE7yT0r59e+9aJUMbkec2jYBRRIhTUi/LrJLAhRKpRTKI9b60bZ4drOSmJPxmsHDJqidpDQ8VHgRi6GSSkzgomdHJdkucWGLALBsqU4sIBaH0JEXHiS0G/A86RsD/YFF0ywi4EB4ZyNJWwgoRsCY45hAyOHI+MdTFF1/cu3nJak0jYGJNnKMljYDLuZY+h8QpptKg8SO4pYkxi2jXG7GwpKVFOZ180lQ0/zQCLvd+ihGwxjO2v7MSsPQHeRckY/HHdDidVEUWPvF8yEae2xABY4Xi7SAfAbcsJBTybJA1DFET25dQibQj+cnUm1BiUrJcJb9j7eJdwmpPW08bnEioQlAoSIqU6UKQ8Z133hlsEp4cvHtiJYMZbmzkkEMOCV5P52mkWcnBizXznUbAkR1sBFwIlAxksQSMdcvgj2Wx5ppr+uxhySamdvYTz8NNVl8CLvdaQhg6BobGLlNNGHjlJQ2aXNMykrGMZT1jBjfJoC1Es+H2pBFwufeTRsDl9kEWAoYocfNDrMnYI7FM4u+SREXmL/Om5blNEjCJjZAvuQjUR78nvS3SSyQVMpcdkXrlmHySIU4+A2EiFMxiAtkxVSdWsKolsTF0DhY3OCJpMWpc0CiFiGQv0w6SBRG90IbfUfePDGoSt1B6ycUgJ4N+RllFAUpbaIO14h955BGv1DC9yV7S8BeiRsDyZJX4NAIuBEgGslgC1poyyUssuKFFu6nqS8DlXksIWC/EQcyMDE4GGlzQuKIZAHGh41ZGcehct2AB7ruksNTjSy+95LOjcZNyXmNLGgGXez9pBFxuH2QhYB23hpDa1lm6WrCEcZkiJAWSECXPrSZgsplZVIRlGhHm+kIqaQKZyAtIsP6Y/6oFxYBnHAImdwBiLyaVTsLCtcxKWEhyZSppB8+jJEfiHcADhdJAkhRC4iFJbVo0sWu85XcDsVKXXiAGYmYhEBQcPedY19tSt42AI3veCLgQKBnIYgmY+BxTRiAsfuxginuO77ytBStSplfprFOdBR3rgi73WjKQaALmztHa+9atkYvoAVU0eywmMqF1khXTlxiMEJQNyZj2O8r8p1ds0qtNZakujYCpo5z70dnTOsO13D7IQsB4S/Ca8AzRZxCGLHgCqZIcR2yb/iFrGLeyPLeagLVFy/OcJB7Bl+xjYsmQCglLWNl8h+yE/GkTSz+ieCFC/FJH6BN3MaGXWGH6GS7jNGFNZp435jGj9LGqm7yNCFywtsEG3Gg3ORzijSLRERc2wjZWLa5sVg/jN8r0rOQ0JX6/Ep5hHjakT/yc3zNxYXmxQ9o0pbT7aO77jYAje9gIuBAoGchiCZgaJIOSbQZKYqzEk7AY0J7JrMTi5BjWClN3yiHgcq+VRsAMOsS35E1CZH2SaUvbiIlJQhnzxOeff35vSeCuQ3A/MiAnE3n8wYz/qr0QR7n3w+L7Mj8ZkqKfGaTL6e8sBAx8EIksiMHzwzNFf/FKPIgIQfFjqVJEnlshYDwbaZnM/gT1j4xomVYGwUK8kBjkBZGhUEKkcl2UHcmCV9U0yCbKGglkIrjCURbIzOb3hkCsTB0ikVKE3x8KiPQnSguEL8842zzP4KxFcj5kH9diWVrwQVhmVrwRUqalfxoBRz4BRsCFQMmydcsss0zeD11KYjFiOeqEDqwDtGhch1oYDNG2ma7CccgLQibOppe6Y8AjfqyFeBRzHPlkIQG2kXKuJXOXWRlIElTkWjrbU7+rloGKQVm0fCnPJzFEElxCGdK6XOy2tsRRFnTGcWwdsnAFqxER50xKOfej58VSH3hAVuX0gQzkKC4xi01gaROvZM42z4AWCAavBPFKiTvKcwthYvnyzGnPhT4/uU0Mn1i+CJYi9wppaWG1NkidGKlYlvp4Q22zYAZeDfEs6evSPySQgUNSUDR71oVP8G5owarF84JyHBLi4Xh+wFSEqVp4jbgW/WHyDwJGwP9gUXTLCLgoPJkPjhs3zlu+aNf8mCFpEX68DGzsg5jrKw1xLQZ+BiusH7R+2o2bXd9Xfe+jIc8v534gWxZcwAJmoMbtK9IQfQAJ4k3BwkNYKYypMvrFHtKeSn5ibRMH54UQbOMFYY3uclYpq2S7pC4UFBLVIFW2sUyJ0cqbjKRc6BMsUTxxuVOe+yqlUOBRYCUwstDx+uCSjl1BMNSG5rzPCDiyd42AU4Cqiye1emiQm2bUSF/gzzXWdFO71C2EUeeS82LHi+OTAqvtNgQMgeaPgBFwZB+TMYgWKHGkyNOafbFWA/u7aYYPy7vPPzt2clO7beX32fHi+OQBZ18MAUOgRSFgBNyiurvyN/uvHnULU0yZnF9x6zbuj959/D47XhyffODsmyFgCLQkBIyAW1JvV+FejWCLE2wpfKrQJValIWAI1AgCRsA10lFNtZmtBg6oc0EPzWtevgvajhfDJw84+2IIGAItCgEj4BbV3VW42bqsz1aD6xY6SEvCsuPF8alCl1iVhoAhUBsIGAHXRj9ZKw0BQ8AQMASaGQJGwM2sQ+12DAFDwBAwBGoDASPg2ugna6UhYAgYAoZAM0PACLiZdajdjiFgCBgChkBtIGAEXBv9ZK00BAwBQ8AQaGYIGAE3sw612zEEDAFDwBCoDQSMgGujnzK1koX0n3rqKX8O7wzVi+JnqsgKGwKGgCFgCFQNASPgqkHbeBXr95vyMvJSby9pvJbalQ0BQ8AQaLkIGAE3w743Am6GnWq3ZAgYAs0OASPgZtelzhkBN8NOtVsyBAyBZoeAEXCz61Ij4GbYpXZLhoAh0AwRMAKO6NTffvvN7bnnnr4k7wVu6jFVs4AjOtWKGAKGgCHQyAgYAUd0QK0RWq21N6ILrIghUIDA1Vdf7d599113yimnuLnnntv9+uuv7v7773fMAoiVrbbayk077bS58zp16uQWXnhhf/rrr7/u3njjDTfbbLO5Ll26xFZZtXLc1+TJk91MM82U6RoYENNNN12mc/744w8/e6JVq1bB8z744AN3+eWXuw4dOrjtttsuWMZ2lkbACLg0RjUXUzUCjuhUKxJEYMqUKW7UqFH+2CqrrOJmmWWWYLnG3jl69Gh36qmnupVXXtmdd955vjnff/+923nnnTM17eabb3YzzDCD22WXXfx5J598suvYsaPfvummm9y9997rFlxwQXfjjTdmqrdShSHd++67z7388ste2YCAW7du7duEUvDf//436JF755133O233+7eeust9/PPP/vyYIWCseqqqwabhwIzYMAA99hjj7kvvvjCTT/99G655ZbzGG+99db+unLi1KlT3UEHHeQmTpzorrzySrfYYovJIfvMgIARcARYtUZotdbeiC6wIg2EwEcffeQOPPBAf7Xzzz/frbTSSg105fjLYNHJ4H/WWWflCEUTMKQ688wzl6z0kksu8QTWFAkYkrv00kvd448/nnofq6++uuvdu3feXP8RI0a4Xr16OazYpBA+69Gjh1trrbXyDjFmnHbaae61117L2y9f2rVr568DKYsMGTLEnXvuuW7FFVd0PCu23oAgE/9pBByBVa0RWq21N6ILrEgDIVALBIyb+YYbbnDLLrusg0BFNAHvuOOOrnv37nKo6CdE9/HHH/sy8803X87Sa2wL+MEHH3S42ZHll1/edevWzc0777zulVdecU8++aT77LPP/LHDDz/cbbbZZn570qRJ/r7xZOB23nXXXb0S9cknn3hr/tNPP/X78Rpg3Yr07dvX3X333f4rZLvlllu6Nm3auOeff96xlgCy7rrrevL2X+r+gdt+++3nqPPYY491LPpjkg0BI+AIvGqN0GqtvRFdUNUiP/74Y6qr9YcffvAxwNgG4CLE+sqaqFepNmAdfvnll2722WfPHCvkHrMScLn3G3fMGu4AAEAASURBVItnshxuUogVsk0O+uUScPIa8j2WgKuFAVbsCy+84JZcckl34YUX+udK2vbtt9968uPaG264oTvuuOP8oVtuucXdddddfvv44493G2ywgZzixo8f74444ggfUmM/x5GffvrJ7bHHHg7SXmKJJfy1Zpxxxtx5WLdPP/20/44rHpe8yAMPPOCuv/56t9BCC/lPs4IFmbhPI+AInGqN0GqtvRFdUJEid955p8NttvTSS/uYH5YU7rqvv/7aD3LrrLOO22GHHRxkiOVBAg4ETBwUVyyDFwk5ScECYLAm7kZdDF5YLCSobLHFFnnFq9WG5557zt1xxx2eQMX1iLXUtWtXR/wuRiHANYmlRPwPmWeeebw1yOC+1FJL5e4j9n6Jr7744ov+PCyqJBb9+/d3TzzxhE+Cop3EM0vJww8/7JN/cC8T49Qu0XIJGAI6/fTTffLWXnvt5WOetKMYAcdiUOp+ih3faaed/POHFbvbbrsVFEUBGTNmjLdkL774Yn/8gAMO8NY8hIiXICnnnHOOGzp0qH9GIWqUxeHDhztc+cgJJ5zgOnfu7Lfl34QJEzzZ8x2i1nF2fiu0E2v4jDPOcO3bt5fT7DMCASPgCJBqjdBqrb0RXVCRImRtMoDPOuusftDHikgKCThk1goJ6eNYIhdddFHeoA/xsQ9LJCRYJ0ceeWQuC7Uabbj22mt98kzo+uzD1cjAy2BbTLAsQ/eNu5IEHiTL/VLXwQcf7LHh2tdcc42bf/75fT24fA899FCHxY5FRSKPtrp8ocA/iBKlCWWJmKWWcgn4u+++y5SElQUD3b4s2yRO9enTx5+y++67e4VOnw/hEbdGQUTRIyFN3/8222yTI019nigw7OO5RVEEe9zMZDzjhg7FzrkWOK222mq5dkm9KKb8ZjbddFOvpMp++yyNgBFwaYwsCzoCo1ooIuRHWxlssHbR9hnEcPHhuhWBiLEcf/nll1wWKsdk0GIba3fffff101+wFkkMIi4J8QwcONBbGpTbdtttfTm2K90GyAhSQrDSSaAiIxWCw8IkVohwr1h3xQSr7sMPP3RnnnmmL3bUUUf5+1lggQW80lHO/ZJAJNYZWdVnn322Tw465phjvMeAfgBTcCslKJbcB27offbZp2D6iyagTTbZxOOeViceAXGlZiHgcjBIa0O5+2kDbt9hw4b5Kk466SS3/vrruzfffDPnisZrgfKXFCxmLGcEBQZF5sQTT/TJV/QzVn9IuMarr77qXdQQtpbrrrvOP2v8Bm699VZ9yLZLIGAEXAIgDteaRanbi+swbS6f3DpxG9xwSEj7lXL1+ax2/bQNV9jaa6+d2kxNfklXmsSyOFmIQipizuMhhxziv/Ipc0IvuOAC/9YpLDcGIQYgESyUnj17upEjR3q3Ne5SBv1KtoFrYGESt8XleMUVV+RZkeIWhKS5NoPjnHPOKU0MfhaLAZdzv1wEHF566SV/PawlngWZ1pPmXg01Dhc/3gSE7FuShbRoAtb7Q9skKJHkhGQh4HIxCLUh6z7cyyiL/Ino5xh3P25ghMzoNdZYQ4rlPlHMqAeR5C08Ee+//35BUlvupLoNXNS4qnl+eJa1aBd2Mkasy9l2IQJGwIWYFOzRhFYLbxfS7S24mWa8QwaUtFsU8kPhgHC1yxOiFJdmKA4m8TgWbmAAY34m22CNpbz//vsXXBYLBYsP4RNir2QbyILde++9ff1YvmTJJuWZZ57JzZPFpYkLsZikEXC598u1IDjaR4YuMVsUg99//90P+HgeYuLT1KMJBrf7oosuyu6cVJuA64NBrpH12CCGDnZayH4mE5m5wcTT8SYgZIeHvApfffWVj+NSRrwIrPKH9wfChrhDghcDbwahBOYKayFXQhK6QoqRLmvb+QgYAefjEfymCa0WCJiBgvl8fMYKyRRItRZeqHb9tB3XazELT8gvpMVr15x2M1MvgqVGzJhkIlzNDFiyPCnzIJdZZpm/Cqr/EI68lxnLDbdoJdsgi1FwSeKrocUQSKoS5YB20/5ikkbA5d6vXOvZZ5/Nix0ykOPKxHKPlUcffdTPi6U8VliyrzUBb7zxxo44aJrgFVpkkUX84VgLuL4YpLUldv/YsWN9guDnn3/unyvirgihBzKVtcIXeoYpq/sXbwRxW54PnpNQfJdzELGA55prLtevX7+/dv79f/z48f43wVfc2Sz2YRKHgBFwBE61RsARt9Qiiwj5kUyFu1aLJmCOUUZLkoCJhxEXixWxUCvZBpRBicexWlJoiUJi2FjoCIk0JPQUEz1A64U4yr1fuRbKYPe6JC9IDCH2jqchi7AqlcQo8WBg9WnRBJxlHnAsAdcXA93W+m6DJ9Yq05Tw6JABD4mKJUocn0U6kqLjxBIDph9YdpNkPYnXJ8+TODHTlOSZkzLaqi7lhZJz7PMvBIyAI54EI+AIkGqgiJAf05Auu+yyvBZnJeC3337bkaSEsEBBaLDTFyCLGIurkm3QLseQRcj19X2JxaPbldxOI+By71fq14tKsC9L8pXUQWIblj4Sut9qE3B9MZD7iPnE2iXmzTrVknOQPE8rBCRW4XLGHY3oXAV9HhnckmQnVrJMTWLuONPkQoL3BEs3ZCXraUp6Kc9QPbYvHwEj4Hw8gt+MgIOw1NzOSpIfLnUychFcblgISeG5IYELadu2rY85V7INmlzTYm9YxpLwxED773//O9nMvO9pBFzu/VI5AzSJPmQv89IEXPnEMnnpAd6GUtOjpIG480mCQkIu92oTcH0wkHuI/dTWPtuh5Ehc0ChVCFnP6623Xi5LXC+0oa+J4vnII4947wFTjkhGg3QlezmUREXWNcle4sXAu6AFZeHoo4/2u9KeQ13etv9BwAj4HyxSt4yAU6GpqQOVJD9uXNzSDI4sapBMJmKAY4k/hBWKWBijkm0gGxa3MmSW5tKVDGQSzniVZmgg9w38+18aAXO4nPtlURA95YjkIJY3lNWaSBzDPR8jum2hgb7aBFwuBjH3liyDa5mVsJDkilZSlv7E9YxcddVVbvHFF/exYFatgljZJ292ogwKEAt6kIUuc4fZz/QzErKQjTbayPeX//L3P60MsEANyqQWMtx5zpBQcpw/YP+CCBgBB2HJ32kEnI9HrX6rJPmBweDBg3OxZOb6kpEsU74gGaw1lvfj7TOy0lCl2yAWDXFAiEwnWQ0aNMgPwrR1++23z2VM811W5GKb7GgsU0RnVkuWrD9Q96+c+9XWlcyHZvGNww47zCcEUXeMZU45LDBWYULxSLaN4w1BwOVgQNv0qmAab46FhOeG54l7QmnCtStvMUKpYUENvAAoXxAingQUQN6axOsZkRVWWMGTN+tbQ7q4nuVlC8lpSliwWLII21jQuL9JnkPZkax1vfa2L1z3j3AAiVnkIKB0JhVRKWefhQgYARdiUrDHCLgAkprcUWnyY/Aj9iYD1xxzzOGnxuCy4zVtCIMngyODIFLpNpBARHxO5oZiZbPaFFYN7UDINGa6j15GkzZBJkjS7SiWLsdYkB/lgfhi1vsdN26cn7cLYdAmCEPczbhPiaFTJ/OnsaxCSWS0QQskQhyTt/mI1SXHG4KAs2IgbYPEWAYVSeLtdwb+6axvDjNDAaxY6IWVshBIElLUSYOQ/T333OOP849zvvnmG48130MhEzKr8VTI6nAkuDFlTJ4rtnmG9JKk1IVA+BA/i9egKJjEI2AEHIGVEXAESDVQhOxNMoeZMsRr3rToOBblyPbUQvYwhJZ0mfJskJlLgpAWLFLeDsN5kKJINdrAoMlykWLdyLX4ZGESlIQkuUk7KMOALUtE8p3Bm30ieinKLPdLIpDEwCFxseCkXk0UrAXNoiKlRJZSDLn9IQvmayN8yjSxUnVq4mZJR9yziLQvua5yFgzk2vqFBjwvrDoVIyxygZdDFrLR55DYB2ZYwElhpSw8IHgbRPDOMBWOcyDupLBIB0qNvGVJjqM8EmNmul1SyLInDILFjuUcs553so6W/N0IOKL3jYAjQGrhRRjE33vvPW95YmmSaZ1ljmt94cM9y8AJ4WHtsEgFMUEyW8sREo6YXoIFzACMQqGlse6XAZ84JhYglheJR40lWTEgExzrl5eAhAgw7T64Z6YYQZBsY9ES25WlNNPOY9wic5vlRXkmcUlrZTDtPCxsFtcgZsw1WHEsza0sS43i/SHfQb8cI61+2/8PAkbA/2CRumUEnAqNHTAEGhwBeeUeGd3Ej2tBsERJpiI5Co9CcxHm/aJ4Mv2p2MInzeV+K30fRsARiBoBR4BkRQyBBkIAK5ABn5AAC0foF8s3UBMyX4Y5tywLSoyUFyA0B5GEL9zpxPfN+s3eq0bAEZgZAUeAZEUMgQZEQNaFZgEUWViiAS+f+VJkE5NpXgvKQuzNkVvAXPRkRnXs+VbOOSPgiKfACDgCJCtiCDQwAiQ2sRoU071ik5oauInN9nLEo1mKlReMkKBlUh4CRsARuDEHTl7hxWvn0hISIqqyIoaAIWAIGAKGgEfACNgeBEPAEDAEDAFDoBEQMAJuBNDtkoaAIWAIGAKGgBGwPQOGgCFgCBgChkAjIGAE3Aig2yUNAUPAEDAEDAEjYHsGDAFDwBAwBAyBRkDACLgRQLdLGgKGgCFgCBgCRsARzwDr7PIycIQF9pPr4kZUYUUMAUPAEDAEDIE8BIyA8+AIf7GFOMK42F5DwBAwBAyB8hEwAo7Azgg4AiQrYggYAoaAIZAJASPgCLiMgCNAsiKGgCFgCBgCmRAwAo6Aywg4AiQrYggYAoaAIZAJASPgCLiMgCNAsiKGgCFgCBgCmRAwAo6Aywg4AiQr0qgIfPXVV+7xxx/P3IZWrVq5nXfeOfN5lTzh9ddfd2+88YabbbbZXJcuXSpZta9r1KhR7p133nFzzDGH23zzzStef1OtkNkbP//8s5t55pkzNfGPP/7wMz14NrLIb7/95qabbrosp7T4skbAEY+AEXAYpClTpjgGN4TXks0yyyzhgra36ghAYieccEJZ13nkkUcynVfpfr/pppvcvffe6xZccEF34403ZmpLTOHLL7/cPfzww27RRRd11157bcwpNV3m0Ucf9crY+PHjHX01wwwzuOWXX95tv/32brXVVgve26+//uoGDBjgHnvsMffFF1+46aef3r+7eOWVV3Zbb721a926dfA8FJvbb7/dvfXWW57s6UPO6dSpk1t11VWD59jOfxAwAv4Hi9QtI+AwNB999JE78MAD/UHezbrSSiuFC9reqiPw3nvv+ffiJi/0/fffu0mTJvnd8847r5txxhnzimDlXH311Xn7Sn2pdL8bAZdCPO44Fi/vRn766adTTzj44INd165d844zvp122mnutddey9svX9q1a+d69+7tSVn28TlixAjXq1cvh8WcFF7Z2qNHD7fWWmslD9l3hYARsAIjbdMIOIxMpQfi8FVsb30QuP/++90NN9zgq8ASXGqppepTnT+30v1ebQL+9ttvvRKCJbjAAgvU+/6bagUsFgQBI4sttpjbfffd3XzzzeewhG+99VZHmEIULrwBIn379nV33323/wrZbrnllq5Nmzbu+eefdw899JDfv+6663pClXNQ6rp37+4tbNzOu+66q1fAP/nkE+/N+PTTT707+rzzzvOWtJxnn/kIGAHn4xH8ZgQchMVlGYgZBIkRzTPPPH4QCNcY3vvjjz+murd/+OEHHzsMn1mZvb/88ovjGZh11lkLKmQ/VibHktZlQeFG2JGVgGP6KUu/f/fdd/6uZ5999tQV5OpDwFOnTnVff/21d5E2dAgEy4/+T3PPNnR377nnnu7LL7/0pIurHYVDBPLdb7/9HK7mDTfc0B133HH+0E8//eT22GMPT6RLLLGEu/DCC/OeYzxbYlETHsDFjNxyyy3urrvu8tvHH3+822CDDfw2/yD8I444wmPDfo6bhBEwAg7jkrfXCDgPDv8F9xLaLvEiBGJlIOKHLVYWxHnNNde4l19+2ZMU5RgUVlxxRe+6XmSRRdiVkzvvvNMNGTLELb300m6XXXZxkAduLgbYJZdc0q2zzjpuhx12cNSL25TEHQiYgRf3Nz96EnlE0OxfeOEFt/jii7sTTzxRduc+b775Zvfiiy+6FVZYwZ/LgYEDB/p4ITEztPpLLrnEvfLKK37gEUuS5+HBBx/05T777LNcfVyb2Bextrnnnju3vz4btP+ZZ57xVTBQLrzwwpmqiyHgLP0U0+/jxo3zg/PIkSP9IEyDcUkuu+yy3v3ZuXPnvHsoh4Dff/99x3nEvn///XdfH0lWxB0POuigvMSjBx54wD377LO+D4899lhfljhp//7989oR+kLSVrdu3XKHcPNy3tChQ92HH37olcqFFlrIP388m0JQuRMaaAPFiecVCbmZ2X/xxRf72DDKIr81rOHhw4e7s846i8M+hyDZNxMmTPDEzXGeP0nYO+CAA9zHH3/suHf5XVBG5JxzzvEYoZRC1FoZkDL26ZwRcMRTYARcCBLuJyFffRSXE0kYH3zwgTvjjDO8Rq6PyzZuq6OPPtrpH7wkyzBATDvttI5BJSkdO3Z07777bvDakPRFF12Ui1WJ9g6hX3bZZcmq3LnnnusJ/9///rdjwECEDDgHa4FBBpGBhgGY8xiARVgbnP0iuDlpB1ZffYXBC2sD4bq4CLNIKQLO2k+l+h0LDAIg+zZNsMS22Wab3GHBPDYJizYfeeSRnvyoJIk/se5LL700h788VzoJS+Oaa0hgA1Lda6+9/BHuiT5AsQgJiiCx1MbIhdBJeBBqKAEK0sUVjVx//fVembvyyiu9mxkyxg0dyphGGcaTQQJXnz59vDItREw/0p9JIekN3BF+Cyi0JoUIGAEXYlKwxwi4ABJHjAcL4Mwzz/QHjzrqKG/hQD6QKwMkRInlw4DcoUMHr3EzUGBV4vqaaaaZ/ECA5YLIQMk2AwKDHwSNlYtrjMFdBCImOxP38H333eetbI7pH3t9CFiuQywNy5tP2jJ27FivOHCcF3Psvffe3uoGC+JlZJEiWOObbrqp367PP00UlSZglIas/VSs38mcPeWUU3xf4A1AwSI7fvLkye7tt9/2fUi/zzXXXK5fv345WLIS8EknneReffVVjzuZ33gwsIKHDRvmPSOEOkgOFMtVnitNwFh29FlSCCdcddVVfjfPIGSGgobgzcFDgohljGX35ptv+utC0Dz73FsoXOFPrNI/vA6HHXaYrz2p4Mgl8RrhuUEkaRLPEMlX/G7ph5AI3rioIWzuV1zYfOLSTsqYMWOceBtQSvgNmRQiYARciEnBHk3AuFf5YRYTNHIGGiSkURY7N/ZYteunHTvttJNbe+21U5uUFgvUbq0QETEYQ9gIGZkQNCIDJdva3cV33Iho7QiD+tlnn+23+YdFdMghh/jvfMpc0voScPv27T2hQCwiDMAMxLjbIUd9jAGYdkM4DP6SIS7nlvOJe1g8AQyS+nox9RWzgMvtp7R+h9BRivAcJPuPtjJdRYiXaUfy28hKwNtuu20qxtLnhDkkIUmeK03AIewgcQgJ8kA0iUPYfCfuS5ISbm4t+pnW5+kyehscJMFJ70/bBquQq1fKgznY0wd4oPBEaUEp4bdB2AghlEBi1aGHHupw5xMeQDEOCUoIz8qcc87p+5CwDd4thOzoNdZYo+A0PEe4qZHDDz/cbbbZZgVlbIe5oKOeAU3AUSc0k0KlfjhpA7EMglhBDDS4k5Oyzz77eCsa1xRWKyIDJQoMhKuTmnD7oUkjWD1Yo1pQFrCUt9pqq9wPX9pRjguauvvWxZDJItXy+eefOwZj3I0MWlomTpzorT4yRLViocs09HYxAhZ8svZTWr9zb8T7SYwCG50UxT4IROKuuDvFSsxKwNLXuPiPOeYY7xoVpRii4ffKd0mOkueqFAFDQOLBgDB4/kXuueceR84AopUHOc7n/vvv7wlOk78+rrdJkmLebayQlUxfFhNIEXLk3mn7Jpts4ovzu8D61WGT008/3SvXkrgFiUKmIZHYMdY+bX7iiSdyv1kwS/4OqIOkL5QwhN/6dttt57ftXz4CZgHn4xH8hlaJm4bPWMFyQfQgFHtuTLlq108bcLui9aZJ2kCMdYtFgJv45JNPDp6OBYvLEHwY3BAZKEXT1idql5Z2M0sZElCwFLV1IgRTDgHjFr/jjjuk+oJPBnqmabAQAbFw/tD62Y/UAgGX209p/S4gYSWOHj3aW1YoLGCDckIynUh9CPi6667LETn10Vd4RYh7rr766gXPrDxXxQgYYpFFOrAgsfq04sgzB/FAbuLalnuRT54H7pUEvNtuu012Bz9xf6PIxQqu7WLeKOrh2ljmLL6BQNr8vr755ptcopo/UPdPfkOiNEh8V47rT7GAJXTA71Y8UFKPLs+2fkZCXrBk+Zb63Qi4pfZ8Be5b/8ggO0k+EQsFlxg/8JBgDaHRY+0OGjTIx4ploCSZ6oorrsg7TRMwxyijpRwCRuNn0AwlYaUlBOFeRmEgixbLQgsWAtYXilotEHC5/ZTW72CBpwIig3CTgvscfJD6EDDWNAQHaZIDkBRCB7hWycxH5LlKI2CUBbwr1IvHgwQuvAJaiGeKa1rvD23jLsZKbgwhRg8pJttK6IycBVEyZEoR3iTyMpZbbjmfJR1qs8SJJQbM7AOZWkQOCEpPUnSc2GLASXT++W4E/A8WtpURgbSBWNxaSTeerl4SO7S1IANlyGKtBgFjLYwfPz4TAYtVzb1A0gz2tJcsaaY7YVUSk64FAi63n9L6XWcnY7FhkWKZCjYkCrFyElIfAvYV1P0j7kkyFn94qHRSVdu2bX0yFQqePFchAsYKJRGN+D0ua9yteH6Scuqpp3qrXpIKk8f1d0InocQkXaba23iDeLaJa0O+eJVk7i6WMUok9yLThXDnkyUdEvmdiJUMZpL5rHMu9LnPPfdcLkEzzUrW5VvqthFwS+35Ctx32kAs5BpKBuGyWBrMlcWaxGqG1BAZKCtNwBCjZLb6C9X9w0olXoxFFmsBUxarnvavueaajjgag5gI+7EqCQ/UAgGX209p/S6xXPAga53sZC3azVsuAUOUJBJBrMnYI1nyJB+J9SdTbeS5ShIwiYyQL9Y69WGppbl5dQax1KvvjW2sT+L/uH1ROooJZMdUnVjBqqYNaYLbH28OsswyyxTkLrCfeyVkQkay5FPoqUliFVNWhLABsVx+L927d3c77rij/80wQwEFKG2hDab9scY4Sg19jUJmUoiAEXAhJrYnEoG0gVhP1wgNVnrKBISFJYbIQFkpAhZC4MdP8o8mS53JGUvAWvNn+hFKhBbtdqsFAi63n9L6XWKFuOJJopPEKDBiACcfAGsVKZeAcRdjjSIQUts6S1cLlrAsukIWNAlR8lxpAoawyARmkRWEub6QSppAJjKXPDTNB8WAZwICJvkJsismlU7C4n5QDslBIEt83333zbu8nidM2yRBC6WBJClko4028klt+kRc6fyOEI23eIL4baHc6gViIObddtvNzwRh+qH0l67Xtv9CwAjYnoSyEWAVKAYdRGc6kgzCIMVggPVJrJUEDoS4KfEjEpYYqHGLSbxNBspKETCrH7FwAALRszYuRICFhCuUQROJJWDijQxuWLrcF6413I18J/uXeboyPayY+91fNPKfXrFJrzIWebqPs8v0FfDFHSlSbj+l9TtZwpJQR8yUmCOCR4BBesiQIf47/8iOl2dCFKW0uHvupLoN6qIvwZwkP7KgeY4QSAilguk9WLTkGGCByXOlCVhbtDxv1BMS3LXEkiEV8hmwsvnO8yPkT5uw+F966SVfhRB/qD7ZhyWKyz5WiJ8LnmnnkOzE3Ht+TzyL4krHwsdbwyeLlPA8aIuU+drMb0fYxqolAY3fD/XgxsbboKcp8bwz5xvB08Fvmvg5zz9xYRQhJG2akj9o/2wlLHsG6oeAJD9RC4MVVhA/VgZY5n0iDB4kcDBoEqeTTGHmCeIGFpGBslIETBwMRQBXNyLTUiRLlEGItsQSMHWIlcc2Az+ENr4u1gaZUx+kQuYvx7C+RAGgfDlSzYU4aE85/cR5oX7n/pn+AhEiWEUM5OCDQICyshjbrKbUuW46WRYCph5tuYM3fQBJ8Eo86VttBcpzJQRMKCEtk5n6tegwCgQL8fIc402BgFHAIFK5brHEQ11vNbbxLhBWQOT5QxHBM4MCQZuZqpRMmuJ5RQGR+eb8TvjNSpIh2ygYWnnjGlrh4juKCRnX4IOwLKt4I/wO+1eAgFnABZDYjiwIYPHI/EjOk6Uo2WZOJZYGP34tEDUWUnJ1HFkWjxgWmaha9ApUlIPQtWDdEq9KLoCBu5t4l7wUgHMYNLGiaBcxML2whwwqsvSkvgbbWDtYBbhCtTC4Yz1A6BynLRCSrDyky2bZxlXbt29ff4rONI+tQy9gEsKNerL2E+ek9TvrVnMd8S5QFjLA5YkyhBXF4v46plgKc+rQgieCeOXgwYN9PfoYhM9UNOKV4I/IcwVh8jzSR5SJEa2cUZ7nkGcc0tLCnGaePWKkOtShyzTENtgyTUvIU65JsiMJU2kxbhSjnj17OrwbWrBq8bygTIaEEBOzGESppgyhB/qbBXb0VK7Q+S19nxFwS38C6nv/ddbO/+671/054iU/8Ey3bgf3Z9e6wa1O20am1LmkJvW7zf3r5dF/DUxrtnez7Lqbm7ZuUPZSd36rhwa5aUaN9F//XGNNN7VL3ftK/z6/zpyqyPH/Pfest4Qnr7iSv/5MdQNmfa4/rs6Sx7JrU3cfq0+c4NqMeTPX/l832dSNrXMFklkKMdeCYMFhyeGhwAJCweFlGcUGUJQRFlxAoWKgxtpCiIMyDxyLiuli1KVJCVcoChH7ObdcgQTpA1zpCCuFUWelXoSR1i6sbeLgrCDFNm5d1ujGUmwKgvKD4gnOtA9lEks+pn1gyTQjlFNCAtyX7rvQ/eFRoL95dnB/45IGE5PSCBgBl8bIShRBoNXA/m6a4cPySvzZsZOb2u0v13JLP54HjH0xBAwBQ0AhYASswLDN7Aj8q0ddIsaUv2KsubNbt3F/9P4r+amlH89hYhuGgCFgCCQQMAJOAGJfsyHQ0gm21P1nQ9NKGwKGQEtCwAi4JfV2Fe611cABdS7ooXk157ugW/bxPGDsiyFgCBgCCgEjYAWGbZaBQF2SR6vBdfMu05KoWvrxMiC1UwwBQ6BlIGAE3DL62e7SEDAEDAFDoIkhYATcxDrEmmMIGAKGgCHQMhAwAm4Z/Wx3aQgYAoaAIdDEEDACbmIdYs0xBAwBQ8AQaBkIGAG3jH62uzQEDAFDwBBoYggYATexDrHmGAKGgCFgCLQMBIyAW0Y/210aAoaAIWAINDEEjICbWIdYcwwBQ8AQMARaBgJGwC2jn+0uDQFDwBAwBJoYAkbATaxDaM7rr7/uXwPHa71MDAFDwBAwBJonAkbATbBfL7roIt8qXvBuYggYAoaAIdA8ETACboL9agTcBDvFmmQIGAKGQIURMAKuMKCVqM4IuBIoWh2GgCFgCDRtBIyAm2D/GAE3wU6pkSa9++67bsiQIa5NmzZut912a5Kt/uCDD9zll1/u1lhjDbfrrrv6No4ePdq9/fbb0e1dcskl3dprr+1GjRrl3nnnHTfHHHO4zTff3J//xx9/uHvuucdNnTrVrbfeem6xxRaLrrfaBX/55Rf3008/uRlmmMHNMsssJS/322+/uemmm65kOV2g1DlXX321ow9OPvlkj5s+17YbFgEj4IbFO+pqRsBRMFmhAAKPPvqou/TSS91ss83m7rrrrkCJxt31559/umOPPda99dZb7txzz3Xt2rXzDbriiivc4MGDoxv3n//8x9cDkT/88MNu0UUXdddee60//3//+5/r1q2b3z7++OPdBhtsEF1vNQuiGNAe7n311Vd3Z555ZvByKBS33367L/fzzz+7BRdc0K288squU6dObtVVV633OShoYN+5c2d3wgknBOuznQ2DgBFww+Cc6SpGwJngssIKgaZOwE888YTj+V5xxRXdBRdckGu5JmCs2VatWuWOhTbWX399t//++3tLulYIuF+/fp5YuZ80Ah4xYoTr1auXg6yT8q9//cv16NHDrbXWWnmHsp6DZ+Cggw5yH3/8sTvrrLNSST3vIvalKggYAVcF1vpVagRcP/xa8tlNmYBxv+61117u+++/d7179/YuaOkrTcCDBg3y0/DkWLHPb7/91k2aNMm7dBdYYAFftClawG+++aa3NiE/JETA3Ef37t3dlClTvNsZ9/xKK63kPvnkE3fvvfe6Tz/91O8/77zz3HLLLefrKeccTnzqqae8ArTQQgu5a665Jhpvf1H7VzEEjIArBmXlKjICLo0lFgIWQRZhYGbwn3XWWd2MM86Y5VT3448/psbsfvjhB+/yja1w8uTJnjCytj9UPwP6NNNM4/84HkvAEBexwnnmmaektSnXhRi++eYbHzecaaaZZHf05wMPPOCuv/56B1HeeOONuTZTQbkEHLp4FgKuZF+E2sI+Yr6HHHKI+/LLL3NFQgR8yy235MIGSdf5+PHj3RFHHOG4N1zqHEfKOYfzqGePPfZwPLvHHXec23DDDdlt0sAIGAE3MOAxlzMCDqMEeTJwv/HGG+6rr75yiy++uLeiNttsM3fnnXd6cthhhx18vExqYKB58MEHfZzws88+k92eMImpbb/99m7uuefO7aceYmRLL72022WXXdz999/vcPF9/fXXjsSfddZZx3ENCJlkFtrCIEZCDdYKgyTx16Rgvdx0000+YYi6UACWX35516FDB7fFFlski5f8/sgjj7ihQ4c6kq4Q6iIpiYSdtBgwbcbaefnll70iwnkkA+EOPvDAA90iiyzCrgJ58sknfVLThAkTHDFcZN5553U77rijA3sUgFLCeSSFQfx77723x12fUy4BQ+rPPvusj5MSW0ZKEXCl+0LfR2gbN+/w4cP984Py98orrwQt4AMOOMC7hbFKb7jhhoKqzjnnHN/nPDvE9+m7cs6Riq+77jrXv39/t8wyy/hnRvbbZ8MhYATccFhHX8kIuBCq999/3/Xs2dMTYfIoBMrAjjWotXkGfZJNICoRyEJIhH1YY+A9++yz+yKS1MNAOe200/p65Vz57Nixoye+L774QnblPiFp6pt++ulz+5577jm/D2srJFgfRx55ZFS2K23HimTgDAnkLxa5TsIi6/WMM87Is8L0+RA3C7+QmKPlsssuc5B9muy5555up512Sjuc2//ee++5ww8/3H+/8sor3RJLLJE7xka5BCz9FZuEVcm+yLuBlC+PPfaYu+SSS/zzQFsh1pEjRxYQMMrlzjvv7GvZZptt3H777VdQI7Fu6kB4xnh2s56DoiaCYnn66af7r7fddlueIipl7LO6CBgBVxffsmo3As6HDdI57LDDHCRMcg4WKC48CBcL6KWXXsqdoAl47NixnlQ4SNYslhcE9eGHH7qHHnrIMTgiWK2bbrqp35YBnS9yLUgJUrvwwgvzCAwi3nrrrR2xzfvuu89blpxH/8lAh7W77777ul9//dW7e0l+WXbZZR3kPXDgwJxysO222/pynF9MUCawhJCFF17Y7bPPPv6TzFksGmKCiM6CBj8IHmsZt/fBBx/sLW/uj2VPIQjcpLiVIXeSoJAXX3zRkzbbxBxxWdL2jz76yJ9DEg913HrrrW6uueaiWKrgWaBc69atPVacp0UT8FVXXVU0Jkn7Zp55Zn+69FcMAVe6L3T7Q9t4DA499FDf92DetWtXd9pppwUJmBgxzy6in2Fd75gxY3zmN/uoB69L1nPw4IiQYY0HiOfjqKOOchtvvLEcss8GQsAIuIGAznIZBnCyRXHzxQiDO1YgFls1hMEZkUGvGtfAisKFGpJnnnnGkXiCJN2XDB5YdkLCevCC4HC5MuhjDWqrlMEHQsEqZcoKLlhEBnS2OS4WBt8lhsn2Kqus4s4++2w2vWBhEudD+OzSpYvfJtOXhBfchhAkMVcRFAiseiwiCJOpJ8XiwtwrdaNAUA/3xnxfEYiRgZ56NQHj/sQNimhlQ85j/i0DMAJJSB1gQgLQnHPO6S1UIWbK4cY+5ZRT2PTxyFJTfcjeZc4u02mkL/3Jf//TBKz3h7ZJVML9jUh/xRBwJfsi1C69j/g6mKI0rrnmmj6zmeNpBKyVnWSCmtSLwoPLGcGbQH/w7COx5xAy0CIubLwwQub6uG1XFwEj4OriW1btEDDxSrHKSlWC9kzyTS0LA0pycJD7kYETUsGSSsYctXtTE/Dnn3/usEKwFLDctEycONFbx1iMQjoclwGda0C4OlkLomQARZg/2TnhrkWJwFLeaqut/EAJYbJNTBJLmWkzSRk2bFiOyCF0iD1NIF7IERGLKllW4oSagM8//3z39NNPe1JmKkxIUcOSJjaK5S7PH8oOkmad454mrkwcO4lFsl1YgpARXgMWgEhKtQm40n2RbH/yO65m8gfoB3IFRHlJI2CZnkU9eCSSzyv7yXtAKUToL+qmr5DYc7bbbjtfXv7xHOMFSVOMpJx9VgcBI+Dq4FqvWuVHFfsyhu+++86RJVktYZBFYlbuKbcNrFaEpRWSY445xi9KkJw7KmXJiN5yyy0LYsByHGvk+eef9wlQuH75w5pgPxIiYNqCRapFuwDpI3EzSxmmjRCLpi24msl6JUaK0HaSXZKCAoCFjOAm3mSTTZJFct+JX8riDaE4KgUZ9Bn8NQFjiWHlppEf50H+KAP0MatIaQuX5CZc+PWR3Xff3cfvUbIkFqzr0wSMElRs9Sf6Rp5FUZhKWcCV7gvd9uQ2q3qdeuqpfjceDj1vN42AtSIWeraoDA+HeGrwZOD9EC9M7DlJpZ7nieeKcAbhB5OGRcAIuGHxjrpaVgKOqrSGCwmxQU6QVEhIXGGajLaAcS9DJngHsEy1kEGKZYplFCJgkqkgBS2agDlGGS3STiHgV1991Z100km6SNFtBldZwSlUULvA8QRI4pgui6WLxasJWCzzNCuc88Viw/JnHi7xccgN4XOppZby2+X+477AOy3BSBNwlnnAsQRc6b5IwwFlEGUDpRiFSwhTyhOGQBnSx3iOiOHL1CJIkRyHpOg4MUROSCjrOToGTP0XX3yxe/zxx73ym1Q4k9e375VHwAi48pjWu0Yj4HwISWLCZYz2juafFKxIiQlqAhbXK+VZzq99+/Z+ehHTPJjChGVI7DZEwExDwsWqJSsB69jquuuuGxxUdf24AdOmAlGOpRpFKejbt6+bb7759Ol+W+LemoCxwrEA06xPTkRRgKTIJSAjVrJ3OaaXjOR7OUKyD7kEaW2oNgFXui/SMNBToNLKJPdz7yiEkvmscwh0We0BYYzAC5D1nKTXRkIW2oOgr2nb1UXACLi6+JZVuxFwPmySwJNMfJJSzKuUuKIQsMRdSUgiCYbpFjrBif1YhrjXq0XA1E3GNsKc4xNPPFGanPuknSgBSNu2bfNizrlCf2/o+yT5BoUiKWQQY0FqAhZyTYvzgQUEiceAucwoLtrawrJPvtiBcyBmSJUErI022ijZlLzvxJPJa+DlCJK8pQtUm4Ar3Re67Xr7999/dySJ4VkJCcoiZcgCFw8GbuT555/fPyskVOqFNnQdMiWMpMK7777bX4PnK8s5Sdc+fUG4Ie3Z0Ne37cojYARceUzrXaMRcD6EJLGwmAaDFnEqrFkRiEAyidknBEzylVgHycxpymmCqRYBcx1xS+MuJBNbKwEcZyDFmkVY1ahY5jvxZYiQwR2LGsVECwRKkg4Z3pqAyZbGMkbAj3iflnHjxvlpXuxDKcFihrBYiASyEFLW5+jpULhDk65NXZbtPn36+AUz0gb6ahMwbahkX1BfOSI4hFbCEo8NJIkipfsJkqXvUXhIepMYcznn6HYzvY/+L5YfoMvbdmURMAKuLJ4Vqc0IOB9GsnOJpZE0hesYa5fBCYuKpCP9Fh0hYObmkr0LQXMOmJLRzHc0frHeuJJ2i0pMsRIuaOrWbmPagzIgc2BJDCPDm9g1b7mRqUKcJytysc2gLat1ke0q85e1YsH9YkmxuAKiCZikM5QRwY8pKzJvl9g4cUSS0nCDogRwLsLbhQYMGOC3SSojto3gzqYPCAtwDm3FKismKFAoUiQOEZdPKiINQcDl9AWZx0J2KBlYt/WRYgSsE99WWGEF3y+EGSBd4sKvvfaav7SeclTOOdJ+ngeeST55PojPmzQsAkbADYt31NWMgAthwnqEHEQYyLH4EKZ4kPSCCAGzLUsAsg1RkEg0vi5bHAsRKwMSYqoSx8hSZnCsNAFD+GQRsygIQluJt7EoBASGYB1DQDqmqwmJ5TfF6scKZgqSJJXhxiSmzRQl8GAxjaQFzDX0m3iYD81KVLSN8xiAEeaEMm1KBHcpFhKEi0DMKAI6gzw2QxrcIXEklNSl77caSVhct5y+oI/IQUAqMVe2GAFzjZtvvtkrKGwjzPdm/W3ajoRCGeWcQ116oRqULZ5Lk4ZFwAi4YfGOupoRcBgmrDvctUzHYECChMkmhSSYF4nglsU9i+BGxdJlWogWBhqmeEE8HIcMIWSsNKb3sEoW9bKmshY9YIWmAclUG72wB+cT52UdaHEDS51kHDO9h/OSrmdpB2UZYIkRikCIWETMf9aChca60lhsEDOWqRYsZ6xQ3JlawBEiDbmRwRA3J3OgtUDEuKpLxX7lHNzmshZ0yNrS9wv+SQtZ6kl+ynnEz7k3RCdCJedrZ+0LvC/ybFWCgEUp1ItzJO+JMAFKiChGHMdrwiwAlK/QPO5yzuH5YHUynj2t3CbbY9+rh4ARcPWwLbtmI+Di0EEgWIBYB5CYXqAAly7WrBZiXFhguEk5JskvlGGQg1jZV20LgPV+IU0GdaxJ3NxYr+UICgiKCNNXsKDJbhW3crH6cHeT9IXlCx5YwmRehwZ1XQ9ETNs5H2ucEEAyoUeXD23LgM+cb+LSjSlZ+4JkJ6Zx6ZXRqtl+FAUyt+knnhVc0kklLXn9LOfw/PBqSJQ5Fojh3kwaHgEj4IbHvOQVjYDzISLhh7mKWEVkEmOxaZFF6rEScFXLIg26jG03PgK4tBn0cZVjVZPcVQsiy0TiLWnXrl0tNLlkG+VFDCieeJUIw5g0PAJGwA2PeckrMg8TK09iTyVPaOYF9MpCaOq4BCFj3JpMzSELGks2lFnazKGpuduTecq10lcksKE04ClAMdbridcc+KrBhGDw/ITWBlfFbLPKCBgBVxlgq77+CECuZOrikkNIZMIdR4IMGaII7mMsFO1e9gfsX5NCgJWiWAAFdzarMPGWpaYsuN55PzTxXxLcmoPIqmBgj1JBGMekcRAwAm4c3O2qGRFgIGS5RN6MpJNTiH8SH2OJSlnwPmPVVryBEeClDCyMQtKXvEGqgZvQoi/HVDaS6nr16lWwnGqLBqYRbt4IuBFAt0uWjwBTbJj/y7QjEpj+395Zx8hSdFH8BpfgHtzd3SFBg7vDwzW4u7sEd3i4e/Dg7u7uTrAAfxDyvV993Mmdnp7Zmdnpmd7dc5O33dNSVX2qX526Vu3pOe2XqDuFgBAQAr1BQATcG9xVqxAQAkJACAxxBETAQ/wF0OMLASEgBIRAbxAQAfcGd9UqBISAEBACQxwBEfAQfwH0+EJACAgBIdAbBETAvcFdtQoBISAEhMAQR0AEPMRfAD2+EBACQkAI9AYBEXBvcK9bK6s7PfTQQ+k8C/UrSb4uVDohBISAEBjQCIiAS9Z98UsurXwVpmSPoeYIASEgBIRAHwiIgPsAqNunRcDdRlz1CQEhIAR6g4AIuDe4161VBFwXGp0QAkJACAwqBETAJetOEXDJOkTNEQJCQAgUhIAIuCBg2y1WBNwucrpPCAgBITCwEBABl6y/RMC1HcK3kW+55Zb0/V8+CzfFFFPUXlTgET4Acfvtt6ca1lxzTRtnnHEKrK34oiOeyy67rE011VSp0tdff93eeOMNG2+88Wz11VdvuSHnn3++vf/++3bIIYfYxBNPnL5p7f3WbGFrr722jTLKKJX+7mT7mm1D0dfxNa9RRx21pWr4jCMZESONNFLufR9//LGdffbZtuSSS9r666+fe40Olg8BEXDJ+kQEXNshfPlo0003TSeOOuooW2SRRWovKvDI119/bdtuu22q4YILLrBpp522wNqKLzriefDBB9vSSy+dKr3sssvspptuSl+YuvTSS1tqyEsvvWSHHnqozT333HbyySene3/55RfbZJNNWirn8ssvt9FHH73S351qX0uNaHDxXXfdZQ8//HCDK8xWXnllW2WVVaquee+99+yaa66xt99+25jQ8RUvsGKCMf/881dd6z+YKDHxu//+++27776z0UYbLX0/mfvWWWcdG3PMMf1S+/fff23nnXdO38g+99xzB/w7WnmwQb4jAi5ZB4uAazskEoYIuBafVo9EPDtBcGh0Pvgff/zxFUKJBAyp8u3mvoRv1Y488silJeATTjjBHn/88YaPsfHGG9tWW21Vueb5559P395Fi80Kz3rYYYfZoosuWnWKceDwww+31157req4/5hnnnnsmGOOSaTsxx599FE76aSTbM4557RTTjlFawg4MCXeioBL1jki4NoOYeDCtIlMM800NvbYY9deVOCRwaYBoy19/vnnCbHJJpusokm1qwFjZr7kkkts1llnNQjUJRLwRhttZMOGDfNTDbedbl/Dylo8udtuu9lHH32UCNNN99kiFlhgAeMf8ttvv6Xn/uuvv5LZebPNNrO55prLvvjii2Rt4N3CHI3VYLbZZqsUNXz4cLvhhhvSb8gW18dYY41lTz/9tLE+ALLEEksk8k4/RvwBt+23394oc9999zUW8pGUGwERcMn6RwTcmw5hoERDy/OxdYOAf//997q+5V9//TX5ZZtBhvcH4ht33HFtjDHGaOaWyjXtEDBmUoiVOrODfrsEXGlQZqfZ9v3555/JjI122WlZb731jPJPPfXUpGn2Vf4VV1xh119/fbps//33t+WXX75yy6effmp77LGH0Wcc5zzyxx9/2JZbbmmQ9gwzzGCnnXZaVV+i3boZHFcB5myXW2+91S6++GKbcsop01Yr6Tky5dyKgEvWLyLg2g5hQDriiCNSENYOO+xQ0RTQEp555hmbfvrp7cADD6y5EX/is88+a3PMMUca6LjguuuuM0x1+N0wFV544YUp8Oinn35Kg9xMM81k22yzjc0+++yV8hoRMOfQXhgsITzaOeGEE1buze54/TPPPHMys6I9YqL88ccfbcYZZ7TFF1/cNtxwQ4OQCWoiKAoCJvALzYkBmyCpKLwzd955p91zzz32zTffVE5xHT7GDTbYIAVF+YmI59Zbb518kZxrluC8HLbUSfAPkxd8nPgpXdol4HbaRz/QfnytYElf0IcEJa222mrepH5t4/NAqtl+yCt8xx13TNYGCBErQVZOPPFEe+yxx1J7KRNT/RNPPGGY8pEDDjjAlltuubTvf7788suk6fIboo5+dt4b3mu04V64a7yN2jaHgAi4OZy6dpUIuBbq6LOMg4prApDZWWedVXMj/jDIdt555zUGOgSygDSIpMa0/f3339fch6kPUoUQkXoEzEDIAPnzzz+nAZS2YS5sJF4/GirRvtybFYKiMLkTeJMV2nT66adXiI61w3lOBnEXtB6Ou/Cs3DP++OOnQxHP/vqAmXAwgWDigM8ySiSsVkzQrbbvqaeeSs+HZponRM7vueeeLUceZ8t65513bO+9906TDYLVENpKMFSetSE+/7rrrlshzViuT2A4Rh8xaSCICjMz1hjM0Hm+c4ISqRtT93HHHReLTJM03h8CwZiwScqLgAi4ZH0jAq7tkDggd4qAvRbIDo0BcyWDIZokwqC93377pf08AsaHitbtAzABMQS/9CVOwFzHAIu2i4aDloupMU4IaBvRrn///bfdfPPN9vLLL6fifaDmh5MC+/j80N7RzD755JM0iBNBizAQe2RuxLM/BMy7SvsxQxMlnk1/iQREZDDm23oC/m5KbaV9aLvbbbddasMkk0ySgsHwRTN5ueOOOyoTE+rmuv4IH0nB9AwhYo0gohnXBROeySefPOEPHp5i9Oabb1beId4l3qmsvPXWW8l0z3EmMExkeK8IvmLihFafJwcddJC9+uqryUQNYUe56KKL7LbbbjPwuPLKK+Mp7ZcMARFwyTokEjDm0DyfZGwy//kx2SF5M+V4bbv7RZdPuyDBxRZbLLeJcUDuJAFjmoWwouyyyy6JvEg1IuUIyRIwxxgkIRi0ZTSQGEDD+XoSCThrPnT/HffON998RsStC3meu+66a/rJ1vN0IRnaiRaGCTOagEl3oQ40w7XWWst22mmndH/Esz8EjLkXzRJBC89q/5GA00UN/kBaPvlppX0QIsSIBgrxQDoumGGPPPJIe+GFF9KkBBN5f/zCkBkuhEZCkCBtwmWA+4P3FWGCttBCC9XcykQOMzWy++6726qrrmoe6JUNaos3Y6LGVI27g+eKEk3YWR9xvE77vUdABNz7PqhqQSTgqhOD/IcPPnmPGQfkThEwAz6EBYFGOeOMM+yBBx6wCSaYwK699tp0KhIwJmcID42VaGwGwllmmSUW0XDfCZiJE4QbTZcQhZtx83x/TFKol8UqfND+9ttvDVM4Az4DdpSvvvoqmUzR0tZYYw1jcoFEPPtDwJFg8KVDPlGKJmDM7GDB/xksBcQHZIWUIZ/IsGVi0664v5b7l1lmGVtxxRVt6qmnThHNV111VSVSH78zOdEPPvhgMitzPdHh2f7h+A8//JAmSey7FYEUJiwhEDbEnSf+nuIz9kVi/DriBjygK29i5Ndp23sERMC974OqFjCoYH6KPryqC3J+EHiBFLVCU9Hl03Y0znrBS5EwOkXAk046qRGhmhUGUogXMy4EjUQCjtdjIoSMo9YZz+ftOwHnaS7RHBnNzF4OKSz4jElJIe82Crm4pKiglWJ+5R/aFceRIgj4vvvuszPPPDOVjxaW7b9IwCuttJLhB60nWHogMyT2d6MJAiTl+baY//MmQkw+/PvaaOuYwtsVFuEgBYn0o6y5nXiCvfbayz744INUPJHIWC2c/PP6kws/++yzimXC3QRMJEhTyvPvettdA55ooons6quv9sNpS3S1vx9YagjEk5QTARFwOftFrQoIxAG5FQJGe4CU8oKwCGY655xzQi3/322FgLkDnx+RxM2KE3Be/ZGAaZsHgXnZeQSMefnGG280yBDtOAraEdohk7kiCJhAJPdRos3HlZloRyTgIoKw8IHiC21WMMFjii9KokUACwbk6JroscceawsuuGBN1dFP7D5g7mVZUNwaaLp54n5i0pSyPuCoVTeyLOWVq2PdRUAE3F28VVsbCLRLwGgBaAN5BFwvcrovAkZzPvroo5PPk0AnNDcisLNkWe8xnYDz6m+HgD0SnPoIYmKZTsom7YX0LLQyNLEiCNj9z9TdlwZcBAG/++676fmon0Up8giOcy4s4ehath/r5DamB+EiwITMwhhI9NvHOonghpwR15Ld1E3Uej2fs7/beVpybEe0IMR6tV8OBETA5egHtaIBAn0RMERz3nnnVZUQ/YOdJGD35RF9vM8++yTtEvLFFNtMgE8nCdh9nwQbLbzwwikHObaB4/iNcSEUQcAeFQzwmOKza2QXrQHzXFggEMysaIVZASMmIMh0001X5XPPXtvoNxM5YgMQ/M0x2Mvvixo5kzTeO48Sjwtt+PVsmbzde++9yXpAyhGxCZCuRy/nBVER+U1wHe/4sBGLoDC5iRIj4+UDjsiUb18EXL4+UYsyCNQjYF84gkGLtItIPtEc2EkCjkTjZEpziaYmqrov8Xs6oQFHTSfI1N/CAAAFeklEQVSv/mjeLIKAo/8yb6AvmoDB2s3yZADgs4/vAOchteEjFmxB8PljwWhH4rPicnDij2W5X5YAOwiUL0K5hYJ3lEliXL6S9K3NN988ZTF44BblxZiDFVZYIU30Yj3R9M9iLUwsojz33HMp+ptjecFx8Vrt9xYBEXBv8VftTSBQj4CffPLJyiIEaHpbbLFF0gow5aKBkIaDFEXApGdhYoRoGGAZDDH9Ir7iFfukKTEYI50kYPKDyW9F08UKgAmTqGp+kzMMKXoKGekt+AORiGc0UfqEBlN2M19DQgNjFSZ8zx7Bmyr47083CPjuu++u+PLBgomIp+7h/ycliFXKWPkMgnTxVdL4HfvHz+dtnezBGN8uObsIeBO45+lAREezYAdCP/B5RoQV2biP9bfpF0zP/rGFbJoS96PJIuyjQbNwC+88/frPP//UrL2dLh7xh3YQmEWUPhOQ7KTEr9O29wiIgHvfB2pBHwhEwohBWEQEQ4C+ApIHATHgIpAiUcBFETB1sCYvWg6Cj5HBEQ2IICrIAYlmxE4SMGW71sU+QVfkjmMuZfLB8xMIRKoS54gUhmwinv0hYOqERPBj8jUfcm6jdIOAIT/WoHayIn2MdCjMtKRhIWjH9AfE50I/sUoaEvsnHajz55VXXknpRdSJEClPmdTjkz0mWrgjYkQ4ZE+gnAvma5Y+9XLyzOf0GS4OXymNd5toew+0Y5+FW+jvrED4ED8LudC/kvIiIAIub9+oZf8hEAkjEjCnP/zww5Q7yzUuaChoxJj40ETjoha+zB8pK55C4/exRXNAg4gBMAyGHunMYg/ZQB5flYj7fcUjr4djDMCslIT48bz6o++O64hwjYKGD7HERTXwg0ImfI83CiSE5sQEhPPcByGz2EUkRvJVMX8iThT11i2O5fu+L6WYZwKGLOgHhK2nDPm99battg8/L9o7QWFRmAixOhi4ZU3Pbhrmeu4lpawZefHFFxNhM8nJylJLLZWsDHnpgKQlkcbkaWHci6ZOWhT52Wi3WSGNjElNXN+bayB93rO8ldewirBMJZNQ+h9tXFJeBETA5e0btew/BBoRsIMESTIoQgSYY7v9yUJvR6+2TER4fjQlBmZf95n2MOhD7hzLLpbR3/Yy4OPHRANE84KEeiUQN3m4+FDRTj0avF57mIyg/fJBjDwCrHcfpnfygdF8meTh1wVX3r1GwkSByG2i52kfJunsxCDvfnK6WVyDunAPsOJYPbMygWKkLmEJGD7C991Kjnpe3TpWLAIi4GLxVekdQCDmNWY14A4UryL6iYB/ci+a+vtZZOG3MynBH4tVgA9vDBbBz88kBNdMo4VPBsvzDvTnEAEP9B4cxO3HR4b5jahOTHhIngl4EEMwIB4NLZgBHzM32lez62L38uEIWHvkkUeSj9SDqXrZnk7U7QFf7azQ1on6VUbrCIiAW8dMd3QJgegLpEpMfASz4NuTlAsBT/tiMQxfWKJcLaxuDdHEBEwNhMlCdcvr/yIYjQyAbER1/Tt0ptcIiIB73QOqvy4CTsCYCfGxsZoQ30uVlBMBAptYjILUn2aDmsr5JAOvVQRsEQxIwKF/RnPgPcXQa7EIeOj1+YB6YsybEHC9oJMB9TBqrBAQAkIgICACDmBoVwgIASEgBIRAtxAQAXcLadUjBISAEBACQiAgIAIOYGhXCAgBISAEhEC3EBABdwtp1SMEhIAQEAJCICAgAg5gaFcICAEhIASEQLcQEAF3C2nVIwSEgBAQAkIgICACDmBoVwgIASEgBIRAtxAQAXcLadUjBISAEBACQiAgIAIOYGhXCAgBISAEhEC3EBABdwtp1SMEhIAQEAJCICAgAg5gaFcICAEhIASEQLcQ+B/rX/9SSQ4GcgAAAABJRU5ErkJggg==;" vertex="1" parent="1">
                    <mxGeometry x="480" y="120" width="480" height="512" as="geometry"/>
                </mxCell>
                <mxCell id="3" value="" style="shape=image;verticalLabelPosition=bottom;labelBackgroundColor=default;verticalAlign=top;aspect=fixed;imageAspect=0;image=data:image/png,iVBORw0KGgoAAAANSUhEUgAAAX4AAADsCAYAAABzA80AAAAKqWlDQ1BJQ0MgUHJvZmlsZQAASImVlwdQU1kXgO976Y2WEDqE3qS3AFJCaAEUpIOohCSEUEIIBAE7sriCa0FFBCu6IqLgWgBZCyKKBRGw1wVZFJR1sWDD8j9gCLv7z///85+ZM+d755177rl37n1zHgAUJa5Ekg4rAZAhzpGGB/gwYuPiGbghQAJagA5ogMrlZUtYYWEhAJFp+3d5fwdAE/am1USuf3//X0WZL8jmAQCFIZzEz+ZlIHwC0Rc8iTQHANQexG+4OEcywe0I06RIgQjfm2DhFI9McNIko8FkTGQ4G2EaAHgylysVAkBmIH5GLk+I5CF7I2wr5ovECEsQ9szIyOQjfBRhMyQG8ZEn8jOT/pJH+LecSfKcXK5QzlNrmRS8ryhbks7N/z+3439LRrpseg4TRMkp0sBwxKoge3YvLTNYzuKkuaHTLOJPxk9yiiwwapp52ez4aeZzfYPlY9PnhkxzssifI8+Tw4mcZkG2X8Q0SzPD5XMlS9msaeZKZ+aVpUXJ/SkCjjx/QUpkzDTniqLnTnN2WkTwTAxb7pfKwuX1C8QBPjPz+svXnpH9l/WKOPKxOSmRgfK1c2fqF4hZMzmzY+W18QW+fjMxUfJ4SY6PfC5Jepg8XpAeIPdn50bIx+YgB3JmbJh8D1O5QWHTDNggE6QjKgUMEII8+QKQI8jLmVgIO1OSLxUJU3IYLOSGCRgcMc96FsPe1t4RgIn7OnUc3tIn7yFEvzrjy2oFwLUEcQpnfFxDAE49A4D6fsZn+AY5ShsBONPNk0lzp3yTdwkDiEAR+Q5oAF1gCMyAFbAHzsAdeAM/EARCQSSIAwsBD6SADKTyxWApWAWKQSnYCLaCSrAb7AMHwRFwDDSB0+A8uASugW5wGzwEfWAQvASj4D0YhyAIB1EgKqQB6UHGkCVkDzEhT8gPCoHCoTgoERJCYkgGLYVWQ6VQGVQJ7YVqoV+gU9B56ArUA92H+qFh6A30GUbBZJgG68AmsA3MhFlwMBwJL4CFcBZcABfB6+EKuBo+DDfC5+Fr8G24D34Jj6EAioSio/RRVigmio0KRcWjklFS1HJUCaocVY2qR7WgOlA3UX2oEdQnNBZNRTPQVmh3dCA6Cs1DZ6GXo9ehK9EH0Y3odvRNdD96FP0NQ8FoYywxbhgOJhYjxCzGFGPKMQcwJzEXMbcxg5j3WCyWjjXFumADsXHYVOwS7DrsTmwDthXbgx3AjuFwOA2cJc4DF4rj4nJwxbjtuMO4c7he3CDuI56E18Pb4/3x8XgxvhBfjj+EP4vvxT/HjxOUCMYEN0IogU/IJ2wg7Ce0EG4QBgnjRGWiKdGDGElMJa4iVhDriReJj4hvSSSSAcmVNI8kIq0kVZCOki6T+kmfyCpkCzKbnECWkdeTa8it5PvktxQKxYTiTYmn5FDWU2opFyhPKB8VqArWChwFvsIKhSqFRoVehVeKBEVjRZbiQsUCxXLF44o3FEeUCEomSmwlrtJypSqlU0p3lcaUqcp2yqHKGcrrlA8pX1EeUsGpmKj4qfBVilT2qVxQGaCiqIZUNpVHXU3dT71IHaRhaaY0Di2VVko7QuuijaqqqDqqRqvmqVapnlHto6PoJnQOPZ2+gX6Mfof+WU1HjaUmUFurVq/Wq/ZBXUvdW12gXqLeoH5b/bMGQ8NPI01jk0aTxmNNtKaF5jzNxZq7NC9qjmjRtNy1eFolWse0HmjD2hba4dpLtPdpd2qP6ejqBOhIdLbrXNAZ0aXreuum6m7RPas7rEfV89QT6W3RO6f3gqHKYDHSGRWMdsaovrZ+oL5Mf69+l/64galBlEGhQYPBY0OiIdMw2XCLYZvhqJGe0RyjpUZ1Rg+MCcZM4xTjbcYdxh9MTE1iTNaYNJkMmaqbckwLTOtMH5lRzLzMssyqzW6ZY82Z5mnmO827LWALJ4sUiyqLG5awpbOlyHKnZc8szCzXWeJZ1bPuWpGtWFa5VnVW/dZ06xDrQusm61c2RjbxNptsOmy+2TrZptvut31op2IXZFdo12L3xt7CnmdfZX/LgeLg77DCodnhtaOlo8Bxl+M9J6rTHKc1Tm1OX51dnKXO9c7DLkYuiS47XO4yacww5jrmZVeMq4/rCtfTrp/cnN1y3I65/elu5Z7mfsh9aLbpbMHs/bMHPAw8uB57Pfo8GZ6Jnns8+7z0vbhe1V5PvQ29+d4HvJ+zzFmprMOsVz62PlKfkz4f2G7sZexWX5RvgG+Jb5efil+UX6XfE38Df6F/nf9ogFPAkoDWQExgcOCmwLscHQ6PU8sZDXIJWhbUHkwOjgiuDH4aYhEiDWmZA88JmrN5zqO5xnPFc5tCQSgndHPo4zDTsKywX+dh54XNq5r3LNwufGl4RwQ1YlHEoYj3kT6RGyIfRplFyaLaohWjE6Jroz/E+MaUxfTF2sQui70WpxknimuOx8VHxx+IH5vvN3/r/MEEp4TihDsLTBfkLbiyUHNh+sIzixQXcRcdT8QkxiQeSvzCDeVWc8eSOEk7kkZ5bN423ku+N38Lf1jgISgTPE/2SC5LHhJ6CDcLh1O8UspTRkRsUaXodWpg6u7UD2mhaTVp39Nj0hsy8BmJGafEKuI0cXumbmZeZo/EUlIs6ctyy9qaNSoNlh7IhrIXZDfn0JDGqFNmJvtB1p/rmVuV+3Fx9OLjecp54rzOfIv8tfnPC/wLfl6CXsJb0rZUf+mqpf3LWMv2LoeWJy1vW2G4omjF4MqAlQdXEVelrbpeaFtYVvhudczqliKdopVFAz8E/FBXrFAsLb67xn3N7h/RP4p+7FrrsHb72m8l/JKrpbal5aVf1vHWXf3J7qeKn76vT17ftcF5w66N2I3ijXc2eW06WKZcVlA2sHnO5sYtjC0lW95tXbT1Srlj+e5txG2ybX0VIRXN2422b9z+pTKl8naVT1XDDu0da3d82Mnf2bvLe1f9bp3dpbs/7xHtubc3YG9jtUl1+T7svtx9z/ZH7+/4mflz7QHNA6UHvtaIa/oOhh9sr3WprT2kfWhDHVwnqxs+nHC4+4jvkeZ6q/q9DfSG0qPgqOzoi18Sf7lzLPhY23Hm8foTxid2nKSeLGmEGvMbR5tSmvqa45p7TgWdamtxbzn5q/WvNaf1T1edUT2z4SzxbNHZ7+cKzo21SlpHzgvPD7Qtant4IfbCrfZ57V0Xgy9evuR/6UIHq+PcZY/Lp6+4XTl1lXm16ZrztcZOp86T152un+xy7mq84XKjudu1u6Vnds/ZXq/e8zd9b166xbl17fbc2z13ou7cu5twt+8e/97Q/fT7rx/kPhh/uPIR5lHJY6XH5U+0n1T/Zv5bQ59z35l+3/7OpxFPHw7wBl7+nv37l8GiZ5Rn5c/1ntcO2Q+dHvYf7n4x/8XgS8nL8ZHiP5T/2PHK7NWJP73/7ByNHR18LX39/c26txpva945vmsbCxt78j7j/fiHko8aHw9+Yn7q+Bzz+fn44i+4LxVfzb+2fAv+9uh7xvfvEq6UO9kKoBCFk5MBeFMDACUO6R26ASDOn+qnJwWa+geYJPCfeKrnnhRnAGq8AYhaCUAI0qPsQtQYYTJiJ1qiSG8AOzjIdbr3nezTJwSL/LHsMZ2g6480wD9lqof/S93/tGAiqyP4p/0XUKsFdZZeJbcAAACKZVhJZk1NACoAAAAIAAQBGgAFAAAAAQAAAD4BGwAFAAAAAQAAAEYBKAADAAAAAQACAACHaQAEAAAAAQAAAE4AAAAAAAAAkAAAAAEAAACQAAAAAQADkoYABwAAABIAAAB4oAIABAAAAAEAAAF+oAMABAAAAAEAAADsAAAAAEFTQ0lJAAAAU2NyZWVuc2hvdHZEyZwAAAAJcEhZcwAAFiUAABYlAUlSJPAAAAHWaVRYdFhNTDpjb20uYWRvYmUueG1wAAAAAAA8eDp4bXBtZXRhIHhtbG5zOng9ImFkb2JlOm5zOm1ldGEvIiB4OnhtcHRrPSJYTVAgQ29yZSA2LjAuMCI+CiAgIDxyZGY6UkRGIHhtbG5zOnJkZj0iaHR0cDovL3d3dy53My5vcmcvMTk5OS8wMi8yMi1yZGYtc3ludGF4LW5zIyI+CiAgICAgIDxyZGY6RGVzY3JpcHRpb24gcmRmOmFib3V0PSIiCiAgICAgICAgICAgIHhtbG5zOmV4aWY9Imh0dHA6Ly9ucy5hZG9iZS5jb20vZXhpZi8xLjAvIj4KICAgICAgICAgPGV4aWY6UGl4ZWxZRGltZW5zaW9uPjIzNjwvZXhpZjpQaXhlbFlEaW1lbnNpb24+CiAgICAgICAgIDxleGlmOlBpeGVsWERpbWVuc2lvbj4zODI8L2V4aWY6UGl4ZWxYRGltZW5zaW9uPgogICAgICAgICA8ZXhpZjpVc2VyQ29tbWVudD5TY3JlZW5zaG90PC9leGlmOlVzZXJDb21tZW50PgogICAgICA8L3JkZjpEZXNjcmlwdGlvbj4KICAgPC9yZGY6UkRGPgo8L3g6eG1wbWV0YT4K3IJynwAAABxpRE9UAAAAAgAAAAAAAAB2AAAAKAAAAHYAAAB2AAAmmUeryZoAACZlSURBVHgB7J0JlBTV1cevK7vsRERBkQSIoIhGRULCliNwFMUAoohssqossgmCgKyCKBLZAsgi4AYCoqKioCBGEAkuREM0bAqyCoJCEtGP3/vyOq9rqmeqa7qHme57z5me6up6S/2r6v/u9l6dcfz48Z9FRRFQBBQBRSBtEDhDiT9trrWeqCKgCCgCBgElfr0RFAFFQBFIMwSU+NPsguvpKgKKgCKgxK/3gCKgCCgCaYaAEn+aXXA9XUVAEVAElPj1HlAEFAFFIM0QUOJPswuup6sIKAKKgBK/3gOKgCKgCKQZAkr8aXbB9XQVAUVAEVDi13tAEVAEFIE0Q0CJP80uuJ6uIqAIKAJK/Gl6D5xaqkM2btxozr5GjRpSpEiRNEVCT1sRSD8ElPjT75qbM96xY4d07drVbI8fP16qVauWpkjoaSsC6YeAEn/6XXNzxkr8aXrh9bQVgVMIKPHngtvg22+/lcKFC8s555yToTeHDh2S//znP1K6dGk588wzM/zut4Pj9+3bJ8WKFZNChQr5HSJK/L6w6E5FIC0QUOLPwcsMIffo0UN++ukn6devn2zdulXmzJkjR48elQEDBkjdunVNb/g+bdo02bRpkxw+fNjsy5cvn1x22WXGPXPRRRf59nrdunWycOFCQ+onT540x5QpU0ZuuukmadasmZx11llm35AhQ2TXrl2yd+9e851BpUCBAqZPlSpV8q1bdyoCikDqIKDEn4PX8t///rfcfPPNpsWGDRvKm2++GWndEv8///lPGT58uNHYIz86G1gF999/f2SQsD9Nnz5dli5dar9m+F+lShUZO3asMIC0a9cuQvrugePGjZPq1au7u3RbEVAEUhABJf4cvKgu8dMsrpv69evLJZdcItddd52ULVtWevXqZSwBtPPu3btL7dq1zXEff/yxTJw4UY4dO2bcNzNmzJDixYub3m/YsEGGDh1qtgnSErStUKGC7Ny5U5YsWRIZYFq2bCnt27eX3bt3y7Zt22TkyJGmTO/evaVy5cqm/XPPPdfs0w9FQBFIXQTiIn4IBldCsgRSQ/B3J0OSXT99btWqlSFxv/67xA/po4G7GvbatWtl9OjRpmjPnj2lUaNGUdV8/vnnAkkjuG8YGHAb8R+ffbly5eTJJ5+U/PnzR8rxOxYE147BZN68eVKiRAn18UcQ0g1FIP0QiIv4X3/9daN1ph9Mwc8YH37jxo19C7jEj6unT58+UceRVrlq1SopWrSozJ8/X84+++yo3/nSsWNHo7FXrVpVHnvsMdmzZ4906NDBHIemb11JbsHVq1cLbhxk1KhRUrNmTSV+FyDdVgTSDIG4iJ/sk+3btycNIoKaSLImEyW7fvqOiwWN2k9c4r/vvvukSZMmUYehzaPV16lTRwYNGhT1m/0yZswYWbNmjcHo+eeflw8//FAGDx5sfiYgTPteIZDbuXNns7tbt27StGlTJX4vSPpdEUgjBOIi/jTCJSmn6hJ///79pV69elHt4CY6cuSIycCxRB11wKkvM2fOlMWLF8sZZ5why5cvlxUrVsjkyZPNYYsWLfJN3zxx4oSpk4PuuOMOadOmjRK/QUw/FIH0RECJPweve1bE37ZtW5PNg6sIl5GfDBw4UDZv3iylSpWSp59+WlauXGlcPhy7YMECX2tjy5Yt0rdvX1OdjR1oHr8furpPEUgPBJT4c/A6Z0X8ltQJ+FqfvNs9ArUtWrSQH374wSyxQEzAJfVHHnlELr/8creI2cYSmDVrltkmoHzFFVeoxp8BJd2hCKQPAkr8OXitsyJ+fPTLli0zPSJd88ILL4zq3RdffCHEBhDcQlgIuIZw3zAo1D01AYz5AF4ZNmyYrF+/3mT7YCWQNaUavxcl/a4IpA8CSvw5eK2zIn5m0nbq1Mks0UBu/4gRI6RkyZKmhxA8cQFy85mENXfuXJP9w4+TJk0yvn78/mT2ELy1QhxgypQp5ivWgs0AcrOByBRq3ry5LaL/FQFFIMURUOLPwQucFfHTFdI48dUjTKaqWLGi0eaZcMWSD0iXLl3klltuMdt8kG1Ftg6DA8IyDeeff75J+zxw4IDZR47/hAkTIoMFO1u3bi2sBYQULFjQzCFgIpeKIqAIpDYCSvw5eH1d4rdLNPg1z3yJqVOnyr/+9a+onyFngrS1atWK2s8XCJy4wEcffZThN2YFU867YBvpoLNnz44cr0s2RKDQDUUgpRFQ4s+ll5cXpbBuD5o+C6ih+bM4m9+kLnsKP//8s5nQRbmDBw9K+fLlzXIQrNIZS5jbsH//fqPx/+IXvzBporGO1f2KgCKQGggo8afGddSzUAQUAUUgMAJK/IGh0gMVAUVAEUgNBJT4U+M66lkoAoqAIhAYASX+wFDpgYqAIqAIpAYCSvypcR31LBQBRUARCIyAEn9gqPRARUARUARSAwEl/tS4jnoWioAioAgERkCJPzBUeqAioAgoAqmBgBJ/alxHPQtFQBFQBAIjoMQfGCo9UBFQBBSB1EBAiT81rqOehSKgCCgCgRFQ4g8MlR6oCCgCikBqIKDEnxrXUc9CEVAEFIHACOQp4v/444/N6pS//vWvA5+gHqgIKAKKgCIQjUCeIv7HHnvM9P7++++PPgv9pggoAoqAIhAYASX+wFDpgYqAIqAIpAYCSvypcR31LBQBRUARCIyAEn9gqHLfgd9884289NJL5q1Zbdu2Ne/oDdLLjRs3yt///ncpXry4NGnSJEiRpB/z1ltvCecTr1xxxRVSrVq1eIsl7PiTJ08Kr7D86aef5Le//a1UqFAhYXVTEa/fXLx4sfB2td///vdy4YUXJrT+3FzZiRMn5KyzzpJzzjknrm7ybuqcKMO1P+OMM+TMM89Mev/iaiDAwUr8AUDKrYfwft0HHnjAdA/yKVKkSKCu/ulPf5JXX33VvJpx+vTpgcok+6D+/fvLJ598Enczd955p3lpfDwFGfT27dtnBr7sDhrue5Q5h3r16sXTlSyP/fbbb+WOO+4wxw0aNEjq1KmTZZm8fACvDV2yZIl8/vnn8tVXXxliLVmypFx++eVy++23xxz4uKYLFiyQv/3tb/L999/LBRdcINWrVzeD5ZVXXukLSZgyDMRLly4V3ou9d+9eo2xVqVLFtNWsWTPzmlS/xsK05VdPovYp8ScKydNQTyoRP4F7Hg6v7Ny50+zKly+f8E5gr9x8881xWy2jRo2Sd999V7AWxo4d660yru9K/HHBlenBX3zxhQwcOFCOHTvmexya9SOPPJLBwtuwYYM8/PDDggbuFSyGIUOGyLXXXhv1U5gyXOuHHnpIeO78hMFpxIgRGSzvMG351Z/IfUr8iUQzh+sKS/yHDh2S7777TiDTsmXL5nCv42sOLQqTnwd32LBh8RWOcXReIn5cSHbwY+ArUKBAjLPK27s5TyybI0eOGPcO21hj3KcM0u+88445wVKlSsm8efOMJcAOfm/Xrp0cP37cuHdat25tyu3atUteeOEF2b17t9k/btw4QTMPW4Zyc+bMkeeee87UAck3bdpUChYsKO+99568/PLLZv/1119vBhrz5dRHmP7Zssn8r8SfTHSTXHcs4scELVasmCH27HaBG7dw4cJx+zGz264tHw/x49vFhcO5FypUyFaR4X9Q4kfDO3z4sJx33nmSP3/+DPWwI7saP26Jo0ePSunSpQ3h+TaShJ1ox/Q9twwkuHjuuecec6YDBgyQunXrRp31U089ZYicnbNmzTKuHLbnzp0rzz77LJvidbVt375devbsac4TFxy/I2HKYIXcddddZoCpWLGiTJgwIeqeGD9+vKxatcrUn93+mUqS/KHEn2SAk1m9S/yzZ8+Wp59+WgjcQtaYxQQC8Yt6H6IXX3zRaFH4Qfv27Wu6+Mwzz8jbb78t+ENbtWol+P7xuR88eNDc4JUqVZIOHTpI1apVA5/SX/7yF1m9erU5nocmTGAyCPGvW7dOFi5cKDt27IiY+2XKlJGbbrpJKI+5j6xfv14gEAZGfLUEALF4OKdevXqZYyBDAubEQPbs2WP28VG0aFHjL27RooWgdVoJQ/y2Da4DPnyEvoAPGmvt2rVt9cbtMXToUBPcbd++vfElv/baa8YPHjkoxgaBe1xhVggQ4z9He962bZswUJYrV85oyC1btoyQqT0+J/8vX75cpkyZYnBYtGhRBnfJ5s2bjRuIPo0cOVKuuuoq070uXboYi4jzmDlzZoYu48rjfBm4GSCwcsOUWbt2rYwePdrU7zcwEY/o1KmT+Z17necOCdOWKZjkDyX+JAOczOpd4i9RooTgwvETyK9z586Rn/yCu3YfRIg2iObsFcxaTOZLL73U+5Pvdx40tCsE3yzmcbySFfEzQBFsiyWY9zz8PPBvvvmm0dS8x9Iv+gcx8t+6FTiOrA32WwEf4hFYFUi8xE9dWBwMVla8bbjE4RfcdXG1dfj9h8wZLBAsC87tgw8+8DvUJAbgv85usNu38gA7GWzff/99MxBZzd8tZgcG9k2dOlUuvvhiY41Zgr311lsjxOuWYwDn3ka4bly/eMugGEyePNm4c1CocPdgBXsF9xTXq2bNmuYaYy2GactbbzK+K/EnA9UcqtMlfpokiwF/5/nnny9bt26VSZMmRTRKbn60dsSSfPny5Y1m7+4zB5z6IHsEzR9tmYeHBxOpX7++9OvXz2xn9eESVDKIn6AZ2jACYXXt2tWkU+ITR7OF6BFLgD/88IPs379fpk2bJmiQv/zlL6VPnz7G3YGF8Nlnn4mdFd6gQQNj4aDpox3jwyWTA8F90KhRI7MdL/F/+umnEfxuvPFGY5Hgu0djRONlWRIwx5+MZeFH/BxLn7wC0VAHAkGhoRLARjjnZcuWmW1rCTAY0h+IlIEBq2P+/PnGtWUOzAUf4PvXv/7VKBxcP9JlIWEwcrHknuTe9MqWLVsiVi0DG5lv9v4NWqZWrVome47njYEDq9FPCExzX+EKoo9h+kdbOSF5jvhXrlwpPKRBBHOeh+fss88Ocnjcx9jsA7/RP+7KYhSAfK+77jrfX13i/9WvfiWPP/54lC8e10e3bt2Mxor7YPDgwaaerIgfdwZuHVe6d+9uyIYHDxIJIviurRXCA3PuuecGKRZ1TCyNn2AgfeIcMfOffPLJKJ8rvw8fPlwYHCAJAoJYRUgsHz/EyLnh92bQcvsLMaKJQz64TxhkkHiJH5cafUFwabixCAKRHTt2NL/R92uuucaX+M0Bno8ff/zRkBNEh9A/6+ZhoOA7lhwBSe4JV0id7N27t9nllnOPcbcZHGww090fa5vnw88NE+t49r/yyitm/gJuOa4lctFFF5nAKf8RLARwQsimufrqq822+4ESgLsF6dGjh0nhjbdM48aN5d5775Uvv/xSKleuLBMnTnSbiGwz0OIS4j4jtTRM/2grJyTPET9+V6ttZQUQIy7+0Lws3KyxbgaX+F2/p3u+aDmY964PNDPiR+uD9HDruMKg8sYbb5gHB396Tkks4uc+sINTLLIivoBrCoHsMcHttl86JxPIIEm0Qh5wV77++mtjDRA/IXbAoIPES/wQJtogwn3cpk2byIDEPgYW3EH4pBmw/DR+jvMKZGQtEu4X7hsrzPEgBoSQ6eKnqOAKJBPmsssuk0cffdQW9f2flXvNW4h7iUlo8Yg7QNpyKHFYZDYvHyXQrt/F+XuvGeWw8BiwEQZVLLh4yzRv3lyYIIn7k8GFQcZP7DOCJYX7MUz/aCsnJM8RP6BYczwrgHhotp+K7CdL0GiRoBOnwvQDDdtqqt7yLvGjYfgdB0kT9IXQ0WjxJ2dG/FhT1i/vtkcd1MWDw8CQUxKL+D/88MOIBYOW7jdjFiKzsQ20XLRdJJbGb8+JoCcpeswrQOPkD82R/Uh2iB/ywIdtrUVcMviQcdORsgp5cY2sBCF+SMZOxKMeNE/XyoXoICHaslaArd/+53w5T8iVa52Z4GZigAwq3HuxrNZYdZBUwGCLxYgVw8xuUjaRMWPGSI0aNWTNmjVmm32co1/iARYhigGCi45BiPJI0DIM0HZgtP57U4Hnw2r8TDjDKgrTv6BKrafpuL+mNPHHjUYeK+ASP5okGqJXMJlxgyBoXdz4mRE/gVt7vFtXbiN+V3P2ukxsv8n/Z+BACLyhXSOxiB9tG+0YK5F8clfQ4tDu0cazQ/zUicsAjHGxeIVlNOgr/n8kK+JnAMSqwx1CrOCJJ54wg7NbL5lb1gXk7vfbxhrAKshtAlb45HFpWfzJOrMpmrEsXtfPDk6cX7xl8LuTyUP8hWQBNHs/YRY9z6T18Yfpn/r4fZC1JlpQjd+nipTa5RK/mzvsnqQ1mV1zOzPiJ+BJUNgruY34XTM6lrXjBvbcgGws4ndzsUl1xccOHrjJLrnkEuMHJ9/cEg8YxevqcXFFayb9lusIqTDwWLHLM2RG/JQnDZX4A3EJCMnP8iG2wwCBYmBdVLYd739cTH5BUu9xifxO7IGBnEGVIL1NQvC2YQcwG2Dl/G0KJVaUHSzdcmRPMSgg8AfWebxlsCRsWijZXDxTfoJViYfBWgVh+udntfi1ld19qvFnF8HTWN4lfhsM9HbHmp+uJp8KxO+SeqyMISwBBkSEB9dmuPgRPwSOdYDm/Jvf/MZkC7kWFPsJtOPeyw7x43rAZcGELVwCViA/5lFY/zoLsqFBxiJ+XEWQPu4QXENos7HcKWTt2KysGTNm+M6nILBM/AJiZKDLTCA+Mr2CClo2fYglED7Yk4zhBs69x9t4FdgRIOeakbFFOXeCllsOJWbFihVmYCQNk7biLYOryipQ1O2nZB04cMDEEqi/Xbt2ctttt4XqH23lhCjx5wTKSWrDJX5LFG5TpPcR2MI37T5QqUD8uGJwiUDIdU/N8sQU9wpLPDBpCy0Wi8UGNf2I39XOCBqT2eSK6zLIDvGTPYPbws2yctvBnUFbdm6BH/EzSLD+DGmOCLn6kFksgfisFYe2S867K1gMnDPEf8MNN0Qms7nHuNvJCO6isWNNMegwOLlxDtrmet99990mNuIui2CtNAiTVFZ3kiADAov4MUi6eIcp42ZcNWzY0KQBu5jgHrNpnnaeAb+HacutN1nbSvzJQjYH6nWJn+YgAAKYEB0PMTnukAyBPm5KNCUkp4jfnWEKocUy4U2nYnzECu5yuNXmIAkCeDZ4y2/uhB9veqp9GAlUzzmVLw9exAP++Mc/moEEtw5uAfYzsGzatMlMfrIBWTdrJl5XjyVNYga4INwJU7gJwIl26AtE50f8rgZv5yJwzl7Bvcc1hwAJThJY5jsLml18agIUggXD8gMMkAgWB5k9mQlBb0g6qJAWy7yIzMS1zlBisGbAH2FQxo3FypuIO3OWa/Pggw+a/bySFf89sQ4wBF+eEcRN9wxThjpwMTPXw25jZfBskSGG1Un8wZvuGbYt00gSP5T4kwhusqt2iZ+HCxLiRiQzg4cc0kLcmaB8zyniT/YELkgRv6oNxJKRxOQ1tDNMbwQNEmKD5K24GjB4kU2DH9y6xTgOYmaggozt5CZcM6R88hvkiOUQL/GTXggJM9AwYOHT5XqRKUMWEkJuP9or5+MlfvoaKzPHFHY+yPCx6awQO4TPPYELC+KHWCFwmy3DIGuzoJxqcmQTHBm87TIZZCBx7SBTMMeFgvDOA0v0tmOkqhKUt8LgRlaQvf/9rOEwZegHE/7s3BTiKjx39v5jm3vNq+CEacueS7L+K/EnC9kcqJeAINoPRITpT6YIN6cVzF8eJu/LVuz0cx5+63u1+5gIRmaIV0hPI4iaWXDLWwafKho1gpbtardmZ4APNF+CnmQ74OP1Cg8h5GY1O/d3fN4EBN1JUvxOGUjbapDWrYL2i+ZGINQVZjij7eEy43cGFbDFb+4Sv6uJuuW929QPQUDqXsHaYLIQ2iviTvtncCLg7Fo23vLud++y02irYOXeIxzPInQMJvil3biGW1dObGOlcu+RWuoVSBbX3i233BKVqmqPwz2ElWdTbtnP4IHrioA2A7xXwpQhrXfYKReiHaBsnVgZWGuxrKUwbdm6k/FfiT8ZqJ7GOjGLMcXxdZJWllPBotN4ykYb5EFEe0XTg6ghULueTqy+oWGjUaJZu4MD68Kj6UM2PMhuPRALBMo+2gkrDBi44dD0ccVgTZCtgqsgmeTL+RJgJqXUnjsDH9pqbhHmE3Bt+I9VgubPbF33Gvn11cUUC4/Bk2ubmYQpQ330jXRNrh0ZYGCY1XUL21Zm/Q/7mxJ/WOS0nCKgCCgCeRSBPEX8ZGYwwhL0UlEEFAFFQBEIh0CeIv5wp6ilFAFFQBFQBFwElPhdNHRbEVAEFIE0QECJPw0usp6iIqAIKAIuAkr8Lhq6rQgoAopAGiCgxJ8GF1lPURFQBBQBFwElfhcN3VYEFAFFIA0QUOJPg4usp6gIKAKKgIuAEr+Lhm4rAoqAIpAGCCjxp8FF1lNUBBQBRcBFQInfRUO3FQFFQBFIAwSU+NPgIuspKgKKgCLgIqDE76Kh24qAIqAIpAECSvxJvMisl8864HZt9SQ2pVUrAoqAIhAYASX+wFDFfyCv70N4iYeKIqAIKAK5BQEl/iReCSX+JIKrVSsCikBoBPIM8fPmo7Zt25oTZV3+rN52ExqRBBZU4k8gmFqVIqAIJAyBPEP8vLbMvmT65ZdfVuJP2C2QeyvipTuLFy82r1bkhdm8TjIe4VWMvFj+6quvltatW5uivO+WVx4GlUsvvVR4d+/GjRvNKy2LFy8eeYfxyZMnzUu+eak3LwGvUKFC0Gpz3XEoVvG+pjNMGTDjJfO8Dzceyawte51r164tzZs3j6fatD1WiT+Jl141/uyBy8vIecE2MmjQIKlTp07gCn/++WfzonVeqM4L0nknKsIL6V955ZXA9TRo0MDUwwDy6quvmvfsTp8+3ZR3lZH+/ftLvXr1AtebrAPpE5jxgvrZs2cLLwGPJbybecGCBeal899//715d2z16tWFQfbKK6/0LRamDAP40qVL5fXXXzfvquX9vlWqVBHaatasmXm3sV9jQdti4O3WrZt8/fXXMnny5Dw9APvhkIx9SvzJQPW/dSrxZw/c7BD/ypUrBfx5Wfqjjz4a6YhL/GjvWWmev/vd76Rz587GcsgLxG/PmxN+6qmnzAvcIyfvbGzYsEEefvhhQQP3Cm7UIUOGyLXXXhv1U5gyDEQPPfSQfPTRR1F12S8MyCNGjMjwsvd423r77bfNAM/1Hj9+vLEqbBv6PyMCSvwZMUnYHiX+7EGJJrdz505TCZprgQIFAlV44sQJad++vRw+fNiQCq4eKy7xL1++3KTb2t8y+3/o0CH57rvvJF++fBEyzU0a/5EjR+Tdd9+VGTNmmPdScy6xiJ/zaNeunRw/fty4d3CDVatWTXbt2iUvvPCC7N692+wfN26c0cypK0wZys2ZM0eee+45No3V1bRpUylYsKC89957gssWuf76681AY76c+gjTFvdKp06dTN/79u0rWGoqsRFQ4o+NTbZ/UeLPNoShKnjxxRcNAZYtW1ZmzZoVpf2FJX6/jgQlfrRqjg06cPm1FWsfMQssGgY5r8Qi/rlz58qzzz5rDve6qLZv3y49e/Y0/cV1xe9ImDLHjh2Tu+66ywwwFStWlAkTJkj+/PlNfXygma9atcp85zpdcMEFZjtMWxS0171cuXLm+hNLUPFHQInfH5eE7FXi/x+MmOLPPPOM2dGxY0e55ppr/vfjf7c++OADmTlzpvl23333ycUXXyxDhw41wV00eHzCWQm+/TvvvFPQ0Dt06CAtWrSIKhKW+CEVNGrICY0SyYz46ceSJUvknXfekW3btgnBSQgJzbply5YRkovqXIgv1D927FjfkrGIv0uXLsaSoj8Wb7cC6qNeSJoBAisnTJm1a9fK6NGjTdUDBgyQunXrus3IV199ZbR0djJA3H777eb3MG1R8OjRo9KqVStB+x8+fLjvPWYa0A9R4k/iTaDE/z9w9+7da9wL7CF4+MADD/zvx/9uQRKQBa4Ago64IuIN7v7jH/+QHj16mBoJ9KFpuhKW+OMJ7hIoJaDMQOYnRYoUMX5vBoHsCoOPq+2vXr3auFeo14/4OdYS7K233hohXrcfxDI4X4R7GMsp3jJVq1Y1gVbcOcRRcPcULlzYbcZsc32J5dSsWVNGjRplziVMW7ZirJWtW7dKo0aNjOVi9+v/aASU+KPxSOg3Jf5oOHEbfPLJJ8blgSZJdocV/PJoa2SA3HDDDdKrVy9DCPESP1bFvHnzTBuLFi3KELx1iX/KlCmZ+vgJ/lqyiof4p02bJsuWLTOn1qRJE5OGjNb86aefytSpU4WBgdTJ+fPny3nnnWchSMj/1157TZ544glTlx/x04d+/fqZ3/lfv379DO1u2bIlYtUQmGWgirdMrVq1zOBOUJeBg774ycCBA2Xz5s1mgGagDtM/2rLy5z//2VhapUuXNveB3a//oxFQ4o/GI6HfIH6yLMqUKROoXkivVKlSmZJRoIpiHITPFbFkFuOwbO2GvMl79xPS+SZOnGh+glDcB9ZmZfAjPmuyM8Jk9ZCNQs49biGCk15xid/7m/c7AdDbbrvN7A5K/LgvunbtarJlCGSSZugKcwh69+5tdnGcnZviHpOd7ayI//333zduENogm8YNfNt2CajjbkGwnhgAcZ0gQcs0btxY7r33Xvnyyy+lcuXKketuKnE+rJVXokQJY+WF6R9tWXHdS27cwP6u//8fASX+JN4JEP+ePXuM2RmkGbQdHty8LBCF+yC654KmiwaPewJN02qRHAOx8NC7fucwxG/Jhpx/cv+9kmzif/75503+PO2SIeM3yJIeSgaNN9XU29cw37Mifjfdk0EYUvbK/v37jc+d/cRjihYtalw+fA9aholUzLTft2+fGVwYMPzk8ccflzfeeMPEEcj1D9M/d9IWFqUNSLvzN/zaTud9SvxJvPrxunogOrIqkiUEvxBM92QJs1fR3mIJDyPaPX583D24PBgQ8OsSAHW17DDE36ZNGzlw4IAZfKyv3+2LS/xo8ZnNVuU8LFZBNX5r5eHXjqXNk8pIzAPrjuVHEilZEf+aNWtkzJgxpkn6ii/eKzt27DBWC/vxmXOt4i2Dj90OcNZ/722H71bjL1mypHF9hekfbVnh+bFWFnEk4kkqGRFQ4s+IScL2xEv8CWs4F1dE+uHgwYNND23mhdXySL8jlQ//LBKG+CFbLIpYgUuX+OPJ4w9K/GT84CMPIlgDWAWJlKyI39WIR44cKVdddVWG5l0/Oy45+mm16KBlcOORycPS5MzSRbP3E8iZOABBeHz8YfrnugxdayUz69OvL+m0T4k/iVdbiT8juOS0k7pHuuUf/vAHs2Q1AwEDglczDEP8pG8Sy8DdlJXGnwzit+fC7Nfu3btnBMDZQ7qkX3DVOSTuzayI302hvOeee+TGG2/M0Ma6desEgke4h7F6mByFBC2DJWHTQosVKxZJ5TWVOB9o52jp9tqH6Z9rtbjl413mw+lWym8q8SfxEivx+4NL7jiLr6FJsu4N7hlyr7253mGIn9x94iosmvbggw9m6ECyNX6ydl566SXTLrNo/RaWY2Yss1MhVGIaiZSsiB9riHkEJBK4E7TcPkyaNElWrFhhMqNIw2ROQrxlcKHZDCvq9gu04pJDCaB+6+IL0z/XXffZZ59F3n+hPn73qkZvK/FH45HQb0r8/nC6flim6+PzLlSokCxcuDAqxTMM8ZMLzkSrIFk9ydD4IUyIE0FLxuXkCvEMBieI36atur9ndzsr4qd+O2MWwiSl1R2cGBCYAIfVxGqX1i0XpgwDHMFhpGHDhtKnTx+zbT9wc9k0TwZMJuwhYdoyBU99rF+/XoYNG2a+olSUL1/e/qT/HQSU+B0wEr2pxB8bUZt9Y48g353Zuq6EIX60bUiEgCQZNt73NiRb44c4CWqSzUKsgoXQLKERXGfZAsgJsWmrbOObtiSLzxoNOIwEIf5NmzZFrCFeC4r/nrWQIHtcPHZBNTd1M0wZ+s/b59DC7TZWBq8jZXBGI//xxx8zpHuGbYs2mPjH/AgUCawV7/U3HdEPnbmbzHtAiT82uqTu2eWNOcovTTAM8bvWBAHZSpUqRXUi2cRPYxA7hI/7CuKB+PHns248s5ERliNmgLDCksJ33323+epNdbXHBPkfhPiphyWbGRitMEgdPHjQ9Jl9frOrw5T55ptvjKZPTAdhvSIm7rGoHMI2g6H3OoVpi/pw7zFwxErn5RgVUeJP5k2gxB8bXZYOYFVIyBFz3B0EbCl3eQG0YVwPWYm7Vo+fq4XMEbsqZDwv9LHlIHEsCgR/tE3Z9MYn0HKZQAbxucJMXcowMczVRl23SHaI350kN+fUypiZrcdPDAJ3F2m0VkhDxQVFYBrN3CthyjAhDPcLsRdX6BtzOZjP4CfxtsXsb+aJMLhiaZA8oOKPgLp6/HFJyF4l/oTAGHclNqjInAKWTzhdghuDnHhmr7LNDG7Wn3eXqvD2jSAq1oBdr8b7e6K/M3gxm5iF5Jiohesnq5nmYcrQb+YukK6JO4zF7sDCHfz8zi2etpgIRtooM40Z9DLD2a+tdNqnxJ/Eq63En0RwM6mawCmrefIWKgKFiVgMLZPmEvaTXa5As1HCQUr6Lov0+Vl64WpM3VJK/Em8tszKRLuxvtskNqVVexBgkTS0fSYo2Zx0zyG56ivaMIMVE5lQGFRbje/y2IAwC8Jx3RW/zPFT4s8cH/01jyLARDEWQ0MDxPxn9mhuFjJ+WMoC/z4ZKSrxIWBnTLuZSPHVkF5HK/Gn1/VOq7PFt86LXEiPZMapSmoiQPCY5Z1r1KgRtfBfap5tYs4qzxA/wTG7VCxrbmcVFEoMPFqLIqAIKAKph0CeIf7Ug17PSBFQBBSB04OAEv/pwV1bVQQUAUXgtCGgxH/aoNeGFQFFQBE4PQgo8Z8e3LVVRUARUAROGwJK/KcNem1YEVAEFIHTg4AS/+nBXVtVBBQBReC0IaDEnyToWSzsrbfeMrU3aNBAeK2giiKgCCgCuQEBJf4kXQV35cZ4VoFMUne0WkVAEVAEIggo8UegSOyGEn9i8dTaFAFFIHEIKPEnDsuompT4o+DQL4qAIpCLEPg/AAAA///z8xnJAAAckElEQVTtnQu8VVMex/+lInroaaSUCBETjdTQyFseeZOSx8hMTSQTKuX9lldEKRJ5J88kr8TgM94VZYREQo+pSQ+FanxX1vmse+65956z69y7972/9fnce/bZe6291v6uc35rrf/6r3Uq/fTTT+tMYaMT+Pnnn+3oo492950wYYJtsskmGz0P3VAEREAEohColBTh/+WXX+z00093zzh27NjYC6mEP8rHUWlEQARKg0BihD9pQpq08pbGh23NmjX2+OOP29q1a23fffe1pk2blka2ZZ7H8OHDbdasWTZo0CCrX7++rV692saPH2/r1mU/2D7mmGOsSpUqqXT77befNW7c2D3b9OnT7eOPP7batWvbkUceWebPSwGWLVtm1apVs0033TTr8tC5q1q1atbxichnqlKlSla5cuWc0kXJq6Q01PPs2bPt4osvtjp16uRUntKOLOHPE3EJf2GwIZOLLrrI9t9//8KRsjzz20jV3n//fRe7devWVrNmzSxTlm60Dz74wAYPHmy77bab3XjjjS7z//3vf3bKKafkVJD77rvPiWjXrl1dOsSlQ4cO7nj06NE2btw4a9Sokd1777053XdjRqY+XnzxRdfILViwwN26YcOG1qpVKzv77LNtyy23LJTdZ599Zg899JDNnDnTVqxY4Z4BVjRse+yxR6H4nKDhfPrpp11e8+fPdw3Mzjvv7Bgfe+yxVr169YzpouSVS5opU6bYDTfcYB07drT+/ftnLENcTkr481QTocjJxr8ecshkQ4X/66+/tp49e7obDxkyxIlLnqoy8m3pIfbq1cvmzZtn1157bUrIQuGnR1yjRo0S87jtttuceTOuwv/666+7ho3RXKZQq1Ytu+aaa2yHHXZIXX733XftyiuvdL321MnfD5gTu+SSS2zvvfcucInP0KWXXmrTpk0rcN6/2X333e2qq65yjYE/x2uUvHJNw7NT3998802B+g7LEZdjCX+eaiIUOQn/esghk4og/Jhz7rnnHttpp50M4fYhFP6TTz7ZzjjjDH+p2FeEBVEhbLXVVqmebVn3+P/zn/9Yv379nAmPRuy0004zeuDU98SJE23y5MmuzC1atHAcMMv8+OOP7rkZuWHe6datm2u8586d60Yv3333nTvPKIl7+TBmzBh77LHH3FtEvnPnzrb55pvb22+/bXzPCH/+859do+He/PYvSl5R0pDfq6++ajfddJNts802NmLECGee8+WI06uEP0+1EYqchH895JBJccJPPMSRXuJmm22WsYZy7fGvXLnSmUpKy7sKcwSCznNccMEFduCBB6aeI6rwp26QdpCt8OeLAY0aJh7mIBA9GrowIN6vvfaaO8X1XXfd1e6//3579NFH3bn0z8KcOXPsvPPOcw0H5kCuE5YvX+4aFRqL5s2b280331zg88HIzzcymLwwfRGi5BUlDXnx2aXhW7p0qV144YV2wAEHcDp2QcKfpyoJRU7Cvx5yyCT9y861Z5991vUQv//++1StMGGJvffEE090E6NcwARAzxD7LqFBgwau98sXLTQl0GtEFLHTLlq0yIlEy5YtbZ999rEjjjjCpeUf9vN///vf7j09yPAaJ5966il7+eWXnbAdddRRdvDBB7u4xf2jp3vHHXc4Mw42bCY6fYgq/AjfZZdd5iaFzzzzTGfT5p7FCX+2DHzZorxicqMhTh/Z+Hsx+ext3v/4xz8Mhn//+9/d6IWeMaOi9HD99dcb5iMafhoITGL/+te/nAmFuNwPW3oYvv32WzeXwDnE18+jRMkrShpflpEjR7rPzI477mhDhw71p2P1KuHPU3WEIifhXw85ZBIKP94tTIrxRfcBT43Q62Xrrbe2W265xU0Q0pP2ou/j80rPkolBwltvveXi08vNFOiJ9e3b15kTuBeC5HvEDNH/8Ic/uGSYVs455xzDXk8P8s477yzQy8x0b84h0NiI27dv72zSYbyowr9kyRLLxcafC4OwfLke0yjTKOFR1Lt370LJmbjFFESgkaAh96J83HHHpcQ6TOgbTs5R7zTYsOe7hKkIc0+muRH4wGnPPfd0cwoh62zz4rMWpXy+/NQ79U/A9RxPrrgFCX+eaiQUOQn/esghk1D4P/30U/vnP//pImES+etf/+pcE7/66iv3RceMQGD4f9hhhxm9WK5dffXV7vz555/vept8YelZ07vv0aOH8/5gNMCEG71RBP6ZZ55JNTDHH3+8i8dNXnrpJbv11lvd/fASuu6669ykI4LFiAGxQYDSzRguQdo/nvOkk05y+Z911ll2wgknFIgRitGhhx5qlKOogGnKmyxyEf4oDIoqQ0nn6Wn/+uuvzoWREVp68ILNecwxBEZn/jWTOWTGjBnOREYcJnNpQAcMGOAmdalnRjmZwsCBA23q1KnOFES+n3zySc554SEWpXy+PHgn0RjSceGzecghh/hLsXmV8OepKkKRw/xQkp8xPVx6TYRMPZmNUcx8358ydunSxdq1a5exuCGTUPgRY3rZuOExrA/NInyJGLbTG2cltPfkKc7Gjx2ZSTbMBAy7EX8fmCC9/PLL7b333nONC2YYb/fn/DvvvOOi0sjAy7tHMvl46qmn+tsU+0pDwWiCwEiGScgwhMIfns90zMQnJjBCLsIflUGmMmzIOV+33GO77baz22+/3bnhXnHFFe62eOD86U9/KpQFIy3MLYQ+ffpYp06d3Mjryy+/LNKkRFy8pzAJ1a1b17mJYsLLNS988HNNQ/nC4E1FNGq+EQmvl/WxhD9PNRCKXJ6yiOVt/Zc0U+FCJqHw//DDD0avkZ5Weo8aV0hGA3hZYBvGJEMoSvjpZbHYibzw6f7b3/5WqChvvPGG69FzgZ49PXwCwkrDQl40PjQS9GQpExOJvoFwkYv5F4rN3Xffbdtuu22B2PkW/g1hUKCgG/CGOqXH7dda4HlDb59JWeZLGD0RmBhOr3POL1y40DX4HPtREyv3WR9AQ0GDkSkwamP0xpwAvv5R8mLUEqV8YXmYg2BuI1y/EV4v62MJf55qgC8fvsa8ZhtY7UjI12KkfN+fsrMal95WplCU8Pu42NFxy6PHjFmGP3p+nCdkI/wIg9/aA+8RJtjSA8LOiIBAzxxziw9vvvmmsw379wgIAsYkZLZh0qRJqUk9RhTpPELhxwyA7bmowEixSZMm7nK2Pf4NZVBUWbI5v2rVKjdqe/LJJ1P1tv322zszjV9pHDa83n6ffu+wYfcmPhpxJvW9/T49De99j79evXr24IMPWpS8aKToEBByKZ9L8Ps/zJDMsfDMo0aNCi/F4ljCH4tqqBiFKEr4MeOwlQOCiRtcGBBe0tGAZiP82Hex82Yb6OH7zfRIQz5MHvuVp3iOeI+UbO/JKlpvg0YA01eShsKfix9/tsK/oQyyfc70eMzV4I3j2WGy7N69u5v0DU2dbC/BiI+AQLZp0yb9VgVs897G73vR+PX7+Zj0hH4egJEFDXaUvCh3lPKFZfEjD29yCq/F4VjCH4daqCBlKEr4Q/9rJjLbtm1rLPahl41dmAky9kDJRvhZTER8Agt5MolKiJuhuO9Rcx57Onuu+JDLpK5PE9q1S+rx50P4N5SBf45cXjGpYLbBPMZ8FXXFnEim0WvodokXUKb9hegt+8l73+v2Lp5s/fDII49kLB4T+XPmzEmNCqLkRZnZYoKQS/nCAvmyYubD3Be3IOGPW42U4/JkEn7OYYtHMPbaay/nBhfa0jnPhDFmqmyEn3h41BBwG6QHmB7Ik4aE0KxZs5R7JiKB6yaLr3DBW7x4sSsXw/Vhw4Y5u3H6vTK996s3ucakdfpmdPnu8W8Ig0zPU9I5JlxpbDHJsTcPvWXMbEUF+Huvp3CBVhifSeAXXnjBjZZw3WSSG7F/4IEHXLRwgZZPhycTjgB+1EajGiUv0kcpny8Hr2zI9+GHH8rGH0KJckwF+iG53COjECz7NGEd+sndsEeGGyducGEI3fGyEX7S4oGDaDNkx0sobEi4jpCw9J/ACk3Eil0eQ9dNeq/MN/jVpaFHkUtYzL/QPl2SV08+evwULQqDYh6p2EtMfL/yyitupTUmDu9+WlwiP8pD0O+6667UTqOkoeFltIBXFYvt2OSOgBsvE72Egw46KLU2wJ347V9oYmPURqNOiJJXlDQus9//nXvuufbFF1+4jfTYUC9uQT3+uNVIOS5PJuFnMhA/dnr2mHUY1uOGyXt6TAind0PFZQ6vIQKre2koCN7rw7357d/zzz/veui8597E8zZmxBxXR5b9s/sjk4GEsDfp/fvpwfIFRsgJDN//+Mc/uuPi/tFjZAEQ8xXpZSNdvnv85BGFAenCVcxsqpbN4iP4Uh9sqMbK5+ICYozdm7qlV0zYZZdd3CiB/Yeoa0w8fhO2dHdPPLyYSyBwzIiBrSKYlOez4r2waLh9iJJXlDQ+Pz43fIZ4xWRU3OS9T1ParxL+0iZegfPLJPzg8J4YHDOZy7oH7LT48NMjxEMD90CuYUJAkAi+V8sxnhjcB9dAGg32x/ECgV82tlZMAbiHEhgNYL5BbOiZ4d1Dr58Vu5hnyIvAPvqYMbgn6wHoSW6xxRbuWnH/vFcHYsj6gDCUhvDnysCXD/GcMmWKe5vJnOLj+VdGVtRDtgFTmt8Sg0aGSX0f4Pvf//7XseZcJlMdnwNGZuRLYOIc11vvFMAxI5Bw6w7iRckrShryChckZnLnJU5ZBwl/WddABco/FP5wrxVs0ggOe9eHAbGmV0fPiesId7igCdHgy+lDuGUDeeFZw0RrGJh4ZHUw3iaYeAhM4HmbP41H+j7woQCE5qbwvunHfsuBTOYmRIp5CwKv3v00/R7p78MGA/MHZhCCL1/6vje5MPB5eRMH7+HHKtniQrhmobh4/hojqMMPP9y/da6Ozz33XMr1kwuMznCxZc0Gvfn0gIsvjWm4pxNxaMRZLFXU/AJulbnmFSWNHz3y+cKUGMcg4Y9jrVTQMtHzpqdPL44vb/jDHYg/PSnOhQuiaDRY7EOPny8+wh4GxPLzzz939mEW5nhvoTBOPo4xYWGnZtSCSYNfHCurkCsDPJvo7bOtdCbh3djPQQOFJxLbcFBHmH58o1xcXqzzwF2TOQHmFVghnT6fk54+Sl65pGGkxQZ6uLSy7gDHhTgGCX8ca0VlKhcE/Na+zAswP5CEQAPLxDsjK0ZQCrkR8Bu00UEZ85sDgTcZ5naX/MeW8OefsXKooATo9TO5h4kKb5fwB0XiioTJdfbOxxOFjdEUciPgJ5/9auPcUpdebAl/6bFWThWQgLeBs5DML0iKMwa8Y/DkSUIjFTeOfsU07GhA082OcSqvhD9OtaGylEsCTJgiCriRljRZWi4BVJCHwoWUXV/5HWH2J4pzSIzw45/rt2llq92SJnHiDF1lEwEREIGyJJAY4S9LSMpbBERABMoTAQl/eapNPYsIiIAIZEFAwp8FJEURAREQgfJEQMJfnmpTzyICIiACWRCQ8GcBSVFEQAREoDwRkPCXp9rUs4iACIhAFgQk/FlAUhQREAERKE8EJPzlqTb1LCIgAiKQBQEJfxaQFEUEREAEyhOBRAn/9OnT3TaxbNuqIAIiIAIiEI1AooSfjY8I7ICnIAIiIAIiEI2AhD8aN6USAREQgcQSkPAntupUcBEQARGIRkDCH42bUomACIhAYglI+BNbdesL/tlnn7nf96xTp461atUq4U+j4ouACJQGAQl/aVDOYx7XXHON8atJSfpd1zzi0K1FQASyICDhzwJSnKNI+ONcOyqbCMSTgIQ/nvWSdalyFf5ly5ZZzZo1M95/6dKlVrt27YzXMp1cs2aNkaZu3bqZLuucCIhATAlI+GNaMSUV65133rHRo0fb/PnzbfXq1Va1alX3e64tW7a0vn372iOPPGJTpkyxFi1aWNeuXW38+PH27rvv2qJFi9zvgbZv395OOukkoyEYPny4ffzxx07EaRSYKzjvvPMKNALE+fzzz22//faz7bbbziZMmGAfffSRLV++3GrVqmVt27Z1P41Zo0aNkoqu6yIgAmVMQMJfxhUQNftXXnnFbr755kLJd999d7vhhhvsjjvusIkTJzpRrlKlii1evLhQ3A4dOtisWbNc45F+kR+LZsFctWrV3KULL7zQPvnkE2vYsKG7F7+BnB64xg+KN2jQIP2S3ouACMSIgIQ/RpWRS1FWrlxpCxcutBEjRtjUqVNdz75fv35WvXp1J85e+Lln5cqVXe++Y8eOrldPg7FgwYJUdjQAxx57rK1atcqeeOIJ+/DDD901hJ8RBMELP8c0JGeeeabr5TNiePHFF90f18ijf//+HCqIgAjElEDihP/ll192wpYNT0wg9evXd0KVTfxc42DmIOTTvNGlSxdr165dkUUrysYfCv9pp51mp5xySuoeTz75pI0aNcq9b926tV133XWpa7Nnz7bevXu797weeeSR7jgUfkQfM5EP69ats0svvdTef/99d2rkyJHWpEkTf1mvIiACMSOQOOH//vvv7bDDDssKI6aJSZMmZRU3rpH69OljnTp1KrJ4JQl/pUqVDKHfbLPNUvd47733nFBzgt45vfQw0NgwaXvMMcc4uz3XvPBvvvnmNm7cODeKCNN8+umnqT2UBgwY4OYCwus6FgERiA+BxAk/6LLdpG3JkiU2Z86cvNHGzEEoyktmY2TctGnTYr1mShJ+PG4eeuihAkWZMWOGXXDBBe5caM7xkbp16+bs+J07d7ZevXq50174d9xxRxs6dKiPmnpdsWKFnXDCCe796aefbjQeCiIgAvEkUK6FP57IN26pShJ+JmmHDRtWINNQ+LlGnDAUJ/zF2fBPPvlk+/HHH+24446zs88+O7yljkVABGJEQMIfo8qIUpSShB93zttvv73ArTdE+P/yl7/YwIEDC9yPN2vXrjVGCPj2h3MDhSLqhAiIQJkTkPCXeRVsWAFKW/i33XZbu/vuuwsVet68edajRw93nsliJo0VREAE4klAwh/Pesm6VKUt/LiGIvyNGzcuUEYWeD377LPu3NixY503VYEIeiMCIhAbAhL+2FRFtIIMGTLEJk+e7FbZjhkzJuW94905N7aph1Liqkmvvl69eq7QL730kjMnYebZd999bdCgQdEeRqlEQARKhYCEv1Qw5y+TF154IWXDZ2HV3nvvbYMHD06t3M2H8PunadSokbGC1y8GY2toFpSxhYOCCIhAfAlI+ONbN1mVjK0YMPfMnDnTxfdbNtx5551uP51M7pehzz3xmjdvXiCv7t27uz19jj76aOvZs6e75t052asHc8/rr7/uJnR9wmbNmrn9fXbeeWd/Sq8iIAIxJSDhj2nF5FqsuXPnut43++VsscUWuSYvMb4X/gMPPNCtAWDLCBbIsdAL0w8ji0022aTE+yiCCIhA2ROQ8Jd9HSSiBOnCn4hCq5AiIAIZCSRK+PEWYf8d7zaY8Yl0Mi8EJPx5waqbikCZEEiU8JcJIWXqCEj49UEQgfJDQMJffuoyr09y0UUXuR9rOeigg4ztnxVEQASSS0DCn9y6U8lFQAREIBIBCX8kbEokAiIgAsklIOFPbt2p5CIgAiIQiYCEPxI2JRIBERCB5BKQ8Ce37lRyERABEYhEQMIfCZsSiYAIiEByCUj4k1t3KrkIiIAIRCKQGOFft26dvfrqq+4h2S+GHxFXEAEREAERyJ1AYoT/559/NnaLJEyYMEEbguVe10ohAiIgAo6AhF8fBBEQARGoYAQk/BWswvW4IiACIiDh12dABERABCoYAQl/BatwPa4IiIAISPj1GRABERCBCkZAwl/BKlyPKwIiIAISfn0GREAERKCCEZDwV7AK1+OKgAiIgIS/gn8G1q5da4sWLbLq1atbzZo1s6axatUqY1FdrVq1sk6jiCIgAvEgIOGPRz1EKgWCPWjQIJf23HPPtVatWhW4z8KFC23w4MHuHD+duP3226euf/nllzZ69GibPn26/frrr+58nTp1bI899rBevXpZjRo1UnGfeeYZmzhxorVs2dK6detmt912m3300UfWqFEju+eee1LxdCACIpAMAhL+ZNRTxlJ+9913dtZZZ7lrV1xxhbVt27ZAvHnz5lmPHj3cuSFDhqQahtmzZ1vfvn3tl19+cdfY94i9kHxo2LChDR061Lbcckt3igZi3Lhx1qJFC1u9erV988037vw222wj4ffQ9CoCCSIg4U9QZaUXNarwDxw40KZOnWq1a9e2/v372y677OJ6/W+88YYNHz7cNQg9e/ZM7Y3khd/n37RpU2vfvr3x2rFjR39aryIgAgkhkEjh32GHHaxy5crFIqYXu3z5chcnNFsUmyjHi/m+P8Xp0qWLtWvXLmPJogr/8ccfbytXrnTCjsCHgZHB5MmTbdddd7WbbrrJXQqFn1EF5qVq1aqFyXQsAiKQIAKJFP4E8d3govbp08c6deqU8T5RhZ/GZOnSpc6U069fP9tzzz1TDSnmHyZtaViZ8CWEwj9mzBjbaqutMpZHJ0VABJJBIDHCjw162rRpBWzRJSFetmyZi5KLt0pJ9wyv5/v+5IU5pW7dumG2qeOowj9y5Eh76qmnUvdhUrd169ZuYrdNmzaF8vPCT7yHH344lU4HIiACySSQGOFPJt78lrok4WcSt3fv3q4Q4eQuLpxjx461p59+2nDLTA+Yc8455xxr0KCBu+SFHy+ee++9Nz263ouACCSMgIQ/YRUWFrck4X/rrbfs6quvdklC4ff3wEOHSV7+GE199dVX/pI1a9bM7rrrLvdLZxL+FBYdiEC5ICDhT3A1hsKPv/4+++xT4Gkee+wxwyZP8MK/YsUKmzt3rhP0nXbayV3z/xYsWGA33nijzZgxw50aNWqUNW7cOGXjV4/fk9KrCCSbgIQ/wfWHmQYPHUw33bt3t65du6aehkVZTNzOmjXLnfPC/8EHH6QWdeG6Sc8+DPT8BwwY4E7h1YN3j3r8ISEdi0DyCUj4E16HuGN+/fXXVr9+fddb33rrrW3JkiX2wAMP2KRJk1JP54WfCWm8emgsOnTo4BqHTTfd1MVbs2aNjRgxwv2mMe6w48ePd549Ev4URh2IQLkgIOFPeDUy2frEE0+kngLPG4SfgDfQ4sWL3bEXft4g7mzDQKhXr56xLoIRwsyZM+2nn35y5xlJ+FW/En6HRP9EoNwQkPAnvCrpuQ8bNsz17sNtF1iNi0cPe/gQx5tteFxMRDQYzz//fCH32CpVqljnzp3tjDPOsKpVqzo69913nz3++OOmLRoS/mFR8UXgdwIS/nLyUUDM2XgNUw4C3aRJkxKf7IcffrA5c+bY/PnzXVzMRM2bN3dmoxITK4IIiEBiCUj4E1t1KrgIiIAIRCMg4Y/GTalEQAREILEEJPyJrToVXAREQASiEZDwR+OmVCIgAiKQWAIS/sRWnQouAiIgAtEISPijcVMqERABEUgsAQl/YqtOBRcBERCBaAQk/NG4KZUIiIAIJJaAhD+xVaeCi4AIiEA0AhL+aNyUSgREQAQSS0DCn9iqU8FFQAREIBoBCX80bkolAiIgAoklIOFPbNWp4CIgAiIQjYCEPxo3pRIBERCBxBKQ8Ce26lRwERABEYhGQMIfjZtSiYAIiEBiCUj4E1t1KrgIiIAIRCMg4Y/GTalEQAREILEEJPyJrToVXAREQASiEZDwR+OmVCIgAiKQWAIS/sRWnQouAiIgAtEISPijcVMqERABEUgsAQl/YqtOBRcBERCBaAQk/NG4KZUIiIAIJJbA/wGzGpKiLxUMvQAAAABJRU5ErkJggg==;" vertex="1" parent="1">
                    <mxGeometry x="40" y="120" width="382" height="236" as="geometry"/>
                </mxCell>
                <mxCell id="4" value="サンプルプログラム前半部&lt;br&gt;rootディレクトリへのファイル追加" style="text;html=1;strokeColor=default;fillColor=none;align=left;verticalAlign=top;whiteSpace=wrap;rounded=0;fontSize=20;horizontal=1;" vertex="1" parent="1">
                    <mxGeometry x="40" y="40" width="400" height="60" as="geometry"/>
                </mxCell>
                <mxCell id="5" value="サンプルプログラム後半部&lt;br&gt;usrディレクトリへのファイル追加" style="text;html=1;strokeColor=default;fillColor=none;align=left;verticalAlign=top;whiteSpace=wrap;rounded=0;fontSize=20;horizontal=1;" vertex="1" parent="1">
                    <mxGeometry x="480" y="40" width="400" height="60" as="geometry"/>
                </mxCell>
            </root>
        </mxGraphModel>
    </diagram>
</mxfile>